<?xml version="1.0" encoding="utf-8" standalone="no"?>
<!DOCTYPE svg PUBLIC "-//W3C//DTD SVG 1.1//EN"
  "http://www.w3.org/Graphics/SVG/1.1/DTD/svg11.dtd">
<!-- Created with matplotlib (http://matplotlib.org/) -->
<svg height="648pt" version="1.1" viewBox="0 0 648 648" width="648pt" xmlns="http://www.w3.org/2000/svg" xmlns:xlink="http://www.w3.org/1999/xlink">
 <defs>
  <style type="text/css">
*{stroke-linecap:butt;stroke-linejoin:round;}
  </style>
 </defs>
 <g id="figure_1">
  <g id="patch_1">
   <path d="M 0 648 
L 648 648 
L 648 0 
L 0 0 
z
" style="fill:#ffffff;"/>
  </g>
  <g id="axes_1">
   <g id="patch_2">
    <path d="M 49.52 285.7975 
L 634.68 285.7975 
L 634.68 27.528 
L 49.52 27.528 
z
" style="fill:#ffffff;"/>
   </g>
   <g id="matplotlib.axis_1">
    <g id="xtick_1">
     <g id="line2d_1">
      <defs>
       <path d="M 0 0 
L 0 3.5 
" id="m6866f38a03" style="stroke:#000000;stroke-width:0.8;"/>
      </defs>
      <g>
       <use style="stroke:#000000;stroke-width:0.8;" x="76.118182" xlink:href="#m6866f38a03" y="285.7975"/>
      </g>
     </g>
     <g id="text_1">
      <!-- 0 -->
      <defs>
       <path d="M 31.78125 66.40625 
Q 24.171875 66.40625 20.328125 58.90625 
Q 16.5 51.421875 16.5 36.375 
Q 16.5 21.390625 20.328125 13.890625 
Q 24.171875 6.390625 31.78125 6.390625 
Q 39.453125 6.390625 43.28125 13.890625 
Q 47.125 21.390625 47.125 36.375 
Q 47.125 51.421875 43.28125 58.90625 
Q 39.453125 66.40625 31.78125 66.40625 
z
M 31.78125 74.21875 
Q 44.046875 74.21875 50.515625 64.515625 
Q 56.984375 54.828125 56.984375 36.375 
Q 56.984375 17.96875 50.515625 8.265625 
Q 44.046875 -1.421875 31.78125 -1.421875 
Q 19.53125 -1.421875 13.0625 8.265625 
Q 6.59375 17.96875 6.59375 36.375 
Q 6.59375 54.828125 13.0625 64.515625 
Q 19.53125 74.21875 31.78125 74.21875 
z
" id="DejaVuSans-30"/>
      </defs>
      <g transform="translate(72.936932 300.395938)scale(0.1 -0.1)">
       <use xlink:href="#DejaVuSans-30"/>
      </g>
     </g>
    </g>
    <g id="xtick_2">
     <g id="line2d_2">
      <g>
       <use style="stroke:#000000;stroke-width:0.8;" x="142.613636" xlink:href="#m6866f38a03" y="285.7975"/>
      </g>
     </g>
     <g id="text_2">
      <!-- 0.25 -->
      <defs>
       <path d="M 10.6875 12.40625 
L 21 12.40625 
L 21 0 
L 10.6875 0 
z
" id="DejaVuSans-2e"/>
       <path d="M 19.1875 8.296875 
L 53.609375 8.296875 
L 53.609375 0 
L 7.328125 0 
L 7.328125 8.296875 
Q 12.9375 14.109375 22.625 23.890625 
Q 32.328125 33.6875 34.8125 36.53125 
Q 39.546875 41.84375 41.421875 45.53125 
Q 43.3125 49.21875 43.3125 52.78125 
Q 43.3125 58.59375 39.234375 62.25 
Q 35.15625 65.921875 28.609375 65.921875 
Q 23.96875 65.921875 18.8125 64.3125 
Q 13.671875 62.703125 7.8125 59.421875 
L 7.8125 69.390625 
Q 13.765625 71.78125 18.9375 73 
Q 24.125 74.21875 28.421875 74.21875 
Q 39.75 74.21875 46.484375 68.546875 
Q 53.21875 62.890625 53.21875 53.421875 
Q 53.21875 48.921875 51.53125 44.890625 
Q 49.859375 40.875 45.40625 35.40625 
Q 44.1875 33.984375 37.640625 27.21875 
Q 31.109375 20.453125 19.1875 8.296875 
z
" id="DejaVuSans-32"/>
       <path d="M 10.796875 72.90625 
L 49.515625 72.90625 
L 49.515625 64.59375 
L 19.828125 64.59375 
L 19.828125 46.734375 
Q 21.96875 47.46875 24.109375 47.828125 
Q 26.265625 48.1875 28.421875 48.1875 
Q 40.625 48.1875 47.75 41.5 
Q 54.890625 34.8125 54.890625 23.390625 
Q 54.890625 11.625 47.5625 5.09375 
Q 40.234375 -1.421875 26.90625 -1.421875 
Q 22.3125 -1.421875 17.546875 -0.640625 
Q 12.796875 0.140625 7.71875 1.703125 
L 7.71875 11.625 
Q 12.109375 9.234375 16.796875 8.0625 
Q 21.484375 6.890625 26.703125 6.890625 
Q 35.15625 6.890625 40.078125 11.328125 
Q 45.015625 15.765625 45.015625 23.390625 
Q 45.015625 31 40.078125 35.4375 
Q 35.15625 39.890625 26.703125 39.890625 
Q 22.75 39.890625 18.8125 39.015625 
Q 14.890625 38.140625 10.796875 36.28125 
z
" id="DejaVuSans-35"/>
      </defs>
      <g transform="translate(131.480824 300.395938)scale(0.1 -0.1)">
       <use xlink:href="#DejaVuSans-30"/>
       <use x="63.623047" xlink:href="#DejaVuSans-2e"/>
       <use x="95.410156" xlink:href="#DejaVuSans-32"/>
       <use x="159.033203" xlink:href="#DejaVuSans-35"/>
      </g>
     </g>
    </g>
    <g id="xtick_3">
     <g id="line2d_3">
      <g>
       <use style="stroke:#000000;stroke-width:0.8;" x="209.109091" xlink:href="#m6866f38a03" y="285.7975"/>
      </g>
     </g>
     <g id="text_3">
      <!-- 0.5 -->
      <g transform="translate(201.157528 300.395938)scale(0.1 -0.1)">
       <use xlink:href="#DejaVuSans-30"/>
       <use x="63.623047" xlink:href="#DejaVuSans-2e"/>
       <use x="95.410156" xlink:href="#DejaVuSans-35"/>
      </g>
     </g>
    </g>
    <g id="xtick_4">
     <g id="line2d_4">
      <g>
       <use style="stroke:#000000;stroke-width:0.8;" x="275.604545" xlink:href="#m6866f38a03" y="285.7975"/>
      </g>
     </g>
     <g id="text_4">
      <!-- 0.75 -->
      <defs>
       <path d="M 8.203125 72.90625 
L 55.078125 72.90625 
L 55.078125 68.703125 
L 28.609375 0 
L 18.3125 0 
L 43.21875 64.59375 
L 8.203125 64.59375 
z
" id="DejaVuSans-37"/>
      </defs>
      <g transform="translate(264.471733 300.395938)scale(0.1 -0.1)">
       <use xlink:href="#DejaVuSans-30"/>
       <use x="63.623047" xlink:href="#DejaVuSans-2e"/>
       <use x="95.410156" xlink:href="#DejaVuSans-37"/>
       <use x="159.033203" xlink:href="#DejaVuSans-35"/>
      </g>
     </g>
    </g>
    <g id="xtick_5">
     <g id="line2d_5">
      <g>
       <use style="stroke:#000000;stroke-width:0.8;" x="342.1" xlink:href="#m6866f38a03" y="285.7975"/>
      </g>
     </g>
     <g id="text_5">
      <!-- 1 -->
      <defs>
       <path d="M 12.40625 8.296875 
L 28.515625 8.296875 
L 28.515625 63.921875 
L 10.984375 60.40625 
L 10.984375 69.390625 
L 28.421875 72.90625 
L 38.28125 72.90625 
L 38.28125 8.296875 
L 54.390625 8.296875 
L 54.390625 0 
L 12.40625 0 
z
" id="DejaVuSans-31"/>
      </defs>
      <g transform="translate(338.91875 300.395938)scale(0.1 -0.1)">
       <use xlink:href="#DejaVuSans-31"/>
      </g>
     </g>
    </g>
    <g id="xtick_6">
     <g id="line2d_6">
      <g>
       <use style="stroke:#000000;stroke-width:0.8;" x="408.595455" xlink:href="#m6866f38a03" y="285.7975"/>
      </g>
     </g>
     <g id="text_6">
      <!-- 1.25 -->
      <g transform="translate(397.462642 300.395938)scale(0.1 -0.1)">
       <use xlink:href="#DejaVuSans-31"/>
       <use x="63.623047" xlink:href="#DejaVuSans-2e"/>
       <use x="95.410156" xlink:href="#DejaVuSans-32"/>
       <use x="159.033203" xlink:href="#DejaVuSans-35"/>
      </g>
     </g>
    </g>
    <g id="xtick_7">
     <g id="line2d_7">
      <g>
       <use style="stroke:#000000;stroke-width:0.8;" x="475.090909" xlink:href="#m6866f38a03" y="285.7975"/>
      </g>
     </g>
     <g id="text_7">
      <!-- 1.5 -->
      <g transform="translate(467.139347 300.395938)scale(0.1 -0.1)">
       <use xlink:href="#DejaVuSans-31"/>
       <use x="63.623047" xlink:href="#DejaVuSans-2e"/>
       <use x="95.410156" xlink:href="#DejaVuSans-35"/>
      </g>
     </g>
    </g>
    <g id="xtick_8">
     <g id="line2d_8">
      <g>
       <use style="stroke:#000000;stroke-width:0.8;" x="541.586364" xlink:href="#m6866f38a03" y="285.7975"/>
      </g>
     </g>
     <g id="text_8">
      <!-- 1.75 -->
      <g transform="translate(530.453551 300.395938)scale(0.1 -0.1)">
       <use xlink:href="#DejaVuSans-31"/>
       <use x="63.623047" xlink:href="#DejaVuSans-2e"/>
       <use x="95.410156" xlink:href="#DejaVuSans-37"/>
       <use x="159.033203" xlink:href="#DejaVuSans-35"/>
      </g>
     </g>
    </g>
    <g id="xtick_9">
     <g id="line2d_9">
      <g>
       <use style="stroke:#000000;stroke-width:0.8;" x="608.081818" xlink:href="#m6866f38a03" y="285.7975"/>
      </g>
     </g>
     <g id="text_9">
      <!-- 2 -->
      <g transform="translate(604.900568 300.395938)scale(0.1 -0.1)">
       <use xlink:href="#DejaVuSans-32"/>
      </g>
     </g>
    </g>
    <g id="text_10">
     <!-- $t\ [rad/\pi]$ -->
     <defs>
      <path d="M 42.28125 54.6875 
L 40.921875 47.703125 
L 23 47.703125 
L 17.1875 18.015625 
Q 16.890625 16.359375 16.75 15.234375 
Q 16.609375 14.109375 16.609375 13.484375 
Q 16.609375 10.359375 18.484375 8.9375 
Q 20.359375 7.515625 24.515625 7.515625 
L 33.59375 7.515625 
L 32.078125 0 
L 23.484375 0 
Q 15.484375 0 11.546875 3.125 
Q 7.625 6.25 7.625 12.59375 
Q 7.625 13.71875 7.765625 15.0625 
Q 7.90625 16.40625 8.203125 18.015625 
L 14.015625 47.703125 
L 6.390625 47.703125 
L 7.8125 54.6875 
L 15.28125 54.6875 
L 18.3125 70.21875 
L 27.296875 70.21875 
L 24.3125 54.6875 
z
" id="DejaVuSans-Oblique-74"/>
      <path d="M 8.59375 75.984375 
L 29.296875 75.984375 
L 29.296875 69 
L 17.578125 69 
L 17.578125 -6.203125 
L 29.296875 -6.203125 
L 29.296875 -13.1875 
L 8.59375 -13.1875 
z
" id="DejaVuSans-5b"/>
      <path d="M 44.578125 46.390625 
Q 43.21875 47.125 41.453125 47.515625 
Q 39.703125 47.90625 37.703125 47.90625 
Q 30.515625 47.90625 25.140625 42.453125 
Q 19.78125 37.015625 18.015625 27.875 
L 12.5 0 
L 3.515625 0 
L 14.203125 54.6875 
L 23.1875 54.6875 
L 21.484375 46.1875 
Q 25.046875 50.921875 30 53.453125 
Q 34.96875 56 40.578125 56 
Q 42.046875 56 43.453125 55.828125 
Q 44.875 55.671875 46.296875 55.28125 
z
" id="DejaVuSans-Oblique-72"/>
      <path d="M 53.71875 31.203125 
L 47.609375 0 
L 38.625 0 
L 40.28125 8.296875 
Q 36.328125 3.421875 31.265625 1 
Q 26.21875 -1.421875 20.015625 -1.421875 
Q 13.03125 -1.421875 8.5625 2.84375 
Q 4.109375 7.125 4.109375 13.8125 
Q 4.109375 23.390625 11.75 28.953125 
Q 19.390625 34.515625 32.8125 34.515625 
L 45.3125 34.515625 
L 45.796875 36.921875 
Q 45.90625 37.3125 45.953125 37.765625 
Q 46 38.234375 46 39.203125 
Q 46 43.5625 42.453125 45.96875 
Q 38.921875 48.390625 32.515625 48.390625 
Q 28.125 48.390625 23.5 47.265625 
Q 18.890625 46.140625 14.015625 43.890625 
L 15.578125 52.203125 
Q 20.65625 54.109375 25.515625 55.046875 
Q 30.375 56 34.90625 56 
Q 44.578125 56 49.625 51.796875 
Q 54.6875 47.609375 54.6875 39.59375 
Q 54.6875 37.984375 54.4375 35.8125 
Q 54.203125 33.640625 53.71875 31.203125 
z
M 44 27.484375 
L 35.015625 27.484375 
Q 23.96875 27.484375 18.671875 24.53125 
Q 13.375 21.578125 13.375 15.375 
Q 13.375 11.078125 16.078125 8.640625 
Q 18.796875 6.203125 23.578125 6.203125 
Q 30.90625 6.203125 36.375 11.453125 
Q 41.84375 16.703125 43.609375 25.484375 
z
" id="DejaVuSans-Oblique-61"/>
      <path d="M 41.796875 8.203125 
Q 38.1875 3.46875 33.25 1.015625 
Q 28.328125 -1.421875 22.3125 -1.421875 
Q 14.109375 -1.421875 9.34375 4.171875 
Q 4.59375 9.765625 4.59375 19.484375 
Q 4.59375 27.59375 7.46875 34.9375 
Q 10.359375 42.28125 15.828125 48.09375 
Q 19.4375 51.953125 23.96875 53.96875 
Q 28.515625 56 33.5 56 
Q 38.765625 56 42.796875 53.453125 
Q 46.828125 50.921875 49.03125 46.1875 
L 54.890625 75.984375 
L 63.921875 75.984375 
L 49.125 0 
L 40.09375 0 
z
M 13.921875 21.09375 
Q 13.921875 14.015625 17.109375 10.0625 
Q 20.3125 6.109375 25.984375 6.109375 
Q 30.171875 6.109375 33.765625 8.125 
Q 37.359375 10.15625 40.09375 14.109375 
Q 42.96875 18.21875 44.625 23.578125 
Q 46.296875 28.953125 46.296875 34.1875 
Q 46.296875 40.96875 43.09375 44.765625 
Q 39.890625 48.578125 34.28125 48.578125 
Q 30.03125 48.578125 26.359375 46.578125 
Q 22.703125 44.578125 20.125 40.828125 
Q 17.28125 36.765625 15.59375 31.390625 
Q 13.921875 26.03125 13.921875 21.09375 
z
" id="DejaVuSans-Oblique-64"/>
      <path d="M 25.390625 72.90625 
L 33.6875 72.90625 
L 8.296875 -9.28125 
L 0 -9.28125 
z
" id="DejaVuSans-2f"/>
      <path d="M 9.125 54.6875 
L 61.53125 54.6875 
L 59.765625 45.703125 
L 52.875 45.703125 
L 46.34375 12.109375 
Q 45.65625 8.59375 46.578125 7.03125 
Q 47.46875 5.515625 50.140625 5.515625 
Q 50.875 5.515625 51.953125 5.671875 
Q 53.078125 5.765625 53.421875 5.8125 
L 52.15625 -0.6875 
Q 50.34375 -1.3125 48.484375 -1.609375 
Q 46.578125 -1.90625 44.78125 -1.90625 
Q 38.921875 -1.90625 37.3125 1.265625 
Q 35.6875 4.5 37.359375 13.09375 
L 43.703125 45.703125 
L 23.53125 45.703125 
L 14.65625 0 
L 5.46875 0 
L 14.359375 45.703125 
L 7.375 45.703125 
z
" id="DejaVuSans-Oblique-3c0"/>
      <path d="M 30.421875 75.984375 
L 30.421875 -13.1875 
L 9.71875 -13.1875 
L 9.71875 -6.203125 
L 21.390625 -6.203125 
L 21.390625 69 
L 9.71875 69 
L 9.71875 75.984375 
z
" id="DejaVuSans-5d"/>
     </defs>
     <g transform="translate(321.6 314.074063)scale(0.1 -0.1)">
      <use transform="translate(0 0.015625)" xlink:href="#DejaVuSans-Oblique-74"/>
      <use transform="translate(71.679363 0.015625)" xlink:href="#DejaVuSans-5b"/>
      <use transform="translate(110.693035 0.015625)" xlink:href="#DejaVuSans-Oblique-72"/>
      <use transform="translate(151.806316 0.015625)" xlink:href="#DejaVuSans-Oblique-61"/>
      <use transform="translate(213.085613 0.015625)" xlink:href="#DejaVuSans-Oblique-64"/>
      <use transform="translate(276.562175 0.015625)" xlink:href="#DejaVuSans-2f"/>
      <use transform="translate(310.253582 0.015625)" xlink:href="#DejaVuSans-Oblique-3c0"/>
      <use transform="translate(370.45866 0.015625)" xlink:href="#DejaVuSans-5d"/>
     </g>
    </g>
   </g>
   <g id="matplotlib.axis_2">
    <g id="ytick_1">
     <g id="line2d_10">
      <defs>
       <path d="M 0 0 
L -3.5 0 
" id="m2eea8236f4" style="stroke:#000000;stroke-width:0.8;"/>
      </defs>
      <g>
       <use style="stroke:#000000;stroke-width:0.8;" x="49.52" xlink:href="#m2eea8236f4" y="277.659039"/>
      </g>
     </g>
     <g id="text_11">
      <!-- −5 -->
      <defs>
       <path d="M 10.59375 35.5 
L 73.1875 35.5 
L 73.1875 27.203125 
L 10.59375 27.203125 
z
" id="DejaVuSans-2212"/>
      </defs>
      <g transform="translate(27.777813 281.458257)scale(0.1 -0.1)">
       <use xlink:href="#DejaVuSans-2212"/>
       <use x="83.789062" xlink:href="#DejaVuSans-35"/>
      </g>
     </g>
    </g>
    <g id="ytick_2">
     <g id="line2d_11">
      <g>
       <use style="stroke:#000000;stroke-width:0.8;" x="49.52" xlink:href="#m2eea8236f4" y="243.174222"/>
      </g>
     </g>
     <g id="text_12">
      <!-- −4 -->
      <defs>
       <path d="M 37.796875 64.3125 
L 12.890625 25.390625 
L 37.796875 25.390625 
z
M 35.203125 72.90625 
L 47.609375 72.90625 
L 47.609375 25.390625 
L 58.015625 25.390625 
L 58.015625 17.1875 
L 47.609375 17.1875 
L 47.609375 0 
L 37.796875 0 
L 37.796875 17.1875 
L 4.890625 17.1875 
L 4.890625 26.703125 
z
" id="DejaVuSans-34"/>
      </defs>
      <g transform="translate(27.777813 246.973441)scale(0.1 -0.1)">
       <use xlink:href="#DejaVuSans-2212"/>
       <use x="83.789062" xlink:href="#DejaVuSans-34"/>
      </g>
     </g>
    </g>
    <g id="ytick_3">
     <g id="line2d_12">
      <g>
       <use style="stroke:#000000;stroke-width:0.8;" x="49.52" xlink:href="#m2eea8236f4" y="208.689406"/>
      </g>
     </g>
     <g id="text_13">
      <!-- −3 -->
      <defs>
       <path d="M 40.578125 39.3125 
Q 47.65625 37.796875 51.625 33 
Q 55.609375 28.21875 55.609375 21.1875 
Q 55.609375 10.40625 48.1875 4.484375 
Q 40.765625 -1.421875 27.09375 -1.421875 
Q 22.515625 -1.421875 17.65625 -0.515625 
Q 12.796875 0.390625 7.625 2.203125 
L 7.625 11.71875 
Q 11.71875 9.328125 16.59375 8.109375 
Q 21.484375 6.890625 26.8125 6.890625 
Q 36.078125 6.890625 40.9375 10.546875 
Q 45.796875 14.203125 45.796875 21.1875 
Q 45.796875 27.640625 41.28125 31.265625 
Q 36.765625 34.90625 28.71875 34.90625 
L 20.21875 34.90625 
L 20.21875 43.015625 
L 29.109375 43.015625 
Q 36.375 43.015625 40.234375 45.921875 
Q 44.09375 48.828125 44.09375 54.296875 
Q 44.09375 59.90625 40.109375 62.90625 
Q 36.140625 65.921875 28.71875 65.921875 
Q 24.65625 65.921875 20.015625 65.03125 
Q 15.375 64.15625 9.8125 62.3125 
L 9.8125 71.09375 
Q 15.4375 72.65625 20.34375 73.4375 
Q 25.25 74.21875 29.59375 74.21875 
Q 40.828125 74.21875 47.359375 69.109375 
Q 53.90625 64.015625 53.90625 55.328125 
Q 53.90625 49.265625 50.4375 45.09375 
Q 46.96875 40.921875 40.578125 39.3125 
z
" id="DejaVuSans-33"/>
      </defs>
      <g transform="translate(27.777813 212.488624)scale(0.1 -0.1)">
       <use xlink:href="#DejaVuSans-2212"/>
       <use x="83.789062" xlink:href="#DejaVuSans-33"/>
      </g>
     </g>
    </g>
    <g id="ytick_4">
     <g id="line2d_13">
      <g>
       <use style="stroke:#000000;stroke-width:0.8;" x="49.52" xlink:href="#m2eea8236f4" y="174.204589"/>
      </g>
     </g>
     <g id="text_14">
      <!-- −2 -->
      <g transform="translate(27.777813 178.003808)scale(0.1 -0.1)">
       <use xlink:href="#DejaVuSans-2212"/>
       <use x="83.789062" xlink:href="#DejaVuSans-32"/>
      </g>
     </g>
    </g>
    <g id="ytick_5">
     <g id="line2d_14">
      <g>
       <use style="stroke:#000000;stroke-width:0.8;" x="49.52" xlink:href="#m2eea8236f4" y="139.719773"/>
      </g>
     </g>
     <g id="text_15">
      <!-- −1 -->
      <g transform="translate(27.777813 143.518991)scale(0.1 -0.1)">
       <use xlink:href="#DejaVuSans-2212"/>
       <use x="83.789062" xlink:href="#DejaVuSans-31"/>
      </g>
     </g>
    </g>
    <g id="ytick_6">
     <g id="line2d_15">
      <g>
       <use style="stroke:#000000;stroke-width:0.8;" x="49.52" xlink:href="#m2eea8236f4" y="105.234956"/>
      </g>
     </g>
     <g id="text_16">
      <!-- 0 -->
      <g transform="translate(36.1575 109.034175)scale(0.1 -0.1)">
       <use xlink:href="#DejaVuSans-30"/>
      </g>
     </g>
    </g>
    <g id="ytick_7">
     <g id="line2d_16">
      <g>
       <use style="stroke:#000000;stroke-width:0.8;" x="49.52" xlink:href="#m2eea8236f4" y="70.75014"/>
      </g>
     </g>
     <g id="text_17">
      <!-- 1 -->
      <g transform="translate(36.1575 74.549358)scale(0.1 -0.1)">
       <use xlink:href="#DejaVuSans-31"/>
      </g>
     </g>
    </g>
    <g id="ytick_8">
     <g id="line2d_17">
      <g>
       <use style="stroke:#000000;stroke-width:0.8;" x="49.52" xlink:href="#m2eea8236f4" y="36.265323"/>
      </g>
     </g>
     <g id="text_18">
      <!-- 2 -->
      <g transform="translate(36.1575 40.064542)scale(0.1 -0.1)">
       <use xlink:href="#DejaVuSans-32"/>
      </g>
     </g>
    </g>
    <g id="text_19">
     <!-- $y( t )\ [1]$ -->
     <defs>
      <path d="M 24.8125 -5.078125 
Q 18.5625 -15.578125 14.625 -18.1875 
Q 10.6875 -20.796875 4.59375 -20.796875 
L -2.484375 -20.796875 
L -0.984375 -13.28125 
L 4.203125 -13.28125 
Q 7.953125 -13.28125 10.59375 -11.234375 
Q 13.234375 -9.1875 16.5 -3.21875 
L 19.28125 2 
L 7.171875 54.6875 
L 16.703125 54.6875 
L 25.78125 12.796875 
L 50.875 54.6875 
L 60.296875 54.6875 
z
" id="DejaVuSans-Oblique-79"/>
      <path d="M 31 75.875 
Q 24.46875 64.65625 21.28125 53.65625 
Q 18.109375 42.671875 18.109375 31.390625 
Q 18.109375 20.125 21.3125 9.0625 
Q 24.515625 -2 31 -13.1875 
L 23.1875 -13.1875 
Q 15.875 -1.703125 12.234375 9.375 
Q 8.59375 20.453125 8.59375 31.390625 
Q 8.59375 42.28125 12.203125 53.3125 
Q 15.828125 64.359375 23.1875 75.875 
z
" id="DejaVuSans-28"/>
      <path d="M 8.015625 75.875 
L 15.828125 75.875 
Q 23.140625 64.359375 26.78125 53.3125 
Q 30.421875 42.28125 30.421875 31.390625 
Q 30.421875 20.453125 26.78125 9.375 
Q 23.140625 -1.703125 15.828125 -13.1875 
L 8.015625 -13.1875 
Q 14.5 -2 17.703125 9.0625 
Q 20.90625 20.125 20.90625 31.390625 
Q 20.90625 42.671875 17.703125 53.65625 
Q 14.5 64.65625 8.015625 75.875 
z
" id="DejaVuSans-29"/>
     </defs>
     <g transform="translate(21.677813 174.21275)rotate(-90)scale(0.1 -0.1)">
      <use transform="translate(0 0.015625)" xlink:href="#DejaVuSans-Oblique-79"/>
      <use transform="translate(59.179688 0.015625)" xlink:href="#DejaVuSans-28"/>
      <use transform="translate(98.193359 0.015625)" xlink:href="#DejaVuSans-Oblique-74"/>
      <use transform="translate(137.402344 0.015625)" xlink:href="#DejaVuSans-29"/>
      <use transform="translate(208.886394 0.015625)" xlink:href="#DejaVuSans-5b"/>
      <use transform="translate(247.900066 0.015625)" xlink:href="#DejaVuSans-31"/>
      <use transform="translate(311.523113 0.015625)" xlink:href="#DejaVuSans-5d"/>
     </g>
    </g>
   </g>
   <g id="line2d_18">
    <path clip-path="url(#pd1430066ba)" d="M 76.118182 105.234956 
L 78.852502 101.916632 
L 81.496388 99.051801 
L 84.071118 96.584759 
L 86.592651 94.472569 
L 89.076946 92.678271 
L 91.539962 91.17064 
L 94.002978 89.921331 
L 96.492593 88.90686 
L 99.030085 88.112862 
L 101.647372 87.527373 
L 104.387012 87.143565 
L 107.312841 86.960697 
L 110.520614 86.987115 
L 114.19652 87.246279 
L 118.877847 87.813115 
L 132.427096 89.588371 
L 136.353027 89.794877 
L 139.858702 89.759394 
L 143.130311 89.505776 
L 146.274248 89.039657 
L 149.349028 88.358837 
L 152.40253 87.454423 
L 155.48263 86.308746 
L 158.626567 84.900003 
L 161.882217 83.194789 
L 165.308097 81.145643 
L 168.984002 78.682932 
L 173.048245 75.685402 
L 177.782769 71.90639 
L 184.187675 66.484449 
L 196.130378 56.341688 
L 201.008534 52.52686 
L 205.157891 49.557725 
L 208.908273 47.14229 
L 212.403309 45.151892 
L 215.717475 43.516957 
L 218.909289 42.187495 
L 222.021307 41.130195 
L 225.085449 40.322718 
L 228.133631 39.748821 
L 231.192452 39.399032 
L 234.293831 39.268525 
L 237.469686 39.35826 
L 240.762574 39.675567 
L 244.209733 40.233313 
L 247.874999 41.054488 
L 251.838167 42.174082 
L 256.221592 43.648515 
L 261.2221 45.571782 
L 267.206751 48.121131 
L 274.893702 51.650608 
L 284.809603 56.455884 
L 293.661567 60.97626 
L 300.316498 64.61536 
L 305.790459 67.857088 
L 310.604778 70.963612 
L 315.009481 74.068536 
L 319.158839 77.264886 
L 323.143286 80.615209 
L 327.031979 84.176664 
L 330.878115 88.002492 
L 334.72957 92.149853 
L 338.628903 96.678713 
L 342.623989 101.663338 
L 346.773347 107.200799 
L 351.151452 113.420581 
L 355.870016 120.518452 
L 361.131189 128.845553 
L 367.413743 139.225033 
L 377.175373 155.847416 
L 387.633883 173.525226 
L 393.884518 183.651872 
L 399.225486 191.890878 
L 404.103642 199.014098 
L 408.705173 205.345393 
L 413.147114 211.083109 
L 417.509259 216.357613 
L 421.860765 221.272458 
L 426.270788 225.918956 
L 430.813803 230.382537 
L 435.585564 234.757846 
L 440.713745 239.155403 
L 446.368575 243.707393 
L 452.762842 248.563836 
L 459.923144 253.719949 
L 467.131324 258.641906 
L 473.403238 262.665441 
L 478.648451 265.774751 
L 483.12231 268.175429 
L 487.048241 270.035748 
L 490.575195 271.465796 
L 493.798927 272.536896 
L 496.783273 273.297889 
L 499.58675 273.786198 
L 502.246594 274.02583 
L 504.794726 274.033424 
L 507.252422 273.819708 
L 509.651602 273.38839 
L 512.008225 272.7388 
L 514.343568 271.863795 
L 516.673592 270.752128 
L 519.014256 269.387272 
L 521.381518 267.747002 
L 523.786017 265.807617 
L 526.243714 263.536354 
L 528.770567 260.894009 
L 531.377214 257.841472 
L 534.079617 254.328888 
L 536.899052 250.292829 
L 539.85148 245.671102 
L 542.968818 240.37041 
L 546.288304 234.278619 
L 549.868455 227.233506 
L 553.805026 218.98312 
L 558.273565 209.083895 
L 563.720927 196.447013 
L 573.205933 173.760001 
L 580.738614 156.015548 
L 585.76572 144.731045 
L 590.005513 135.745002 
L 593.793132 128.225755 
L 597.266889 121.81249 
L 600.5119 116.278951 
L 603.570721 111.493562 
L 606.485911 107.338292 
L 608.081818 105.234956 
L 608.081818 105.234956 
" style="fill:none;stroke:#4169e1;stroke-linecap:square;stroke-width:1.5;"/>
   </g>
   <g id="line2d_19">
    <path clip-path="url(#pd1430066ba)" d="M 76.118182 105.234956 
L 78.506722 102.363272 
L 80.879304 99.854333 
L 83.241246 97.676478 
L 85.603188 95.797584 
L 87.98109 94.187619 
L 90.390909 92.823336 
L 92.848605 91.687031 
L 95.375458 90.763615 
L 98.003385 90.040368 
L 100.780263 89.508525 
L 103.764608 89.166466 
L 107.057496 89.017338 
L 110.871714 89.074371 
L 115.888181 89.388164 
L 126.852061 90.13566 
L 130.703516 90.130304 
L 133.991085 89.907379 
L 136.98075 89.483608 
L 140.039572 88.822149 
L 143.252664 87.897438 
L 146.651946 86.684946 
L 150.285294 85.149489 
L 154.221864 83.240016 
L 158.562731 80.881709 
L 163.504722 77.936136 
L 169.521291 74.078523 
L 179.346758 67.468333 
L 188.581739 61.355486 
L 194.289766 57.841639 
L 199.242397 55.052572 
L 204.093954 52.57368 
L 208.849756 50.391555 
L 213.520443 48.491626 
L 218.106016 46.864803 
L 222.617113 45.498847 
L 227.059053 44.384736 
L 231.442478 43.513458 
L 235.772705 42.878697 
L 240.055055 42.475099 
L 244.294848 42.298288 
L 248.502722 42.345084 
L 252.678678 42.613481 
L 256.838676 43.103635 
L 260.988033 43.816591 
L 265.132072 44.754357 
L 269.281429 45.921726 
L 273.436107 47.32197 
L 277.606744 48.962869 
L 281.798659 50.852119 
L 286.011853 52.995865 
L 290.256965 55.406707 
L 294.533996 58.092911 
L 298.848264 61.066733 
L 303.19977 64.337764 
L 307.599153 67.924814 
L 312.046414 71.839968 
L 316.578789 76.129759 
L 321.318633 80.926024 
L 326.297862 86.285065 
L 331.548396 92.267468 
L 337.107471 98.943341 
L 343.033606 106.412717 
L 349.406594 114.809002 
L 356.348788 124.33012 
L 364.062338 135.295491 
L 372.956859 148.338903 
L 386.043296 167.983139 
L 400.53945 189.633878 
L 408.795608 201.562763 
L 415.642048 211.074104 
L 421.679896 219.090034 
L 427.159176 226.002222 
L 432.212881 232.026206 
L 437.021881 237.415767 
L 441.66597 242.29076 
L 446.161107 246.690844 
L 450.512613 250.64279 
L 454.731127 254.176912 
L 458.821968 257.317289 
L 462.795777 260.090595 
L 466.657871 262.517858 
L 470.418892 264.621838 
L 474.089478 266.422717 
L 477.674948 267.936018 
L 481.180624 269.176099 
L 484.617143 270.15746 
L 487.989826 270.890967 
L 491.309313 271.386705 
L 494.522405 271.64419 
L 497.634424 271.671735 
L 500.656007 271.477158 
L 503.608435 271.064892 
L 506.507666 270.435564 
L 509.364339 269.58761 
L 512.189094 268.516834 
L 514.99789 267.213417 
L 517.796047 265.668767 
L 520.599523 263.865286 
L 523.408319 261.791991 
L 526.233075 259.428346 
L 529.079109 256.75454 
L 531.957061 253.74222 
L 534.866931 250.370615 
L 537.808719 246.618145 
L 540.793065 242.446865 
L 543.819968 237.829361 
L 546.894749 232.727806 
L 550.017407 227.110457 
L 553.368811 220.608644 
L 557.119192 212.832512 
L 561.43878 203.345441 
L 566.74783 191.120024 
L 575.546597 170.198899 
L 583.669763 151.105699 
L 588.702189 139.83673 
L 592.856867 131.061753 
L 596.490215 123.892673 
L 599.751184 117.936823 
L 602.719571 112.96571 
L 605.448572 108.817576 
L 607.975424 105.371272 
L 608.081818 105.234956 
L 608.081818 105.234956 
" style="fill:none;stroke:#ff4500;stroke-linecap:square;stroke-width:1.5;"/>
   </g>
   <g id="line2d_20">
    <path clip-path="url(#pd1430066ba)" d="M 76.118182 105.234956 
L 80.927181 105.123757 
L 85.75214 104.789407 
L 90.609016 104.229674 
L 95.529729 103.438021 
L 100.530237 102.407487 
L 105.642459 101.12588 
L 110.903632 99.576072 
L 116.345674 97.739396 
L 122.027103 95.585056 
L 128.022393 93.070976 
L 134.437938 90.135885 
L 141.459929 86.673923 
L 149.460742 82.473979 
L 159.498996 76.938527 
L 187.938056 61.106068 
L 195.630327 57.171961 
L 202.295899 54.007738 
L 208.323107 51.388793 
L 213.898141 49.205457 
L 219.132716 47.391372 
L 224.101306 45.902384 
L 228.851789 44.708643 
L 233.426722 43.786317 
L 237.858023 43.118207 
L 242.172291 42.691528 
L 246.385486 42.497251 
L 250.518884 42.528261 
L 254.593767 42.780645 
L 258.620772 43.252444 
L 262.615858 43.944111 
L 266.594986 44.858784 
L 270.568794 46.000752 
L 274.547922 47.376005 
L 278.548329 48.994608 
L 282.580653 50.86708 
L 286.655536 53.005777 
L 290.783615 55.424892 
L 294.98085 58.144014 
L 299.25788 61.181836 
L 303.630665 64.562935 
L 308.109844 68.310031 
L 312.711375 72.451967 
L 317.461858 77.030322 
L 322.377251 82.079764 
L 327.489473 87.653792 
L 332.835761 93.816112 
L 338.463992 100.647318 
L 344.448643 108.266438 
L 350.890787 116.834591 
L 357.971294 126.629957 
L 366.057222 138.207748 
L 376.169952 153.098665 
L 406.178321 197.54397 
L 413.854633 208.358004 
L 420.477646 217.313179 
L 426.430379 224.995705 
L 431.8937 231.69015 
L 436.974003 237.569615 
L 441.745765 242.757158 
L 446.251542 247.332244 
L 450.533892 251.368333 
L 454.619414 254.917785 
L 458.534705 258.028612 
L 462.295726 260.736356 
L 465.918434 263.073923 
L 469.41879 265.071138 
L 472.812752 266.754416 
L 476.11096 268.144478 
L 479.324052 269.259794 
L 482.467989 270.117695 
L 485.553409 270.730583 
L 488.590951 271.108275 
L 491.591256 271.257939 
L 494.564963 271.184029 
L 497.52271 270.888224 
L 500.475138 270.369369 
L 503.432885 269.62341 
L 506.406592 268.643316 
L 509.406897 267.419006 
L 512.43912 265.940062 
L 515.5139 264.191324 
L 518.641878 262.154346 
L 521.828372 259.811432 
L 525.084022 257.138659 
L 528.414147 254.113671 
L 531.824068 250.712461 
L 535.324424 246.903397 
L 538.920534 242.657882 
L 542.623038 237.938846 
L 546.442575 232.705906 
L 550.384465 226.923594 
L 554.464667 220.538467 
L 558.69382 213.501579 
L 563.082564 205.76196 
L 567.652178 197.246941 
L 572.429259 187.868482 
L 577.440406 177.533062 
L 582.717538 166.131826 
L 588.319171 153.491727 
L 594.319781 139.392849 
L 600.841721 123.489428 
L 608.081818 105.234956 
L 608.081818 105.234956 
" style="fill:none;stroke:#48d1cc;stroke-dasharray:1.5,2.475;stroke-dashoffset:0;stroke-width:1.5;"/>
   </g>
   <g id="line2d_21">
    <defs>
     <path d="M 0 3 
C 0.795609 3 1.55874 2.683901 2.12132 2.12132 
C 2.683901 1.55874 3 0.795609 3 0 
C 3 -0.795609 2.683901 -1.55874 2.12132 -2.12132 
C 1.55874 -2.683901 0.795609 -3 0 -3 
C -0.795609 -3 -1.55874 -2.683901 -2.12132 -2.12132 
C -2.683901 -1.55874 -3 -0.795609 -3 0 
C -3 0.795609 -2.683901 1.55874 -2.12132 2.12132 
C -1.55874 2.683901 -0.795609 3 0 3 
z
" id="m8f1aedabde" style="stroke:#0000ff;"/>
    </defs>
    <g clip-path="url(#pd1430066ba)">
     <use style="fill:#0000ff;stroke:#0000ff;" x="76.118182" xlink:href="#m8f1aedabde" y="105.234956"/>
     <use style="fill:#0000ff;stroke:#0000ff;" x="135.225253" xlink:href="#m8f1aedabde" y="89.759881"/>
     <use style="fill:#0000ff;stroke:#0000ff;" x="194.332323" xlink:href="#m8f1aedabde" y="57.816574"/>
     <use style="fill:#0000ff;stroke:#0000ff;" x="253.439394" xlink:href="#m8f1aedabde" y="42.686418"/>
     <use style="fill:#0000ff;stroke:#0000ff;" x="312.546465" xlink:href="#m8f1aedabde" y="72.298494"/>
     <use style="fill:#0000ff;stroke:#0000ff;" x="371.653535" xlink:href="#m8f1aedabde" y="146.405534"/>
     <use style="fill:#0000ff;stroke:#0000ff;" x="430.760606" xlink:href="#m8f1aedabde" y="230.332033"/>
     <use style="fill:#0000ff;stroke:#0000ff;" x="489.867677" xlink:href="#m8f1aedabde" y="271.199294"/>
     <use style="fill:#0000ff;stroke:#0000ff;" x="548.974747" xlink:href="#m8f1aedabde" y="229.03556"/>
    </g>
   </g>
   <g id="patch_3">
    <path d="M 49.52 285.7975 
L 49.52 27.528 
" style="fill:none;stroke:#000000;stroke-linecap:square;stroke-linejoin:miter;stroke-width:0.8;"/>
   </g>
   <g id="patch_4">
    <path d="M 634.68 285.7975 
L 634.68 27.528 
" style="fill:none;stroke:#000000;stroke-linecap:square;stroke-linejoin:miter;stroke-width:0.8;"/>
   </g>
   <g id="patch_5">
    <path d="M 49.52 285.7975 
L 634.68 285.7975 
" style="fill:none;stroke:#000000;stroke-linecap:square;stroke-linejoin:miter;stroke-width:0.8;"/>
   </g>
   <g id="patch_6">
    <path d="M 49.52 27.528 
L 634.68 27.528 
" style="fill:none;stroke:#000000;stroke-linecap:square;stroke-linejoin:miter;stroke-width:0.8;"/>
   </g>
   <g id="text_20">
    <!-- Equidistant interpolation of $f_y$: -->
    <defs>
     <path d="M 9.8125 72.90625 
L 55.90625 72.90625 
L 55.90625 64.59375 
L 19.671875 64.59375 
L 19.671875 43.015625 
L 54.390625 43.015625 
L 54.390625 34.71875 
L 19.671875 34.71875 
L 19.671875 8.296875 
L 56.78125 8.296875 
L 56.78125 0 
L 9.8125 0 
z
" id="DejaVuSans-45"/>
     <path d="M 14.796875 27.296875 
Q 14.796875 17.390625 18.875 11.75 
Q 22.953125 6.109375 30.078125 6.109375 
Q 37.203125 6.109375 41.296875 11.75 
Q 45.40625 17.390625 45.40625 27.296875 
Q 45.40625 37.203125 41.296875 42.84375 
Q 37.203125 48.484375 30.078125 48.484375 
Q 22.953125 48.484375 18.875 42.84375 
Q 14.796875 37.203125 14.796875 27.296875 
z
M 45.40625 8.203125 
Q 42.578125 3.328125 38.25 0.953125 
Q 33.9375 -1.421875 27.875 -1.421875 
Q 17.96875 -1.421875 11.734375 6.484375 
Q 5.515625 14.40625 5.515625 27.296875 
Q 5.515625 40.1875 11.734375 48.09375 
Q 17.96875 56 27.875 56 
Q 33.9375 56 38.25 53.625 
Q 42.578125 51.265625 45.40625 46.390625 
L 45.40625 54.6875 
L 54.390625 54.6875 
L 54.390625 -20.796875 
L 45.40625 -20.796875 
z
" id="DejaVuSans-71"/>
     <path d="M 8.5 21.578125 
L 8.5 54.6875 
L 17.484375 54.6875 
L 17.484375 21.921875 
Q 17.484375 14.15625 20.5 10.265625 
Q 23.53125 6.390625 29.59375 6.390625 
Q 36.859375 6.390625 41.078125 11.03125 
Q 45.3125 15.671875 45.3125 23.6875 
L 45.3125 54.6875 
L 54.296875 54.6875 
L 54.296875 0 
L 45.3125 0 
L 45.3125 8.40625 
Q 42.046875 3.421875 37.71875 1 
Q 33.40625 -1.421875 27.6875 -1.421875 
Q 18.265625 -1.421875 13.375 4.4375 
Q 8.5 10.296875 8.5 21.578125 
z
M 31.109375 56 
z
" id="DejaVuSans-75"/>
     <path d="M 9.421875 54.6875 
L 18.40625 54.6875 
L 18.40625 0 
L 9.421875 0 
z
M 9.421875 75.984375 
L 18.40625 75.984375 
L 18.40625 64.59375 
L 9.421875 64.59375 
z
" id="DejaVuSans-69"/>
     <path d="M 45.40625 46.390625 
L 45.40625 75.984375 
L 54.390625 75.984375 
L 54.390625 0 
L 45.40625 0 
L 45.40625 8.203125 
Q 42.578125 3.328125 38.25 0.953125 
Q 33.9375 -1.421875 27.875 -1.421875 
Q 17.96875 -1.421875 11.734375 6.484375 
Q 5.515625 14.40625 5.515625 27.296875 
Q 5.515625 40.1875 11.734375 48.09375 
Q 17.96875 56 27.875 56 
Q 33.9375 56 38.25 53.625 
Q 42.578125 51.265625 45.40625 46.390625 
z
M 14.796875 27.296875 
Q 14.796875 17.390625 18.875 11.75 
Q 22.953125 6.109375 30.078125 6.109375 
Q 37.203125 6.109375 41.296875 11.75 
Q 45.40625 17.390625 45.40625 27.296875 
Q 45.40625 37.203125 41.296875 42.84375 
Q 37.203125 48.484375 30.078125 48.484375 
Q 22.953125 48.484375 18.875 42.84375 
Q 14.796875 37.203125 14.796875 27.296875 
z
" id="DejaVuSans-64"/>
     <path d="M 44.28125 53.078125 
L 44.28125 44.578125 
Q 40.484375 46.53125 36.375 47.5 
Q 32.28125 48.484375 27.875 48.484375 
Q 21.1875 48.484375 17.84375 46.4375 
Q 14.5 44.390625 14.5 40.28125 
Q 14.5 37.15625 16.890625 35.375 
Q 19.28125 33.59375 26.515625 31.984375 
L 29.59375 31.296875 
Q 39.15625 29.25 43.1875 25.515625 
Q 47.21875 21.78125 47.21875 15.09375 
Q 47.21875 7.46875 41.1875 3.015625 
Q 35.15625 -1.421875 24.609375 -1.421875 
Q 20.21875 -1.421875 15.453125 -0.5625 
Q 10.6875 0.296875 5.421875 2 
L 5.421875 11.28125 
Q 10.40625 8.6875 15.234375 7.390625 
Q 20.0625 6.109375 24.8125 6.109375 
Q 31.15625 6.109375 34.5625 8.28125 
Q 37.984375 10.453125 37.984375 14.40625 
Q 37.984375 18.0625 35.515625 20.015625 
Q 33.0625 21.96875 24.703125 23.78125 
L 21.578125 24.515625 
Q 13.234375 26.265625 9.515625 29.90625 
Q 5.8125 33.546875 5.8125 39.890625 
Q 5.8125 47.609375 11.28125 51.796875 
Q 16.75 56 26.8125 56 
Q 31.78125 56 36.171875 55.265625 
Q 40.578125 54.546875 44.28125 53.078125 
z
" id="DejaVuSans-73"/>
     <path d="M 18.3125 70.21875 
L 18.3125 54.6875 
L 36.8125 54.6875 
L 36.8125 47.703125 
L 18.3125 47.703125 
L 18.3125 18.015625 
Q 18.3125 11.328125 20.140625 9.421875 
Q 21.96875 7.515625 27.59375 7.515625 
L 36.8125 7.515625 
L 36.8125 0 
L 27.59375 0 
Q 17.1875 0 13.234375 3.875 
Q 9.28125 7.765625 9.28125 18.015625 
L 9.28125 47.703125 
L 2.6875 47.703125 
L 2.6875 54.6875 
L 9.28125 54.6875 
L 9.28125 70.21875 
z
" id="DejaVuSans-74"/>
     <path d="M 34.28125 27.484375 
Q 23.390625 27.484375 19.1875 25 
Q 14.984375 22.515625 14.984375 16.5 
Q 14.984375 11.71875 18.140625 8.90625 
Q 21.296875 6.109375 26.703125 6.109375 
Q 34.1875 6.109375 38.703125 11.40625 
Q 43.21875 16.703125 43.21875 25.484375 
L 43.21875 27.484375 
z
M 52.203125 31.203125 
L 52.203125 0 
L 43.21875 0 
L 43.21875 8.296875 
Q 40.140625 3.328125 35.546875 0.953125 
Q 30.953125 -1.421875 24.3125 -1.421875 
Q 15.921875 -1.421875 10.953125 3.296875 
Q 6 8.015625 6 15.921875 
Q 6 25.140625 12.171875 29.828125 
Q 18.359375 34.515625 30.609375 34.515625 
L 43.21875 34.515625 
L 43.21875 35.40625 
Q 43.21875 41.609375 39.140625 45 
Q 35.0625 48.390625 27.6875 48.390625 
Q 23 48.390625 18.546875 47.265625 
Q 14.109375 46.140625 10.015625 43.890625 
L 10.015625 52.203125 
Q 14.9375 54.109375 19.578125 55.046875 
Q 24.21875 56 28.609375 56 
Q 40.484375 56 46.34375 49.84375 
Q 52.203125 43.703125 52.203125 31.203125 
z
" id="DejaVuSans-61"/>
     <path d="M 54.890625 33.015625 
L 54.890625 0 
L 45.90625 0 
L 45.90625 32.71875 
Q 45.90625 40.484375 42.875 44.328125 
Q 39.84375 48.1875 33.796875 48.1875 
Q 26.515625 48.1875 22.3125 43.546875 
Q 18.109375 38.921875 18.109375 30.90625 
L 18.109375 0 
L 9.078125 0 
L 9.078125 54.6875 
L 18.109375 54.6875 
L 18.109375 46.1875 
Q 21.34375 51.125 25.703125 53.5625 
Q 30.078125 56 35.796875 56 
Q 45.21875 56 50.046875 50.171875 
Q 54.890625 44.34375 54.890625 33.015625 
z
" id="DejaVuSans-6e"/>
     <path id="DejaVuSans-20"/>
     <path d="M 56.203125 29.59375 
L 56.203125 25.203125 
L 14.890625 25.203125 
Q 15.484375 15.921875 20.484375 11.0625 
Q 25.484375 6.203125 34.421875 6.203125 
Q 39.59375 6.203125 44.453125 7.46875 
Q 49.3125 8.734375 54.109375 11.28125 
L 54.109375 2.78125 
Q 49.265625 0.734375 44.1875 -0.34375 
Q 39.109375 -1.421875 33.890625 -1.421875 
Q 20.796875 -1.421875 13.15625 6.1875 
Q 5.515625 13.8125 5.515625 26.8125 
Q 5.515625 40.234375 12.765625 48.109375 
Q 20.015625 56 32.328125 56 
Q 43.359375 56 49.78125 48.890625 
Q 56.203125 41.796875 56.203125 29.59375 
z
M 47.21875 32.234375 
Q 47.125 39.59375 43.09375 43.984375 
Q 39.0625 48.390625 32.421875 48.390625 
Q 24.90625 48.390625 20.390625 44.140625 
Q 15.875 39.890625 15.1875 32.171875 
z
" id="DejaVuSans-65"/>
     <path d="M 41.109375 46.296875 
Q 39.59375 47.171875 37.8125 47.578125 
Q 36.03125 48 33.890625 48 
Q 26.265625 48 22.1875 43.046875 
Q 18.109375 38.09375 18.109375 28.8125 
L 18.109375 0 
L 9.078125 0 
L 9.078125 54.6875 
L 18.109375 54.6875 
L 18.109375 46.1875 
Q 20.953125 51.171875 25.484375 53.578125 
Q 30.03125 56 36.53125 56 
Q 37.453125 56 38.578125 55.875 
Q 39.703125 55.765625 41.0625 55.515625 
z
" id="DejaVuSans-72"/>
     <path d="M 18.109375 8.203125 
L 18.109375 -20.796875 
L 9.078125 -20.796875 
L 9.078125 54.6875 
L 18.109375 54.6875 
L 18.109375 46.390625 
Q 20.953125 51.265625 25.265625 53.625 
Q 29.59375 56 35.59375 56 
Q 45.5625 56 51.78125 48.09375 
Q 58.015625 40.1875 58.015625 27.296875 
Q 58.015625 14.40625 51.78125 6.484375 
Q 45.5625 -1.421875 35.59375 -1.421875 
Q 29.59375 -1.421875 25.265625 0.953125 
Q 20.953125 3.328125 18.109375 8.203125 
z
M 48.6875 27.296875 
Q 48.6875 37.203125 44.609375 42.84375 
Q 40.53125 48.484375 33.40625 48.484375 
Q 26.265625 48.484375 22.1875 42.84375 
Q 18.109375 37.203125 18.109375 27.296875 
Q 18.109375 17.390625 22.1875 11.75 
Q 26.265625 6.109375 33.40625 6.109375 
Q 40.53125 6.109375 44.609375 11.75 
Q 48.6875 17.390625 48.6875 27.296875 
z
" id="DejaVuSans-70"/>
     <path d="M 30.609375 48.390625 
Q 23.390625 48.390625 19.1875 42.75 
Q 14.984375 37.109375 14.984375 27.296875 
Q 14.984375 17.484375 19.15625 11.84375 
Q 23.34375 6.203125 30.609375 6.203125 
Q 37.796875 6.203125 41.984375 11.859375 
Q 46.1875 17.53125 46.1875 27.296875 
Q 46.1875 37.015625 41.984375 42.703125 
Q 37.796875 48.390625 30.609375 48.390625 
z
M 30.609375 56 
Q 42.328125 56 49.015625 48.375 
Q 55.71875 40.765625 55.71875 27.296875 
Q 55.71875 13.875 49.015625 6.21875 
Q 42.328125 -1.421875 30.609375 -1.421875 
Q 18.84375 -1.421875 12.171875 6.21875 
Q 5.515625 13.875 5.515625 27.296875 
Q 5.515625 40.765625 12.171875 48.375 
Q 18.84375 56 30.609375 56 
z
" id="DejaVuSans-6f"/>
     <path d="M 9.421875 75.984375 
L 18.40625 75.984375 
L 18.40625 0 
L 9.421875 0 
z
" id="DejaVuSans-6c"/>
     <path d="M 37.109375 75.984375 
L 37.109375 68.5 
L 28.515625 68.5 
Q 23.6875 68.5 21.796875 66.546875 
Q 19.921875 64.59375 19.921875 59.515625 
L 19.921875 54.6875 
L 34.71875 54.6875 
L 34.71875 47.703125 
L 19.921875 47.703125 
L 19.921875 0 
L 10.890625 0 
L 10.890625 47.703125 
L 2.296875 47.703125 
L 2.296875 54.6875 
L 10.890625 54.6875 
L 10.890625 58.5 
Q 10.890625 67.625 15.140625 71.796875 
Q 19.390625 75.984375 28.609375 75.984375 
z
" id="DejaVuSans-66"/>
     <path d="M 47.796875 75.984375 
L 46.390625 68.5 
L 37.796875 68.5 
Q 32.90625 68.5 30.6875 66.578125 
Q 28.46875 64.65625 27.390625 59.515625 
L 26.421875 54.6875 
L 41.21875 54.6875 
L 39.890625 47.703125 
L 25.09375 47.703125 
L 15.828125 0 
L 6.78125 0 
L 16.109375 47.703125 
L 7.515625 47.703125 
L 8.796875 54.6875 
L 17.390625 54.6875 
L 18.109375 58.5 
Q 19.96875 68.171875 24.625 72.078125 
Q 29.296875 75.984375 39.3125 75.984375 
z
" id="DejaVuSans-Oblique-66"/>
     <path d="M 11.71875 12.40625 
L 22.015625 12.40625 
L 22.015625 0 
L 11.71875 0 
z
M 11.71875 51.703125 
L 22.015625 51.703125 
L 22.015625 39.3125 
L 11.71875 39.3125 
z
" id="DejaVuSans-3a"/>
    </defs>
    <g transform="translate(251.62 21.528)scale(0.12 -0.12)">
     <use transform="translate(0 0.015625)" xlink:href="#DejaVuSans-45"/>
     <use transform="translate(63.183594 0.015625)" xlink:href="#DejaVuSans-71"/>
     <use transform="translate(126.660156 0.015625)" xlink:href="#DejaVuSans-75"/>
     <use transform="translate(190.039062 0.015625)" xlink:href="#DejaVuSans-69"/>
     <use transform="translate(217.822266 0.015625)" xlink:href="#DejaVuSans-64"/>
     <use transform="translate(281.298828 0.015625)" xlink:href="#DejaVuSans-69"/>
     <use transform="translate(309.082031 0.015625)" xlink:href="#DejaVuSans-73"/>
     <use transform="translate(361.181641 0.015625)" xlink:href="#DejaVuSans-74"/>
     <use transform="translate(400.390625 0.015625)" xlink:href="#DejaVuSans-61"/>
     <use transform="translate(461.669922 0.015625)" xlink:href="#DejaVuSans-6e"/>
     <use transform="translate(525.048828 0.015625)" xlink:href="#DejaVuSans-74"/>
     <use transform="translate(564.257812 0.015625)" xlink:href="#DejaVuSans-20"/>
     <use transform="translate(596.044922 0.015625)" xlink:href="#DejaVuSans-69"/>
     <use transform="translate(623.828125 0.015625)" xlink:href="#DejaVuSans-6e"/>
     <use transform="translate(687.207031 0.015625)" xlink:href="#DejaVuSans-74"/>
     <use transform="translate(726.416016 0.015625)" xlink:href="#DejaVuSans-65"/>
     <use transform="translate(787.939453 0.015625)" xlink:href="#DejaVuSans-72"/>
     <use transform="translate(829.052734 0.015625)" xlink:href="#DejaVuSans-70"/>
     <use transform="translate(892.529297 0.015625)" xlink:href="#DejaVuSans-6f"/>
     <use transform="translate(953.710938 0.015625)" xlink:href="#DejaVuSans-6c"/>
     <use transform="translate(981.494141 0.015625)" xlink:href="#DejaVuSans-61"/>
     <use transform="translate(1042.773438 0.015625)" xlink:href="#DejaVuSans-74"/>
     <use transform="translate(1081.982422 0.015625)" xlink:href="#DejaVuSans-69"/>
     <use transform="translate(1109.765625 0.015625)" xlink:href="#DejaVuSans-6f"/>
     <use transform="translate(1170.947266 0.015625)" xlink:href="#DejaVuSans-6e"/>
     <use transform="translate(1234.326172 0.015625)" xlink:href="#DejaVuSans-20"/>
     <use transform="translate(1266.113281 0.015625)" xlink:href="#DejaVuSans-6f"/>
     <use transform="translate(1327.294922 0.015625)" xlink:href="#DejaVuSans-66"/>
     <use transform="translate(1362.5 0.015625)" xlink:href="#DejaVuSans-20"/>
     <use transform="translate(1394.287109 0.015625)" xlink:href="#DejaVuSans-Oblique-66"/>
     <use transform="translate(1429.492188 -16.390625)scale(0.7)" xlink:href="#DejaVuSans-Oblique-79"/>
     <use transform="translate(1473.652344 0.015625)" xlink:href="#DejaVuSans-3a"/>
    </g>
   </g>
   <g id="legend_1">
    <g id="patch_7">
     <path d="M 573.18 97.306125 
L 627.68 97.306125 
Q 629.68 97.306125 629.68 95.306125 
L 629.68 34.528 
Q 629.68 32.528 627.68 32.528 
L 573.18 32.528 
Q 571.18 32.528 571.18 34.528 
L 571.18 95.306125 
Q 571.18 97.306125 573.18 97.306125 
z
" style="fill:#ffffff;opacity:0.8;stroke:#cccccc;stroke-linejoin:miter;"/>
    </g>
    <g id="line2d_22">
     <path d="M 575.18 40.628 
L 595.18 40.628 
" style="fill:none;stroke:#4169e1;stroke-linecap:square;stroke-width:1.5;"/>
    </g>
    <g id="line2d_23"/>
    <g id="text_21">
     <!-- $q_y( t )$ -->
     <defs>
      <path d="M 41.703125 8.203125 
Q 38.09375 3.46875 33.171875 1.015625 
Q 28.265625 -1.421875 22.3125 -1.421875 
Q 14.015625 -1.421875 9.296875 4.171875 
Q 4.59375 9.765625 4.59375 19.578125 
Q 4.59375 27.484375 7.5 34.859375 
Q 10.40625 42.234375 15.828125 48.09375 
Q 19.34375 51.90625 23.90625 53.953125 
Q 28.46875 56 33.5 56 
Q 39.546875 56 43.453125 53.609375 
Q 47.359375 51.21875 49.125 46.390625 
L 50.6875 54.59375 
L 59.71875 54.59375 
L 45.125 -20.609375 
L 36.078125 -20.609375 
z
M 13.921875 20.90625 
Q 13.921875 13.671875 16.9375 9.890625 
Q 19.96875 6.109375 25.6875 6.109375 
Q 34.1875 6.109375 40.1875 14.234375 
Q 46.1875 22.359375 46.1875 33.984375 
Q 46.1875 41.015625 43.078125 44.75 
Q 39.984375 48.484375 34.1875 48.484375 
Q 29.9375 48.484375 26.3125 46.5 
Q 22.703125 44.53125 20.015625 40.71875 
Q 17.1875 36.71875 15.546875 31.34375 
Q 13.921875 25.984375 13.921875 20.90625 
z
" id="DejaVuSans-Oblique-71"/>
     </defs>
     <g transform="translate(603.18 44.128)scale(0.1 -0.1)">
      <use transform="translate(0 0.125)" xlink:href="#DejaVuSans-Oblique-71"/>
      <use transform="translate(63.476562 -16.28125)scale(0.7)" xlink:href="#DejaVuSans-Oblique-79"/>
      <use transform="translate(107.636719 0.125)" xlink:href="#DejaVuSans-28"/>
      <use transform="translate(146.650391 0.125)" xlink:href="#DejaVuSans-Oblique-74"/>
      <use transform="translate(185.859375 0.125)" xlink:href="#DejaVuSans-29"/>
     </g>
    </g>
    <g id="line2d_24">
     <path d="M 575.18 56.328 
L 595.18 56.328 
" style="fill:none;stroke:#ff4500;stroke-linecap:square;stroke-width:1.5;"/>
    </g>
    <g id="line2d_25"/>
    <g id="text_22">
     <!-- $s_y( t )$ -->
     <defs>
      <path d="M 50 53.078125 
L 48.296875 44.578125 
Q 44.734375 46.53125 40.765625 47.5 
Q 36.8125 48.484375 32.625 48.484375 
Q 25.53125 48.484375 21.453125 46.0625 
Q 17.390625 43.65625 17.390625 39.5 
Q 17.390625 34.671875 26.859375 32.078125 
Q 27.59375 31.890625 27.9375 31.78125 
L 30.8125 30.90625 
Q 39.796875 28.421875 42.796875 25.6875 
Q 45.796875 22.953125 45.796875 18.21875 
Q 45.796875 9.515625 38.890625 4.046875 
Q 31.984375 -1.421875 20.796875 -1.421875 
Q 16.453125 -1.421875 11.671875 -0.578125 
Q 6.890625 0.25 1.125 2 
L 2.875 11.28125 
Q 7.8125 8.734375 12.59375 7.421875 
Q 17.390625 6.109375 21.78125 6.109375 
Q 28.375 6.109375 32.5 8.9375 
Q 36.625 11.765625 36.625 16.109375 
Q 36.625 20.796875 25.78125 23.6875 
L 24.859375 23.921875 
L 21.78125 24.703125 
Q 14.9375 26.515625 11.765625 29.46875 
Q 8.59375 32.421875 8.59375 37.015625 
Q 8.59375 45.75 15.15625 50.875 
Q 21.734375 56 33.015625 56 
Q 37.453125 56 41.671875 55.265625 
Q 45.90625 54.546875 50 53.078125 
z
" id="DejaVuSans-Oblique-73"/>
     </defs>
     <g transform="translate(603.18 59.828)scale(0.1 -0.1)">
      <use transform="translate(0 0.125)" xlink:href="#DejaVuSans-Oblique-73"/>
      <use transform="translate(52.099609 -16.28125)scale(0.7)" xlink:href="#DejaVuSans-Oblique-79"/>
      <use transform="translate(96.259766 0.125)" xlink:href="#DejaVuSans-28"/>
      <use transform="translate(135.273438 0.125)" xlink:href="#DejaVuSans-Oblique-74"/>
      <use transform="translate(174.482422 0.125)" xlink:href="#DejaVuSans-29"/>
     </g>
    </g>
    <g id="line2d_26">
     <path d="M 575.18 72.028 
L 595.18 72.028 
" style="fill:none;stroke:#48d1cc;stroke-dasharray:1.5,2.475;stroke-dashoffset:0;stroke-width:1.5;"/>
    </g>
    <g id="line2d_27"/>
    <g id="text_23">
     <!-- $f_y( t )$ -->
     <g transform="translate(603.18 75.528)scale(0.1 -0.1)">
      <use transform="translate(0 0.015625)" xlink:href="#DejaVuSans-Oblique-66"/>
      <use transform="translate(35.205078 -16.390625)scale(0.7)" xlink:href="#DejaVuSans-Oblique-79"/>
      <use transform="translate(79.365234 0.015625)" xlink:href="#DejaVuSans-28"/>
      <use transform="translate(118.378906 0.015625)" xlink:href="#DejaVuSans-Oblique-74"/>
      <use transform="translate(157.587891 0.015625)" xlink:href="#DejaVuSans-29"/>
     </g>
    </g>
    <g id="line2d_28"/>
    <g id="line2d_29">
     <g>
      <use style="fill:#0000ff;stroke:#0000ff;" x="585.18" xlink:href="#m8f1aedabde" y="87.726438"/>
     </g>
    </g>
    <g id="text_24">
     <!-- $int$ -->
     <defs>
      <path d="M 18.3125 75.984375 
L 27.296875 75.984375 
L 25.09375 64.59375 
L 16.109375 64.59375 
z
M 14.203125 54.6875 
L 23.1875 54.6875 
L 12.5 0 
L 3.515625 0 
z
" id="DejaVuSans-Oblique-69"/>
      <path d="M 55.71875 33.015625 
L 49.3125 0 
L 40.28125 0 
L 46.6875 32.671875 
Q 47.125 34.96875 47.359375 36.71875 
Q 47.609375 38.484375 47.609375 39.5 
Q 47.609375 43.609375 45.015625 45.890625 
Q 42.4375 48.1875 37.796875 48.1875 
Q 30.5625 48.1875 25.34375 43.375 
Q 20.125 38.578125 18.5 30.328125 
L 12.5 0 
L 3.515625 0 
L 14.109375 54.6875 
L 23.09375 54.6875 
L 21.296875 46.09375 
Q 25.046875 50.828125 30.3125 53.40625 
Q 35.59375 56 41.40625 56 
Q 48.640625 56 52.609375 52.09375 
Q 56.59375 48.1875 56.59375 41.109375 
Q 56.59375 39.359375 56.375 37.359375 
Q 56.15625 35.359375 55.71875 33.015625 
z
" id="DejaVuSans-Oblique-6e"/>
     </defs>
     <g transform="translate(603.18 91.226438)scale(0.1 -0.1)">
      <use transform="translate(0 0.015625)" xlink:href="#DejaVuSans-Oblique-69"/>
      <use transform="translate(27.783203 0.015625)" xlink:href="#DejaVuSans-Oblique-6e"/>
      <use transform="translate(91.162109 0.015625)" xlink:href="#DejaVuSans-Oblique-74"/>
     </g>
    </g>
   </g>
  </g>
  <g id="axes_2">
   <g id="patch_8">
    <path d="M 49.52 604.3975 
L 634.68 604.3975 
L 634.68 346.128 
L 49.52 346.128 
z
" style="fill:#ffffff;"/>
   </g>
   <g id="matplotlib.axis_3">
    <g id="xtick_10">
     <g id="line2d_30">
      <g>
       <use style="stroke:#000000;stroke-width:0.8;" x="76.118182" xlink:href="#m6866f38a03" y="604.3975"/>
      </g>
     </g>
     <g id="text_25">
      <!-- 0 -->
      <g transform="translate(72.936932 618.995937)scale(0.1 -0.1)">
       <use xlink:href="#DejaVuSans-30"/>
      </g>
     </g>
    </g>
    <g id="xtick_11">
     <g id="line2d_31">
      <g>
       <use style="stroke:#000000;stroke-width:0.8;" x="142.613636" xlink:href="#m6866f38a03" y="604.3975"/>
      </g>
     </g>
     <g id="text_26">
      <!-- 0.25 -->
      <g transform="translate(131.480824 618.995937)scale(0.1 -0.1)">
       <use xlink:href="#DejaVuSans-30"/>
       <use x="63.623047" xlink:href="#DejaVuSans-2e"/>
       <use x="95.410156" xlink:href="#DejaVuSans-32"/>
       <use x="159.033203" xlink:href="#DejaVuSans-35"/>
      </g>
     </g>
    </g>
    <g id="xtick_12">
     <g id="line2d_32">
      <g>
       <use style="stroke:#000000;stroke-width:0.8;" x="209.109091" xlink:href="#m6866f38a03" y="604.3975"/>
      </g>
     </g>
     <g id="text_27">
      <!-- 0.5 -->
      <g transform="translate(201.157528 618.995937)scale(0.1 -0.1)">
       <use xlink:href="#DejaVuSans-30"/>
       <use x="63.623047" xlink:href="#DejaVuSans-2e"/>
       <use x="95.410156" xlink:href="#DejaVuSans-35"/>
      </g>
     </g>
    </g>
    <g id="xtick_13">
     <g id="line2d_33">
      <g>
       <use style="stroke:#000000;stroke-width:0.8;" x="275.604545" xlink:href="#m6866f38a03" y="604.3975"/>
      </g>
     </g>
     <g id="text_28">
      <!-- 0.75 -->
      <g transform="translate(264.471733 618.995937)scale(0.1 -0.1)">
       <use xlink:href="#DejaVuSans-30"/>
       <use x="63.623047" xlink:href="#DejaVuSans-2e"/>
       <use x="95.410156" xlink:href="#DejaVuSans-37"/>
       <use x="159.033203" xlink:href="#DejaVuSans-35"/>
      </g>
     </g>
    </g>
    <g id="xtick_14">
     <g id="line2d_34">
      <g>
       <use style="stroke:#000000;stroke-width:0.8;" x="342.1" xlink:href="#m6866f38a03" y="604.3975"/>
      </g>
     </g>
     <g id="text_29">
      <!-- 1 -->
      <g transform="translate(338.91875 618.995937)scale(0.1 -0.1)">
       <use xlink:href="#DejaVuSans-31"/>
      </g>
     </g>
    </g>
    <g id="xtick_15">
     <g id="line2d_35">
      <g>
       <use style="stroke:#000000;stroke-width:0.8;" x="408.595455" xlink:href="#m6866f38a03" y="604.3975"/>
      </g>
     </g>
     <g id="text_30">
      <!-- 1.25 -->
      <g transform="translate(397.462642 618.995937)scale(0.1 -0.1)">
       <use xlink:href="#DejaVuSans-31"/>
       <use x="63.623047" xlink:href="#DejaVuSans-2e"/>
       <use x="95.410156" xlink:href="#DejaVuSans-32"/>
       <use x="159.033203" xlink:href="#DejaVuSans-35"/>
      </g>
     </g>
    </g>
    <g id="xtick_16">
     <g id="line2d_36">
      <g>
       <use style="stroke:#000000;stroke-width:0.8;" x="475.090909" xlink:href="#m6866f38a03" y="604.3975"/>
      </g>
     </g>
     <g id="text_31">
      <!-- 1.5 -->
      <g transform="translate(467.139347 618.995937)scale(0.1 -0.1)">
       <use xlink:href="#DejaVuSans-31"/>
       <use x="63.623047" xlink:href="#DejaVuSans-2e"/>
       <use x="95.410156" xlink:href="#DejaVuSans-35"/>
      </g>
     </g>
    </g>
    <g id="xtick_17">
     <g id="line2d_37">
      <g>
       <use style="stroke:#000000;stroke-width:0.8;" x="541.586364" xlink:href="#m6866f38a03" y="604.3975"/>
      </g>
     </g>
     <g id="text_32">
      <!-- 1.75 -->
      <g transform="translate(530.453551 618.995937)scale(0.1 -0.1)">
       <use xlink:href="#DejaVuSans-31"/>
       <use x="63.623047" xlink:href="#DejaVuSans-2e"/>
       <use x="95.410156" xlink:href="#DejaVuSans-37"/>
       <use x="159.033203" xlink:href="#DejaVuSans-35"/>
      </g>
     </g>
    </g>
    <g id="xtick_18">
     <g id="line2d_38">
      <g>
       <use style="stroke:#000000;stroke-width:0.8;" x="608.081818" xlink:href="#m6866f38a03" y="604.3975"/>
      </g>
     </g>
     <g id="text_33">
      <!-- 2 -->
      <g transform="translate(604.900568 618.995937)scale(0.1 -0.1)">
       <use xlink:href="#DejaVuSans-32"/>
      </g>
     </g>
    </g>
    <g id="text_34">
     <!-- $t\ [rad/\pi]$ -->
     <g transform="translate(321.6 632.674062)scale(0.1 -0.1)">
      <use transform="translate(0 0.015625)" xlink:href="#DejaVuSans-Oblique-74"/>
      <use transform="translate(71.679363 0.015625)" xlink:href="#DejaVuSans-5b"/>
      <use transform="translate(110.693035 0.015625)" xlink:href="#DejaVuSans-Oblique-72"/>
      <use transform="translate(151.806316 0.015625)" xlink:href="#DejaVuSans-Oblique-61"/>
      <use transform="translate(213.085613 0.015625)" xlink:href="#DejaVuSans-Oblique-64"/>
      <use transform="translate(276.562175 0.015625)" xlink:href="#DejaVuSans-2f"/>
      <use transform="translate(310.253582 0.015625)" xlink:href="#DejaVuSans-Oblique-3c0"/>
      <use transform="translate(370.45866 0.015625)" xlink:href="#DejaVuSans-5d"/>
     </g>
    </g>
   </g>
   <g id="matplotlib.axis_4">
    <g id="ytick_9">
     <g id="line2d_39">
      <g>
       <use style="stroke:#000000;stroke-width:0.8;" x="49.52" xlink:href="#m2eea8236f4" y="599.282618"/>
      </g>
     </g>
     <g id="text_35">
      <!-- −5 -->
      <g transform="translate(27.777813 603.081837)scale(0.1 -0.1)">
       <use xlink:href="#DejaVuSans-2212"/>
       <use x="83.789062" xlink:href="#DejaVuSans-35"/>
      </g>
     </g>
    </g>
    <g id="ytick_10">
     <g id="line2d_40">
      <g>
       <use style="stroke:#000000;stroke-width:0.8;" x="49.52" xlink:href="#m2eea8236f4" y="563.902266"/>
      </g>
     </g>
     <g id="text_36">
      <!-- −4 -->
      <g transform="translate(27.777813 567.701485)scale(0.1 -0.1)">
       <use xlink:href="#DejaVuSans-2212"/>
       <use x="83.789062" xlink:href="#DejaVuSans-34"/>
      </g>
     </g>
    </g>
    <g id="ytick_11">
     <g id="line2d_41">
      <g>
       <use style="stroke:#000000;stroke-width:0.8;" x="49.52" xlink:href="#m2eea8236f4" y="528.521914"/>
      </g>
     </g>
     <g id="text_37">
      <!-- −3 -->
      <g transform="translate(27.777813 532.321132)scale(0.1 -0.1)">
       <use xlink:href="#DejaVuSans-2212"/>
       <use x="83.789062" xlink:href="#DejaVuSans-33"/>
      </g>
     </g>
    </g>
    <g id="ytick_12">
     <g id="line2d_42">
      <g>
       <use style="stroke:#000000;stroke-width:0.8;" x="49.52" xlink:href="#m2eea8236f4" y="493.141561"/>
      </g>
     </g>
     <g id="text_38">
      <!-- −2 -->
      <g transform="translate(27.777813 496.94078)scale(0.1 -0.1)">
       <use xlink:href="#DejaVuSans-2212"/>
       <use x="83.789062" xlink:href="#DejaVuSans-32"/>
      </g>
     </g>
    </g>
    <g id="ytick_13">
     <g id="line2d_43">
      <g>
       <use style="stroke:#000000;stroke-width:0.8;" x="49.52" xlink:href="#m2eea8236f4" y="457.761209"/>
      </g>
     </g>
     <g id="text_39">
      <!-- −1 -->
      <g transform="translate(27.777813 461.560428)scale(0.1 -0.1)">
       <use xlink:href="#DejaVuSans-2212"/>
       <use x="83.789062" xlink:href="#DejaVuSans-31"/>
      </g>
     </g>
    </g>
    <g id="ytick_14">
     <g id="line2d_44">
      <g>
       <use style="stroke:#000000;stroke-width:0.8;" x="49.52" xlink:href="#m2eea8236f4" y="422.380857"/>
      </g>
     </g>
     <g id="text_40">
      <!-- 0 -->
      <g transform="translate(36.1575 426.180075)scale(0.1 -0.1)">
       <use xlink:href="#DejaVuSans-30"/>
      </g>
     </g>
    </g>
    <g id="ytick_15">
     <g id="line2d_45">
      <g>
       <use style="stroke:#000000;stroke-width:0.8;" x="49.52" xlink:href="#m2eea8236f4" y="387.000504"/>
      </g>
     </g>
     <g id="text_41">
      <!-- 1 -->
      <g transform="translate(36.1575 390.799723)scale(0.1 -0.1)">
       <use xlink:href="#DejaVuSans-31"/>
      </g>
     </g>
    </g>
    <g id="ytick_16">
     <g id="line2d_46">
      <g>
       <use style="stroke:#000000;stroke-width:0.8;" x="49.52" xlink:href="#m2eea8236f4" y="351.620152"/>
      </g>
     </g>
     <g id="text_42">
      <!-- 2 -->
      <g transform="translate(36.1575 355.419371)scale(0.1 -0.1)">
       <use xlink:href="#DejaVuSans-32"/>
      </g>
     </g>
    </g>
    <g id="text_43">
     <!-- $y( t )\ [1]$ -->
     <g transform="translate(21.677813 492.81275)rotate(-90)scale(0.1 -0.1)">
      <use transform="translate(0 0.015625)" xlink:href="#DejaVuSans-Oblique-79"/>
      <use transform="translate(59.179688 0.015625)" xlink:href="#DejaVuSans-28"/>
      <use transform="translate(98.193359 0.015625)" xlink:href="#DejaVuSans-Oblique-74"/>
      <use transform="translate(137.402344 0.015625)" xlink:href="#DejaVuSans-29"/>
      <use transform="translate(208.886394 0.015625)" xlink:href="#DejaVuSans-5b"/>
      <use transform="translate(247.900066 0.015625)" xlink:href="#DejaVuSans-31"/>
      <use transform="translate(311.523113 0.015625)" xlink:href="#DejaVuSans-5d"/>
     </g>
    </g>
   </g>
   <g id="line2d_47">
    <path clip-path="url(#p3658b2a38b)" d="M 76.118182 422.380857 
L 83.837051 415.861229 
L 87.273571 412.63457 
L 90.225999 409.558894 
L 92.933721 406.41681 
L 95.673361 402.914031 
L 98.992847 398.290932 
L 103.791207 391.183536 
L 111.025985 380.495546 
L 114.398668 375.927692 
L 117.170226 372.536156 
L 119.771554 369.701945 
L 122.330325 367.238723 
L 124.851858 365.116399 
L 127.341473 363.308527 
L 129.804489 361.79199 
L 132.251546 360.544269 
L 134.687964 359.549646 
L 137.129701 358.792017 
L 139.582078 358.263229 
L 142.061054 357.956082 
L 144.577267 357.868684 
L 147.146677 358.002746 
L 149.907596 358.37615 
L 152.609998 358.956195 
L 155.381556 359.780282 
L 158.23291 360.862069 
L 161.180018 362.22053 
L 164.23352 363.875726 
L 167.409374 365.853481 
L 170.718221 368.179335 
L 174.181339 370.889179 
L 177.814687 374.018615 
L 181.639544 377.610628 
L 185.687828 381.722371 
L 189.991457 386.41594 
L 194.853653 392.062991 
L 199.806284 398.159089 
L 205.17917 405.132361 
L 211.099985 413.189773 
L 217.797474 422.690491 
L 225.808926 434.457859 
L 237.331374 451.821164 
L 253.875608 476.713574 
L 263.775551 491.179542 
L 272.260456 503.193212 
L 279.862292 513.578867 
L 286.831085 522.729936 
L 293.310467 530.877096 
L 299.385553 538.164013 
L 305.120178 544.700412 
L 310.56222 550.570885 
L 315.812754 555.909889 
L 320.893058 560.760927 
L 325.845689 565.185584 
L 330.675967 569.205544 
L 335.389212 572.841505 
L 339.990743 576.113148 
L 344.4912 579.042408 
L 348.890584 581.642914 
L 353.199532 583.933825 
L 357.423366 585.929591 
L 361.567404 587.643565 
L 365.642286 589.08973 
L 369.648012 590.276872 
L 373.595222 591.216129 
L 377.489235 591.915481 
L 381.34069 592.382269 
L 385.154907 592.621285 
L 389.006363 592.638365 
L 392.847179 592.433087 
L 396.76247 592.000417 
L 400.768196 591.332836 
L 404.869677 590.422711 
L 409.088191 589.257316 
L 413.434377 587.82422 
L 417.924195 586.107859 
L 422.578924 584.08845 
L 427.419841 581.743739 
L 432.473546 579.046562 
L 437.777277 575.961011 
L 443.36827 572.447816 
L 449.299724 568.454612 
L 455.656753 563.902639 
L 462.551071 558.687513 
L 470.184825 552.627899 
L 476.025845 547.748416 
L 485.447015 539.371419 
L 495.777852 529.88227 
L 507.443931 518.856708 
L 521.440034 505.309835 
L 542.495366 484.580061 
L 567.684096 459.850079 
L 581.467411 446.635603 
L 592.941982 435.935683 
L 603.123868 426.739537 
L 608.081818 422.380857 
L 608.081818 422.380857 
" style="fill:none;stroke:#cd5c5c;stroke-linecap:square;stroke-width:1.5;"/>
   </g>
   <g id="line2d_48">
    <g clip-path="url(#p3658b2a38b)">
     <use style="fill:#0000ff;stroke:#0000ff;" x="76.118182" xlink:href="#m8f1aedabde" y="422.380857"/>
     <use style="fill:#0000ff;stroke:#0000ff;" x="92.861915" xlink:href="#m8f1aedabde" y="406.503909"/>
     <use style="fill:#0000ff;stroke:#0000ff;" x="116.158112" xlink:href="#m8f1aedabde" y="373.731067"/>
     <use style="fill:#0000ff;stroke:#0000ff;" x="148.829707" xlink:href="#m8f1aedabde" y="358.207996"/>
     <use style="fill:#0000ff;stroke:#0000ff;" x="191.893773" xlink:href="#m8f1aedabde" y="388.589067"/>
     <use style="fill:#0000ff;stroke:#0000ff;" x="245.782125" xlink:href="#m8f1aedabde" y="464.620593"/>
     <use style="fill:#0000ff;stroke:#0000ff;" x="310.710974" xlink:href="#m8f1aedabde" y="550.726578"/>
     <use style="fill:#0000ff;stroke:#0000ff;" x="386.802475" xlink:href="#m8f1aedabde" y="592.65512"/>
     <use style="fill:#0000ff;stroke:#0000ff;" x="474.131954" xlink:href="#m8f1aedabde" y="549.396437"/>
    </g>
   </g>
   <g id="patch_9">
    <path d="M 49.52 604.3975 
L 49.52 346.128 
" style="fill:none;stroke:#000000;stroke-linecap:square;stroke-linejoin:miter;stroke-width:0.8;"/>
   </g>
   <g id="patch_10">
    <path d="M 634.68 604.3975 
L 634.68 346.128 
" style="fill:none;stroke:#000000;stroke-linecap:square;stroke-linejoin:miter;stroke-width:0.8;"/>
   </g>
   <g id="patch_11">
    <path d="M 49.52 604.3975 
L 634.68 604.3975 
" style="fill:none;stroke:#000000;stroke-linecap:square;stroke-linejoin:miter;stroke-width:0.8;"/>
   </g>
   <g id="patch_12">
    <path d="M 49.52 346.128 
L 634.68 346.128 
" style="fill:none;stroke:#000000;stroke-linecap:square;stroke-linejoin:miter;stroke-width:0.8;"/>
   </g>
   <g id="text_44">
    <!-- Non-equidistant interpolation of $f_y$: -->
    <defs>
     <path d="M 9.8125 72.90625 
L 23.09375 72.90625 
L 55.421875 11.921875 
L 55.421875 72.90625 
L 64.984375 72.90625 
L 64.984375 0 
L 51.703125 0 
L 19.390625 60.984375 
L 19.390625 0 
L 9.8125 0 
z
" id="DejaVuSans-4e"/>
     <path d="M 4.890625 31.390625 
L 31.203125 31.390625 
L 31.203125 23.390625 
L 4.890625 23.390625 
z
" id="DejaVuSans-2d"/>
    </defs>
    <g transform="translate(237.58 340.128)scale(0.12 -0.12)">
     <use transform="translate(0 0.015625)" xlink:href="#DejaVuSans-4e"/>
     <use transform="translate(74.804688 0.015625)" xlink:href="#DejaVuSans-6f"/>
     <use transform="translate(135.986328 0.015625)" xlink:href="#DejaVuSans-6e"/>
     <use transform="translate(199.365234 0.015625)" xlink:href="#DejaVuSans-2d"/>
     <use transform="translate(235.449219 0.015625)" xlink:href="#DejaVuSans-65"/>
     <use transform="translate(296.972656 0.015625)" xlink:href="#DejaVuSans-71"/>
     <use transform="translate(360.449219 0.015625)" xlink:href="#DejaVuSans-75"/>
     <use transform="translate(423.828125 0.015625)" xlink:href="#DejaVuSans-69"/>
     <use transform="translate(451.611328 0.015625)" xlink:href="#DejaVuSans-64"/>
     <use transform="translate(515.087891 0.015625)" xlink:href="#DejaVuSans-69"/>
     <use transform="translate(542.871094 0.015625)" xlink:href="#DejaVuSans-73"/>
     <use transform="translate(594.970703 0.015625)" xlink:href="#DejaVuSans-74"/>
     <use transform="translate(634.179688 0.015625)" xlink:href="#DejaVuSans-61"/>
     <use transform="translate(695.458984 0.015625)" xlink:href="#DejaVuSans-6e"/>
     <use transform="translate(758.837891 0.015625)" xlink:href="#DejaVuSans-74"/>
     <use transform="translate(798.046875 0.015625)" xlink:href="#DejaVuSans-20"/>
     <use transform="translate(829.833984 0.015625)" xlink:href="#DejaVuSans-69"/>
     <use transform="translate(857.617188 0.015625)" xlink:href="#DejaVuSans-6e"/>
     <use transform="translate(920.996094 0.015625)" xlink:href="#DejaVuSans-74"/>
     <use transform="translate(960.205078 0.015625)" xlink:href="#DejaVuSans-65"/>
     <use transform="translate(1021.728516 0.015625)" xlink:href="#DejaVuSans-72"/>
     <use transform="translate(1062.841797 0.015625)" xlink:href="#DejaVuSans-70"/>
     <use transform="translate(1126.318359 0.015625)" xlink:href="#DejaVuSans-6f"/>
     <use transform="translate(1187.5 0.015625)" xlink:href="#DejaVuSans-6c"/>
     <use transform="translate(1215.283203 0.015625)" xlink:href="#DejaVuSans-61"/>
     <use transform="translate(1276.5625 0.015625)" xlink:href="#DejaVuSans-74"/>
     <use transform="translate(1315.771484 0.015625)" xlink:href="#DejaVuSans-69"/>
     <use transform="translate(1343.554688 0.015625)" xlink:href="#DejaVuSans-6f"/>
     <use transform="translate(1404.736328 0.015625)" xlink:href="#DejaVuSans-6e"/>
     <use transform="translate(1468.115234 0.015625)" xlink:href="#DejaVuSans-20"/>
     <use transform="translate(1499.902344 0.015625)" xlink:href="#DejaVuSans-6f"/>
     <use transform="translate(1561.083984 0.015625)" xlink:href="#DejaVuSans-66"/>
     <use transform="translate(1596.289062 0.015625)" xlink:href="#DejaVuSans-20"/>
     <use transform="translate(1628.076172 0.015625)" xlink:href="#DejaVuSans-Oblique-66"/>
     <use transform="translate(1663.28125 -16.390625)scale(0.7)" xlink:href="#DejaVuSans-Oblique-79"/>
     <use transform="translate(1707.441406 0.015625)" xlink:href="#DejaVuSans-3a"/>
    </g>
   </g>
   <g id="legend_2">
    <g id="patch_13">
     <path d="M 573.18 384.506125 
L 627.68 384.506125 
Q 629.68 384.506125 629.68 382.506125 
L 629.68 353.128 
Q 629.68 351.128 627.68 351.128 
L 573.18 351.128 
Q 571.18 351.128 571.18 353.128 
L 571.18 382.506125 
Q 571.18 384.506125 573.18 384.506125 
z
" style="fill:#ffffff;opacity:0.8;stroke:#cccccc;stroke-linejoin:miter;"/>
    </g>
    <g id="line2d_49">
     <path d="M 575.18 359.228 
L 595.18 359.228 
" style="fill:none;stroke:#cd5c5c;stroke-linecap:square;stroke-width:1.5;"/>
    </g>
    <g id="line2d_50"/>
    <g id="text_45">
     <!-- $n_y( t )$ -->
     <g transform="translate(603.18 362.728)scale(0.1 -0.1)">
      <use transform="translate(0 0.125)" xlink:href="#DejaVuSans-Oblique-6e"/>
      <use transform="translate(63.378906 -16.28125)scale(0.7)" xlink:href="#DejaVuSans-Oblique-79"/>
      <use transform="translate(107.539062 0.125)" xlink:href="#DejaVuSans-28"/>
      <use transform="translate(146.552734 0.125)" xlink:href="#DejaVuSans-Oblique-74"/>
      <use transform="translate(185.761719 0.125)" xlink:href="#DejaVuSans-29"/>
     </g>
    </g>
    <g id="line2d_51"/>
    <g id="line2d_52">
     <g>
      <use style="fill:#0000ff;stroke:#0000ff;" x="585.18" xlink:href="#m8f1aedabde" y="374.926437"/>
     </g>
    </g>
    <g id="text_46">
     <!-- $int$ -->
     <g transform="translate(603.18 378.426437)scale(0.1 -0.1)">
      <use transform="translate(0 0.015625)" xlink:href="#DejaVuSans-Oblique-69"/>
      <use transform="translate(27.783203 0.015625)" xlink:href="#DejaVuSans-Oblique-6e"/>
      <use transform="translate(91.162109 0.015625)" xlink:href="#DejaVuSans-Oblique-74"/>
     </g>
    </g>
   </g>
  </g>
 </g>
 <defs>
  <clipPath id="pd1430066ba">
   <rect height="258.2695" width="585.16" x="49.52" y="27.528"/>
  </clipPath>
  <clipPath id="p3658b2a38b">
   <rect height="258.2695" width="585.16" x="49.52" y="346.128"/>
  </clipPath>
 </defs>
</svg>
