<?xml version="1.0" encoding="utf-8" standalone="no"?>
<!DOCTYPE svg PUBLIC "-//W3C//DTD SVG 1.1//EN"
  "http://www.w3.org/Graphics/SVG/1.1/DTD/svg11.dtd">
<!-- Created with matplotlib (http://matplotlib.org/) -->
<svg height="648pt" version="1.1" viewBox="0 0 648 648" width="648pt" xmlns="http://www.w3.org/2000/svg" xmlns:xlink="http://www.w3.org/1999/xlink">
 <defs>
  <style type="text/css">
*{stroke-linecap:butt;stroke-linejoin:round;}
  </style>
 </defs>
 <g id="figure_1">
  <g id="patch_1">
   <path d="M 0 648 
L 648 648 
L 648 0 
L 0 0 
z
" style="fill:#ffffff;"/>
  </g>
  <g id="axes_1">
   <g id="patch_2">
    <path d="M 81 576.72 
L 583.2 576.72 
L 583.2 77.76 
L 81 77.76 
z
" style="fill:#ffffff;"/>
   </g>
   <g id="matplotlib.axis_1">
    <g id="xtick_1">
     <g id="line2d_1">
      <defs>
       <path d="M 0 0 
L 0 3.5 
" id="md2b6f30730" style="stroke:#000000;stroke-width:0.8;"/>
      </defs>
      <g>
       <use style="stroke:#000000;stroke-width:0.8;" x="82.596568" xlink:href="#md2b6f30730" y="576.72"/>
      </g>
     </g>
     <g id="text_1">
      <!-- −4 -->
      <defs>
       <path d="M 10.59375 35.5 
L 73.1875 35.5 
L 73.1875 27.203125 
L 10.59375 27.203125 
z
" id="DejaVuSans-2212"/>
       <path d="M 37.796875 64.3125 
L 12.890625 25.390625 
L 37.796875 25.390625 
z
M 35.203125 72.90625 
L 47.609375 72.90625 
L 47.609375 25.390625 
L 58.015625 25.390625 
L 58.015625 17.1875 
L 47.609375 17.1875 
L 47.609375 0 
L 37.796875 0 
L 37.796875 17.1875 
L 4.890625 17.1875 
L 4.890625 26.703125 
z
" id="DejaVuSans-34"/>
      </defs>
      <g transform="translate(75.225474 591.318438)scale(0.1 -0.1)">
       <use xlink:href="#DejaVuSans-2212"/>
       <use x="83.789062" xlink:href="#DejaVuSans-34"/>
      </g>
     </g>
    </g>
    <g id="xtick_2">
     <g id="line2d_2">
      <g>
       <use style="stroke:#000000;stroke-width:0.8;" x="175.520335" xlink:href="#md2b6f30730" y="576.72"/>
      </g>
     </g>
     <g id="text_2">
      <!-- −2 -->
      <defs>
       <path d="M 19.1875 8.296875 
L 53.609375 8.296875 
L 53.609375 0 
L 7.328125 0 
L 7.328125 8.296875 
Q 12.9375 14.109375 22.625 23.890625 
Q 32.328125 33.6875 34.8125 36.53125 
Q 39.546875 41.84375 41.421875 45.53125 
Q 43.3125 49.21875 43.3125 52.78125 
Q 43.3125 58.59375 39.234375 62.25 
Q 35.15625 65.921875 28.609375 65.921875 
Q 23.96875 65.921875 18.8125 64.3125 
Q 13.671875 62.703125 7.8125 59.421875 
L 7.8125 69.390625 
Q 13.765625 71.78125 18.9375 73 
Q 24.125 74.21875 28.421875 74.21875 
Q 39.75 74.21875 46.484375 68.546875 
Q 53.21875 62.890625 53.21875 53.421875 
Q 53.21875 48.921875 51.53125 44.890625 
Q 49.859375 40.875 45.40625 35.40625 
Q 44.1875 33.984375 37.640625 27.21875 
Q 31.109375 20.453125 19.1875 8.296875 
z
" id="DejaVuSans-32"/>
      </defs>
      <g transform="translate(168.149242 591.318438)scale(0.1 -0.1)">
       <use xlink:href="#DejaVuSans-2212"/>
       <use x="83.789062" xlink:href="#DejaVuSans-32"/>
      </g>
     </g>
    </g>
    <g id="xtick_3">
     <g id="line2d_3">
      <g>
       <use style="stroke:#000000;stroke-width:0.8;" x="268.444103" xlink:href="#md2b6f30730" y="576.72"/>
      </g>
     </g>
     <g id="text_3">
      <!-- 0 -->
      <defs>
       <path d="M 31.78125 66.40625 
Q 24.171875 66.40625 20.328125 58.90625 
Q 16.5 51.421875 16.5 36.375 
Q 16.5 21.390625 20.328125 13.890625 
Q 24.171875 6.390625 31.78125 6.390625 
Q 39.453125 6.390625 43.28125 13.890625 
Q 47.125 21.390625 47.125 36.375 
Q 47.125 51.421875 43.28125 58.90625 
Q 39.453125 66.40625 31.78125 66.40625 
z
M 31.78125 74.21875 
Q 44.046875 74.21875 50.515625 64.515625 
Q 56.984375 54.828125 56.984375 36.375 
Q 56.984375 17.96875 50.515625 8.265625 
Q 44.046875 -1.421875 31.78125 -1.421875 
Q 19.53125 -1.421875 13.0625 8.265625 
Q 6.59375 17.96875 6.59375 36.375 
Q 6.59375 54.828125 13.0625 64.515625 
Q 19.53125 74.21875 31.78125 74.21875 
z
" id="DejaVuSans-30"/>
      </defs>
      <g transform="translate(265.262853 591.318438)scale(0.1 -0.1)">
       <use xlink:href="#DejaVuSans-30"/>
      </g>
     </g>
    </g>
    <g id="xtick_4">
     <g id="line2d_4">
      <g>
       <use style="stroke:#000000;stroke-width:0.8;" x="361.36787" xlink:href="#md2b6f30730" y="576.72"/>
      </g>
     </g>
     <g id="text_4">
      <!-- 2 -->
      <g transform="translate(358.18662 591.318438)scale(0.1 -0.1)">
       <use xlink:href="#DejaVuSans-32"/>
      </g>
     </g>
    </g>
    <g id="xtick_5">
     <g id="line2d_5">
      <g>
       <use style="stroke:#000000;stroke-width:0.8;" x="454.291637" xlink:href="#md2b6f30730" y="576.72"/>
      </g>
     </g>
     <g id="text_5">
      <!-- 4 -->
      <g transform="translate(451.110387 591.318438)scale(0.1 -0.1)">
       <use xlink:href="#DejaVuSans-34"/>
      </g>
     </g>
    </g>
    <g id="xtick_6">
     <g id="line2d_6">
      <g>
       <use style="stroke:#000000;stroke-width:0.8;" x="547.215404" xlink:href="#md2b6f30730" y="576.72"/>
      </g>
     </g>
     <g id="text_6">
      <!-- 6 -->
      <defs>
       <path d="M 33.015625 40.375 
Q 26.375 40.375 22.484375 35.828125 
Q 18.609375 31.296875 18.609375 23.390625 
Q 18.609375 15.53125 22.484375 10.953125 
Q 26.375 6.390625 33.015625 6.390625 
Q 39.65625 6.390625 43.53125 10.953125 
Q 47.40625 15.53125 47.40625 23.390625 
Q 47.40625 31.296875 43.53125 35.828125 
Q 39.65625 40.375 33.015625 40.375 
z
M 52.59375 71.296875 
L 52.59375 62.3125 
Q 48.875 64.0625 45.09375 64.984375 
Q 41.3125 65.921875 37.59375 65.921875 
Q 27.828125 65.921875 22.671875 59.328125 
Q 17.53125 52.734375 16.796875 39.40625 
Q 19.671875 43.65625 24.015625 45.921875 
Q 28.375 48.1875 33.59375 48.1875 
Q 44.578125 48.1875 50.953125 41.515625 
Q 57.328125 34.859375 57.328125 23.390625 
Q 57.328125 12.15625 50.6875 5.359375 
Q 44.046875 -1.421875 33.015625 -1.421875 
Q 20.359375 -1.421875 13.671875 8.265625 
Q 6.984375 17.96875 6.984375 36.375 
Q 6.984375 53.65625 15.1875 63.9375 
Q 23.390625 74.21875 37.203125 74.21875 
Q 40.921875 74.21875 44.703125 73.484375 
Q 48.484375 72.75 52.59375 71.296875 
z
" id="DejaVuSans-36"/>
      </defs>
      <g transform="translate(544.034154 591.318438)scale(0.1 -0.1)">
       <use xlink:href="#DejaVuSans-36"/>
      </g>
     </g>
    </g>
    <g id="text_7">
     <!-- $x( t )\ [1]$ -->
     <defs>
      <path d="M 60.015625 54.6875 
L 34.90625 27.875 
L 50.296875 0 
L 39.984375 0 
L 28.421875 21.6875 
L 8.296875 0 
L -2.59375 0 
L 24.3125 28.8125 
L 10.015625 54.6875 
L 20.3125 54.6875 
L 30.8125 34.90625 
L 49.125 54.6875 
z
" id="DejaVuSans-Oblique-78"/>
      <path d="M 31 75.875 
Q 24.46875 64.65625 21.28125 53.65625 
Q 18.109375 42.671875 18.109375 31.390625 
Q 18.109375 20.125 21.3125 9.0625 
Q 24.515625 -2 31 -13.1875 
L 23.1875 -13.1875 
Q 15.875 -1.703125 12.234375 9.375 
Q 8.59375 20.453125 8.59375 31.390625 
Q 8.59375 42.28125 12.203125 53.3125 
Q 15.828125 64.359375 23.1875 75.875 
z
" id="DejaVuSans-28"/>
      <path d="M 42.28125 54.6875 
L 40.921875 47.703125 
L 23 47.703125 
L 17.1875 18.015625 
Q 16.890625 16.359375 16.75 15.234375 
Q 16.609375 14.109375 16.609375 13.484375 
Q 16.609375 10.359375 18.484375 8.9375 
Q 20.359375 7.515625 24.515625 7.515625 
L 33.59375 7.515625 
L 32.078125 0 
L 23.484375 0 
Q 15.484375 0 11.546875 3.125 
Q 7.625 6.25 7.625 12.59375 
Q 7.625 13.71875 7.765625 15.0625 
Q 7.90625 16.40625 8.203125 18.015625 
L 14.015625 47.703125 
L 6.390625 47.703125 
L 7.8125 54.6875 
L 15.28125 54.6875 
L 18.3125 70.21875 
L 27.296875 70.21875 
L 24.3125 54.6875 
z
" id="DejaVuSans-Oblique-74"/>
      <path d="M 8.015625 75.875 
L 15.828125 75.875 
Q 23.140625 64.359375 26.78125 53.3125 
Q 30.421875 42.28125 30.421875 31.390625 
Q 30.421875 20.453125 26.78125 9.375 
Q 23.140625 -1.703125 15.828125 -13.1875 
L 8.015625 -13.1875 
Q 14.5 -2 17.703125 9.0625 
Q 20.90625 20.125 20.90625 31.390625 
Q 20.90625 42.671875 17.703125 53.65625 
Q 14.5 64.65625 8.015625 75.875 
z
" id="DejaVuSans-29"/>
      <path d="M 8.59375 75.984375 
L 29.296875 75.984375 
L 29.296875 69 
L 17.578125 69 
L 17.578125 -6.203125 
L 29.296875 -6.203125 
L 29.296875 -13.1875 
L 8.59375 -13.1875 
z
" id="DejaVuSans-5b"/>
      <path d="M 12.40625 8.296875 
L 28.515625 8.296875 
L 28.515625 63.921875 
L 10.984375 60.40625 
L 10.984375 69.390625 
L 28.421875 72.90625 
L 38.28125 72.90625 
L 38.28125 8.296875 
L 54.390625 8.296875 
L 54.390625 0 
L 12.40625 0 
z
" id="DejaVuSans-31"/>
      <path d="M 30.421875 75.984375 
L 30.421875 -13.1875 
L 9.71875 -13.1875 
L 9.71875 -6.203125 
L 21.390625 -6.203125 
L 21.390625 69 
L 9.71875 69 
L 9.71875 75.984375 
z
" id="DejaVuSans-5d"/>
     </defs>
     <g transform="translate(314.55 604.996562)scale(0.1 -0.1)">
      <use transform="translate(0 0.015625)" xlink:href="#DejaVuSans-Oblique-78"/>
      <use transform="translate(59.179688 0.015625)" xlink:href="#DejaVuSans-28"/>
      <use transform="translate(98.193359 0.015625)" xlink:href="#DejaVuSans-Oblique-74"/>
      <use transform="translate(137.402344 0.015625)" xlink:href="#DejaVuSans-29"/>
      <use transform="translate(208.886394 0.015625)" xlink:href="#DejaVuSans-5b"/>
      <use transform="translate(247.900066 0.015625)" xlink:href="#DejaVuSans-31"/>
      <use transform="translate(311.523113 0.015625)" xlink:href="#DejaVuSans-5d"/>
     </g>
    </g>
   </g>
   <g id="matplotlib.axis_2">
    <g id="ytick_1">
     <g id="line2d_7">
      <defs>
       <path d="M 0 0 
L -3.5 0 
" id="m0d798dbb79" style="stroke:#000000;stroke-width:0.8;"/>
      </defs>
      <g>
       <use style="stroke:#000000;stroke-width:0.8;" x="81" xlink:href="#m0d798dbb79" y="560.997018"/>
      </g>
     </g>
     <g id="text_8">
      <!-- −5 -->
      <defs>
       <path d="M 10.796875 72.90625 
L 49.515625 72.90625 
L 49.515625 64.59375 
L 19.828125 64.59375 
L 19.828125 46.734375 
Q 21.96875 47.46875 24.109375 47.828125 
Q 26.265625 48.1875 28.421875 48.1875 
Q 40.625 48.1875 47.75 41.5 
Q 54.890625 34.8125 54.890625 23.390625 
Q 54.890625 11.625 47.5625 5.09375 
Q 40.234375 -1.421875 26.90625 -1.421875 
Q 22.3125 -1.421875 17.546875 -0.640625 
Q 12.796875 0.140625 7.71875 1.703125 
L 7.71875 11.625 
Q 12.109375 9.234375 16.796875 8.0625 
Q 21.484375 6.890625 26.703125 6.890625 
Q 35.15625 6.890625 40.078125 11.328125 
Q 45.015625 15.765625 45.015625 23.390625 
Q 45.015625 31 40.078125 35.4375 
Q 35.15625 39.890625 26.703125 39.890625 
Q 22.75 39.890625 18.8125 39.015625 
Q 14.890625 38.140625 10.796875 36.28125 
z
" id="DejaVuSans-35"/>
      </defs>
      <g transform="translate(59.257812 564.796237)scale(0.1 -0.1)">
       <use xlink:href="#DejaVuSans-2212"/>
       <use x="83.789062" xlink:href="#DejaVuSans-35"/>
      </g>
     </g>
    </g>
    <g id="ytick_2">
     <g id="line2d_8">
      <g>
       <use style="stroke:#000000;stroke-width:0.8;" x="81" xlink:href="#m0d798dbb79" y="494.374579"/>
      </g>
     </g>
     <g id="text_9">
      <!-- −4 -->
      <g transform="translate(59.257812 498.173798)scale(0.1 -0.1)">
       <use xlink:href="#DejaVuSans-2212"/>
       <use x="83.789062" xlink:href="#DejaVuSans-34"/>
      </g>
     </g>
    </g>
    <g id="ytick_3">
     <g id="line2d_9">
      <g>
       <use style="stroke:#000000;stroke-width:0.8;" x="81" xlink:href="#m0d798dbb79" y="427.75214"/>
      </g>
     </g>
     <g id="text_10">
      <!-- −3 -->
      <defs>
       <path d="M 40.578125 39.3125 
Q 47.65625 37.796875 51.625 33 
Q 55.609375 28.21875 55.609375 21.1875 
Q 55.609375 10.40625 48.1875 4.484375 
Q 40.765625 -1.421875 27.09375 -1.421875 
Q 22.515625 -1.421875 17.65625 -0.515625 
Q 12.796875 0.390625 7.625 2.203125 
L 7.625 11.71875 
Q 11.71875 9.328125 16.59375 8.109375 
Q 21.484375 6.890625 26.8125 6.890625 
Q 36.078125 6.890625 40.9375 10.546875 
Q 45.796875 14.203125 45.796875 21.1875 
Q 45.796875 27.640625 41.28125 31.265625 
Q 36.765625 34.90625 28.71875 34.90625 
L 20.21875 34.90625 
L 20.21875 43.015625 
L 29.109375 43.015625 
Q 36.375 43.015625 40.234375 45.921875 
Q 44.09375 48.828125 44.09375 54.296875 
Q 44.09375 59.90625 40.109375 62.90625 
Q 36.140625 65.921875 28.71875 65.921875 
Q 24.65625 65.921875 20.015625 65.03125 
Q 15.375 64.15625 9.8125 62.3125 
L 9.8125 71.09375 
Q 15.4375 72.65625 20.34375 73.4375 
Q 25.25 74.21875 29.59375 74.21875 
Q 40.828125 74.21875 47.359375 69.109375 
Q 53.90625 64.015625 53.90625 55.328125 
Q 53.90625 49.265625 50.4375 45.09375 
Q 46.96875 40.921875 40.578125 39.3125 
z
" id="DejaVuSans-33"/>
      </defs>
      <g transform="translate(59.257812 431.551358)scale(0.1 -0.1)">
       <use xlink:href="#DejaVuSans-2212"/>
       <use x="83.789062" xlink:href="#DejaVuSans-33"/>
      </g>
     </g>
    </g>
    <g id="ytick_4">
     <g id="line2d_10">
      <g>
       <use style="stroke:#000000;stroke-width:0.8;" x="81" xlink:href="#m0d798dbb79" y="361.129701"/>
      </g>
     </g>
     <g id="text_11">
      <!-- −2 -->
      <g transform="translate(59.257812 364.928919)scale(0.1 -0.1)">
       <use xlink:href="#DejaVuSans-2212"/>
       <use x="83.789062" xlink:href="#DejaVuSans-32"/>
      </g>
     </g>
    </g>
    <g id="ytick_5">
     <g id="line2d_11">
      <g>
       <use style="stroke:#000000;stroke-width:0.8;" x="81" xlink:href="#m0d798dbb79" y="294.507262"/>
      </g>
     </g>
     <g id="text_12">
      <!-- −1 -->
      <g transform="translate(59.257812 298.30648)scale(0.1 -0.1)">
       <use xlink:href="#DejaVuSans-2212"/>
       <use x="83.789062" xlink:href="#DejaVuSans-31"/>
      </g>
     </g>
    </g>
    <g id="ytick_6">
     <g id="line2d_12">
      <g>
       <use style="stroke:#000000;stroke-width:0.8;" x="81" xlink:href="#m0d798dbb79" y="227.884823"/>
      </g>
     </g>
     <g id="text_13">
      <!-- 0 -->
      <g transform="translate(67.6375 231.684041)scale(0.1 -0.1)">
       <use xlink:href="#DejaVuSans-30"/>
      </g>
     </g>
    </g>
    <g id="ytick_7">
     <g id="line2d_13">
      <g>
       <use style="stroke:#000000;stroke-width:0.8;" x="81" xlink:href="#m0d798dbb79" y="161.262383"/>
      </g>
     </g>
     <g id="text_14">
      <!-- 1 -->
      <g transform="translate(67.6375 165.061602)scale(0.1 -0.1)">
       <use xlink:href="#DejaVuSans-31"/>
      </g>
     </g>
    </g>
    <g id="ytick_8">
     <g id="line2d_14">
      <g>
       <use style="stroke:#000000;stroke-width:0.8;" x="81" xlink:href="#m0d798dbb79" y="94.639944"/>
      </g>
     </g>
     <g id="text_15">
      <!-- 2 -->
      <g transform="translate(67.6375 98.439163)scale(0.1 -0.1)">
       <use xlink:href="#DejaVuSans-32"/>
      </g>
     </g>
    </g>
    <g id="text_16">
     <!-- $y( t )\ [1]$ -->
     <defs>
      <path d="M 24.8125 -5.078125 
Q 18.5625 -15.578125 14.625 -18.1875 
Q 10.6875 -20.796875 4.59375 -20.796875 
L -2.484375 -20.796875 
L -0.984375 -13.28125 
L 4.203125 -13.28125 
Q 7.953125 -13.28125 10.59375 -11.234375 
Q 13.234375 -9.1875 16.5 -3.21875 
L 19.28125 2 
L 7.171875 54.6875 
L 16.703125 54.6875 
L 25.78125 12.796875 
L 50.875 54.6875 
L 60.296875 54.6875 
z
" id="DejaVuSans-Oblique-79"/>
     </defs>
     <g transform="translate(53.157812 344.79)rotate(-90)scale(0.1 -0.1)">
      <use transform="translate(0 0.015625)" xlink:href="#DejaVuSans-Oblique-79"/>
      <use transform="translate(59.179688 0.015625)" xlink:href="#DejaVuSans-28"/>
      <use transform="translate(98.193359 0.015625)" xlink:href="#DejaVuSans-Oblique-74"/>
      <use transform="translate(137.402344 0.015625)" xlink:href="#DejaVuSans-29"/>
      <use transform="translate(208.886394 0.015625)" xlink:href="#DejaVuSans-5b"/>
      <use transform="translate(247.900066 0.015625)" xlink:href="#DejaVuSans-31"/>
      <use transform="translate(311.523113 0.015625)" xlink:href="#DejaVuSans-5d"/>
     </g>
    </g>
   </g>
   <g id="line2d_15">
    <path clip-path="url(#p605f754842)" d="M 268.444103 227.884823 
L 259.041266 218.775753 
L 252.894536 212.527389 
L 248.652148 207.914034 
L 245.70838 204.401178 
L 243.714069 201.69295 
L 242.430944 199.595307 
L 241.681814 197.967714 
L 241.330367 196.700291 
L 241.275086 195.708066 
L 241.446707 194.917579 
L 241.810905 194.274404 
L 242.374368 193.735402 
L 243.179688 193.282078 
L 244.301075 192.917061 
L 245.836728 192.662016 
L 247.924871 192.551665 
L 250.76468 192.636211 
L 254.674938 192.988226 
L 260.38455 193.74321 
L 273.798693 195.820811 
L 282.607426 197.042301 
L 288.931566 197.701306 
L 294.073732 198.020628 
L 298.370656 198.071366 
L 301.990134 197.89812 
L 305.039569 197.535723 
L 307.600173 197.013523 
L 309.735674 196.357462 
L 311.5099 195.585615 
L 312.968415 194.714046 
L 314.154666 193.750828 
L 315.103065 192.697701 
L 315.838711 191.550275 
L 316.377253 190.298268 
L 316.725606 188.920819 
L 316.877811 187.400623 
L 316.819992 185.710873 
L 316.529064 183.825622 
L 315.972108 181.709066 
L 315.113721 179.341408 
L 313.91012 176.689236 
L 312.315392 173.725509 
L 310.276562 170.416965 
L 307.743779 166.740909 
L 304.670619 162.680861 
L 301.010689 158.22093 
L 296.719475 153.34887 
L 291.784332 148.087791 
L 286.219942 142.484864 
L 280.075876 136.616583 
L 273.489259 130.634111 
L 266.675084 124.744496 
L 259.949388 119.221794 
L 253.638113 114.321357 
L 248.01112 110.226075 
L 243.20401 106.992957 
L 239.205843 104.561416 
L 235.930345 102.819005 
L 233.261037 101.640573 
L 231.081354 100.911495 
L 229.283847 100.53599 
L 227.780693 100.441631 
L 226.492543 100.578269 
L 225.354709 100.920192 
L 224.311349 101.466502 
L 223.305924 102.248675 
L 222.278041 103.339616 
L 221.121599 104.909796 
L 219.502567 107.529519 
L 215.77972 113.628159 
L 213.61629 116.679441 
L 211.340359 119.504165 
L 208.841965 122.248446 
L 206.046208 124.985756 
L 202.879365 127.771063 
L 199.247531 130.664116 
L 195.016649 133.74381 
L 189.950734 137.147738 
L 183.545767 141.170908 
L 173.555205 147.149294 
L 160.220001 155.17311 
L 153.152743 159.693764 
L 147.336682 163.672823 
L 142.274503 167.401166 
L 137.765954 170.994075 
L 133.702066 174.513388 
L 130.010297 178.001674 
L 126.645778 181.484395 
L 123.581116 184.974078 
L 120.781668 188.4966 
L 118.230576 192.062397 
L 115.911978 195.684168 
L 113.811736 199.377009 
L 111.923445 203.14694 
L 110.241226 207.000936 
L 108.755714 210.959297 
L 107.464564 215.032157 
L 106.363546 219.243742 
L 105.457095 223.593769 
L 104.746722 228.095194 
L 104.234071 232.776044 
L 103.925224 237.651927 
L 103.82753 242.739016 
L 103.949454 248.053864 
L 104.301644 253.62885 
L 104.895918 259.481572 
L 105.74931 265.661686 
L 106.877009 272.187067 
L 108.304096 279.124396 
L 110.05588 286.52371 
L 112.172456 294.484703 
L 114.703006 303.122246 
L 117.720495 312.61546 
L 121.352403 323.290027 
L 125.862163 335.830135 
L 132.078 352.408843 
L 146.688312 391.163084 
L 151.421262 404.496474 
L 155.355336 416.236118 
L 158.864961 427.407663 
L 162.297201 439.090208 
L 170.854149 468.721982 
L 172.798165 474.25668 
L 174.65229 478.877669 
L 176.519344 482.941779 
L 178.45535 486.627549 
L 180.4986 490.041319 
L 182.679383 493.253072 
L 185.028769 496.317639 
L 187.578372 499.276934 
L 190.35132 502.153857 
L 193.382318 504.976841 
L 196.703564 507.764554 
L 200.351901 510.533989 
L 204.358322 513.293213 
L 208.755872 516.048964 
L 213.579609 518.806487 
L 218.866436 521.569295 
L 224.625084 524.325242 
L 230.889024 527.074209 
L 237.675129 529.806877 
L 244.960104 532.498848 
L 252.745221 535.136914 
L 260.986605 537.693569 
L 269.647766 540.146421 
L 278.661705 542.466809 
L 287.928066 544.622123 
L 297.379997 546.592208 
L 306.923126 548.354347 
L 316.458846 549.889906 
L 325.934709 551.19132 
L 335.253185 552.247724 
L 344.367561 553.058313 
L 353.212197 553.623165 
L 361.750974 553.94756 
L 369.953581 554.038899 
L 377.818519 553.905834 
L 385.302818 553.558934 
L 392.414703 553.008902 
L 399.143565 552.267888 
L 405.504144 551.345811 
L 411.492181 550.255001 
L 417.106813 549.008644 
L 422.369253 547.615163 
L 427.28227 546.087 
L 431.868432 544.430278 
L 436.132552 542.656299 
L 440.097033 540.768601 
L 443.767507 538.777106 
L 447.165066 536.682625 
L 450.295241 534.493576 
L 453.17697 532.208007 
L 455.815008 529.832795 
L 458.21486 527.374928 
L 460.402254 524.816993 
L 462.36972 522.175546 
L 464.137813 519.429432 
L 465.699126 516.594902 
L 467.068719 513.647198 
L 468.244246 510.587344 
L 469.223698 507.416547 
L 470.008687 504.12016 
L 470.597309 500.681643 
L 470.981408 497.116764 
L 471.158061 493.390854 
L 471.118041 489.501638 
L 470.852417 485.447185 
L 470.349862 481.206858 
L 469.599087 476.778061 
L 468.589248 472.158708 
L 467.304112 467.326738 
L 465.723793 462.258869 
L 463.841008 456.973679 
L 461.635337 451.448651 
L 459.083081 445.660544 
L 456.16885 439.608371 
L 452.878821 433.292553 
L 449.187507 426.691654 
L 445.067384 419.784692 
L 440.505076 412.575648 
L 435.490469 405.07101 
L 429.982056 397.231136 
L 423.972311 389.06738 
L 417.420541 380.545647 
L 410.306195 371.660566 
L 402.613964 362.412332 
L 394.292854 352.758942 
L 385.319438 342.69262 
L 375.638036 332.16994 
L 365.208798 321.166335 
L 353.949947 309.613814 
L 341.709205 297.376266 
L 328.236989 284.227264 
L 312.949339 269.624817 
L 293.300117 251.185472 
L 268.444103 227.884823 
L 268.444103 227.884823 
" style="fill:none;stroke:#4169e1;stroke-linecap:square;stroke-width:1.5;"/>
   </g>
   <g id="line2d_16">
    <path clip-path="url(#p605f754842)" d="M 268.444103 227.884823 
L 263.447906 222.174913 
L 259.562024 217.408658 
L 256.610969 213.450274 
L 254.439856 210.180199 
L 252.912565 207.493627 
L 251.910001 205.29912 
L 251.325893 203.507099 
L 251.075441 202.048674 
L 251.089035 200.858407 
L 251.316248 199.881339 
L 251.731427 199.064606 
L 252.333171 198.373437 
L 253.143838 197.786444 
L 254.210341 197.295967 
L 255.601154 196.909636 
L 257.40928 196.64789 
L 259.762637 196.542363 
L 262.874199 196.637229 
L 267.220442 197.008045 
L 284.889417 198.744262 
L 288.189314 198.726942 
L 290.791383 198.499103 
L 292.873023 198.100897 
L 294.56034 197.557122 
L 296.017757 196.856772 
L 297.280683 196.00527 
L 298.367967 195.004761 
L 299.292371 193.852229 
L 300.064834 192.532337 
L 300.685702 191.026975 
L 301.148341 189.313177 
L 301.43882 187.36872 
L 301.538497 185.169257 
L 301.424289 182.689126 
L 301.069085 179.902399 
L 300.443813 176.790513 
L 299.520695 173.345313 
L 298.271851 169.558612 
L 296.676802 165.443777 
L 294.725018 161.032441 
L 292.4191 156.376355 
L 289.781281 151.554978 
L 286.856355 146.673816 
L 283.71239 141.859433 
L 280.438789 137.250864 
L 277.137447 132.982846 
L 273.880013 129.130447 
L 270.658949 125.661219 
L 267.466388 122.545845 
L 264.294143 119.758186 
L 261.138706 117.27897 
L 257.996484 115.090448 
L 254.853239 113.170393 
L 251.704507 111.50631 
L 248.545612 110.087149 
L 245.36607 108.901428 
L 242.154706 107.940593 
L 238.905382 107.200139 
L 235.605718 106.676269 
L 232.248498 106.368525 
L 228.81996 106.277989 
L 225.311634 106.408421 
L 221.708169 106.766017 
L 217.999851 107.359031 
L 214.195344 108.194001 
L 210.310056 109.275731 
L 206.360412 110.607436 
L 202.363403 112.190697 
L 198.329523 114.02876 
L 194.276279 116.121118 
L 190.221311 118.465535 
L 186.17531 121.062668 
L 182.155725 123.908062 
L 178.172886 127.001006 
L 174.243658 130.334779 
L 170.377695 133.907273 
L 166.584334 137.716342 
L 162.872607 141.759803 
L 159.257555 146.027674 
L 155.740986 150.524568 
L 152.336984 155.239538 
L 149.052795 160.168914 
L 145.889656 165.318533 
L 142.832621 170.722985 
L 139.874411 176.406759 
L 137.030423 182.35497 
L 134.315386 188.550788 
L 131.743211 194.975581 
L 129.322703 201.621035 
L 127.066597 208.466426 
L 124.986468 215.489614 
L 123.092583 222.66721 
L 121.390898 229.987999 
L 119.887208 237.440969 
L 118.591469 244.987764 
L 117.505123 252.630351 
L 116.63366 260.343521 
L 115.980769 268.101543 
L 115.547024 275.907587 
L 115.334705 283.736396 
L 115.344361 291.577428 
L 115.576221 299.42061 
L 116.030209 307.256327 
L 116.710204 315.135896 
L 117.628615 323.186056 
L 118.789368 331.395667 
L 120.195944 339.752397 
L 121.848134 348.227181 
L 123.747251 356.805237 
L 125.890128 365.455203 
L 128.275983 374.160183 
L 130.898823 382.887008 
L 133.745618 391.586917 
L 136.811138 400.241447 
L 140.08408 408.816875 
L 143.551613 417.279867 
L 147.199514 425.597783 
L 151.012316 433.73898 
L 154.966463 441.659534 
L 159.050953 449.344995 
L 163.240073 456.755728 
L 167.522036 463.880758 
L 171.869696 470.685896 
L 176.196695 477.05124 
L 180.44896 482.914723 
L 184.659836 488.345392 
L 188.854729 493.395243 
L 193.059913 498.1114 
L 197.284219 502.517104 
L 201.555815 506.652437 
L 205.885124 510.535292 
L 210.28289 514.182099 
L 214.771309 517.615857 
L 219.352219 520.841297 
L 224.050265 523.877736 
L 228.880698 526.734617 
L 233.847518 529.413424 
L 238.96744 531.92178 
L 244.258744 534.265781 
L 249.727462 536.444693 
L 255.394009 538.462672 
L 261.28079 540.322258 
L 267.396828 542.020284 
L 273.767392 543.557159 
L 280.403503 544.928358 
L 287.33376 546.132019 
L 294.571586 547.162125 
L 302.149434 548.014372 
L 310.083383 548.681074 
L 318.330399 549.150272 
L 326.806455 549.409467 
L 335.398682 549.449883 
L 344.012315 549.268622 
L 352.57487 548.86635 
L 360.974962 548.250219 
L 369.169513 547.427629 
L 377.100217 546.409654 
L 384.735806 545.206754 
L 392.030273 543.834107 
L 398.964281 542.304995 
L 405.523647 540.633129 
L 411.717699 538.82673 
L 417.521326 536.90486 
L 422.950712 534.875127 
L 428.006019 532.750595 
L 432.70653 530.53641 
L 437.055853 528.244232 
L 441.059856 525.88579 
L 444.740251 523.463229 
L 448.117303 520.976647 
L 451.197303 518.434765 
L 453.987822 515.846325 
L 456.508012 513.208462 
L 458.774541 510.516349 
L 460.792723 507.77583 
L 462.576324 504.97971 
L 464.129283 502.132452 
L 465.461937 499.224532 
L 466.576424 496.259058 
L 467.479184 493.224206 
L 468.170168 490.121732 
L 468.65147 486.937504 
L 468.921268 483.655502 
L 468.974138 480.291575 
L 468.804921 476.811372 
L 468.407109 473.230254 
L 467.771294 469.528774 
L 466.88335 465.685473 
L 465.717369 461.640229 
L 464.241414 457.330457 
L 462.427745 452.72935 
L 460.254776 447.829941 
L 457.691438 442.604947 
L 454.703661 437.026483 
L 451.268188 431.088707 
L 447.335424 424.742226 
L 442.881171 417.982855 
L 437.868586 410.785756 
L 432.24359 403.104227 
L 425.968814 394.917339 
L 418.991004 386.184055 
L 411.259432 376.868239 
L 402.686516 366.891921 
L 393.211988 356.211923 
L 382.700979 344.703039 
L 370.970174 332.193798 
L 357.740134 318.417583 
L 342.391666 302.765849 
L 322.93472 283.260673 
L 284.014491 244.325615 
L 274.455515 234.392796 
L 268.444103 227.884823 
L 268.444103 227.884823 
" style="fill:none;stroke:#ff4500;stroke-linecap:square;stroke-width:1.5;"/>
   </g>
   <g id="line2d_17">
    <path clip-path="url(#p605f754842)" d="M 268.444103 227.884823 
L 271.699018 224.729222 
L 283.591582 213.475626 
L 286.152466 210.591925 
L 288.220423 207.934782 
L 289.908172 205.41054 
L 291.287282 202.952918 
L 292.393901 200.530032 
L 293.252853 198.116407 
L 293.828024 196.61868 
L 294.632248 194.083533 
L 295.256426 191.375288 
L 295.693089 188.482913 
L 295.932 185.395647 
L 295.960785 182.118111 
L 295.7674 178.642933 
L 295.338007 174.964962 
L 294.660555 171.097322 
L 293.725745 167.057724 
L 292.522719 162.853918 
L 291.052067 158.529602 
L 289.321456 154.134162 
L 287.345434 149.722075 
L 285.145068 145.352132 
L 282.755151 141.099531 
L 280.23332 137.063096 
L 277.654081 133.34769 
L 274.968533 129.865483 
L 272.215875 126.65822 
L 269.401697 123.718024 
L 266.522253 121.028987 
L 263.582391 118.585758 
L 260.577367 116.376374 
L 257.511569 114.397706 
L 254.389476 112.646532 
L 251.205649 111.1151 
L 247.964429 109.80209 
L 244.660129 108.702958 
L 241.297234 107.818038 
L 237.870167 107.145701 
L 234.373469 106.686657 
L 230.812402 106.444229 
L 227.192757 106.421293 
L 223.510446 106.621133 
L 219.772514 107.047347 
L 216.007339 107.666066 
L 212.209191 108.515962 
L 208.382934 109.600768 
L 204.533777 110.923902 
L 200.657261 112.492817 
L 196.769551 114.307039 
L 192.8672 116.37443 
L 188.957354 118.69864 
L 185.047652 121.282869 
L 181.15558 124.122701 
L 177.280109 127.226458 
L 173.43041 130.595888 
L 169.624954 134.223512 
L 165.873349 138.108506 
L 162.193943 142.239899 
L 158.59652 146.614474 
L 155.098962 151.218034 
L 151.710946 156.04521 
L 148.442455 161.09028 
L 145.215506 166.487309 
L 142.210148 171.936787 
L 139.322169 177.636017 
L 136.559147 183.582718 
L 133.928787 189.773838 
L 131.43892 196.205513 
L 129.102057 202.859408 
L 126.920971 209.743059 
L 124.907646 216.835907 
L 123.069235 224.129936 
L 121.415988 231.60174 
L 119.954053 239.241086 
L 118.691848 247.022132 
L 117.634441 254.932775 
L 116.789713 262.930136 
L 116.159385 271.015592 
L 115.748522 279.144808 
L 115.558611 287.303248 
L 115.590874 295.461036 
L 115.844881 303.588295 
L 116.33137 311.93326 
L 117.024093 320.033514 
L 117.944887 328.190368 
L 119.095152 336.395151 
L 120.475857 344.638645 
L 122.084494 352.896576 
L 123.923407 361.173383 
L 125.992186 369.458156 
L 128.285842 377.725383 
L 130.801949 385.963514 
L 133.537615 394.160452 
L 136.489462 402.303541 
L 139.648294 410.366463 
L 143.00889 418.336207 
L 146.565584 426.199275 
L 150.300026 433.917197 
L 154.21058 441.489306 
L 158.276482 448.878551 
L 162.481733 456.061539 
L 166.816354 463.027012 
L 171.269816 469.763687 
L 175.762595 476.183097 
L 180.263185 482.228569 
L 184.7769 487.921419 
L 189.301578 493.272588 
L 193.850633 498.310145 
L 198.422317 503.042884 
L 203.022934 507.487439 
L 207.659275 511.658995 
L 212.33866 515.571296 
L 217.060088 519.230019 
L 221.831466 522.647162 
L 226.661326 525.833275 
L 231.549376 528.791974 
L 236.50489 531.532047 
L 241.527955 534.056092 
L 246.638778 536.375458 
L 251.828221 538.48659 
L 257.117846 540.398244 
L 262.498626 542.106548 
L 267.993582 543.617609 
L 273.605087 544.929604 
L 279.335513 546.040712 
L 285.198943 546.95071 
L 291.198493 547.656552 
L 297.34952 548.155946 
L 303.66845 548.444899 
L 310.247812 548.520388 
L 316.970066 548.377566 
L 323.94798 548.005783 
L 331.150236 547.398348 
L 338.542133 546.550693 
L 346.072453 545.462502 
L 353.687281 544.137135 
L 361.34438 542.578552 
L 368.987028 540.795859 
L 376.545277 538.80504 
L 383.976941 536.618399 
L 391.22843 534.253865 
L 398.249172 531.731782 
L 404.992549 529.074612 
L 411.428451 526.301357 
L 417.530631 523.431446 
L 423.266168 520.49039 
L 428.629129 517.492754 
L 433.606405 514.458412 
L 438.198781 511.400709 
L 442.400751 508.338697 
L 446.227618 505.277591 
L 449.679349 502.235005 
L 452.774049 499.214069 
L 455.522759 496.223805 
L 457.943706 493.265098 
L 460.048838 490.345223 
L 461.85568 487.463213 
L 463.380204 484.617143 
L 464.636679 481.804241 
L 465.63501 479.028935 
L 466.389491 476.279255 
L 466.908537 473.550417 
L 467.197861 470.845312 
L 467.263332 468.15015 
L 467.090164 464.515942 
L 466.722146 461.60465 
L 466.116994 458.602425 
L 465.26288 455.499478 
L 464.145977 452.285826 
L 462.746484 448.942265 
L 461.045 445.458281 
L 459.01518 441.814043 
L 456.626759 437.989338 
L 453.852594 433.972881 
L 450.65758 429.743956 
L 447.003939 425.281561 
L 442.834674 420.545532 
L 438.096022 415.504594 
L 432.722275 410.117598 
L 426.61393 404.314115 
L 419.643153 398.003516 
L 411.607701 391.035848 
L 402.189357 383.171598 
L 390.694132 373.874327 
L 374.825718 361.349652 
L 342.026389 335.520372 
L 330.34099 325.988997 
L 320.890425 318.00078 
L 312.865173 310.932718 
L 305.910701 304.517394 
L 299.82441 298.605863 
L 294.478152 293.108312 
L 289.780751 287.964444 
L 285.65646 283.123973 
L 282.044009 278.546591 
L 278.901463 274.211356 
L 276.182992 270.087995 
L 273.853374 266.155988 
L 271.880668 262.395035 
L 270.24052 258.794373 
L 268.909896 255.343325 
L 267.864761 252.022143 
L 267.085514 248.81141 
L 266.559569 245.710197 
L 266.272604 242.699481 
L 266.21499 239.769576 
L 266.380193 236.902059 
L 266.763681 234.096609 
L 267.365095 231.335281 
L 268.186486 228.609296 
L 268.444103 227.884823 
L 268.444103 227.884823 
" style="fill:none;stroke:#cd5c5c;stroke-linecap:square;stroke-width:1.5;"/>
   </g>
   <g id="line2d_18">
    <path clip-path="url(#p605f754842)" d="M 268.444103 227.884823 
L 270.340075 227.773727 
L 272.229449 227.44013 
L 274.10836 226.882079 
L 275.972496 226.095677 
L 277.816828 225.075135 
L 279.635327 223.812869 
L 281.415571 222.304356 
L 283.146914 220.543502 
L 284.815246 218.527184 
L 286.407917 216.250339 
L 287.905017 213.719153 
L 289.291019 210.936019 
L 290.548391 207.909276 
L 291.660132 204.650152 
L 292.610024 201.172687 
L 293.381976 197.498571 
L 293.962829 193.64766 
L 294.34061 189.647307 
L 294.506284 185.521879 
L 294.452765 181.297169 
L 294.175547 177.005764 
L 293.672682 172.675476 
L 292.944455 168.334299 
L 291.994829 164.015853 
L 290.827738 159.741506 
L 289.448037 155.531716 
L 287.866145 151.417327 
L 286.090351 147.416187 
L 284.129596 143.544761 
L 281.996603 139.823418 
L 279.698662 136.260159 
L 277.24987 132.872107 
L 274.661625 129.669409 
L 271.945485 126.660725 
L 269.108555 123.84902 
L 266.166553 121.244881 
L 263.126112 118.849114 
L 259.992914 116.662409 
L 256.777129 114.688619 
L 253.488835 112.930555 
L 250.13223 111.387593 
L 246.716596 110.061618 
L 243.245017 108.951925 
L 239.719846 108.058442 
L 236.149126 107.382854 
L 232.54081 106.926186 
L 228.889649 106.688373 
L 225.209446 106.671397 
L 221.49415 106.876827 
L 217.750648 107.307004 
L 213.985851 107.963807 
L 210.199797 108.850479 
L 206.399315 109.969272 
L 202.584354 111.324694 
L 198.761829 112.919457 
L 194.93877 114.755868 
L 191.115379 116.839824 
L 187.298969 119.174142 
L 183.497014 121.761222 
L 179.717132 124.603035 
L 175.960361 127.706918 
L 172.241473 131.069043 
L 168.561975 134.696729 
L 164.936762 138.584284 
L 161.367817 142.738944 
L 157.870053 147.153095 
L 154.445934 151.833825 
L 151.110273 156.771553 
L 147.871632 161.963775 
L 144.733171 167.41723 
L 141.70931 173.119345 
L 138.808644 179.065921 
L 136.044449 185.241178 
L 133.419993 191.650021 
L 130.947853 198.2748 
L 128.631577 205.120114 
L 126.482921 212.166506 
L 124.512275 219.39264 
L 122.722592 226.80167 
L 121.123128 234.370771 
L 119.716942 242.102917 
L 118.512067 249.973921 
L 117.513237 257.972399 
L 116.726059 266.07229 
L 116.152631 274.275662 
L 115.797081 282.555639 
L 115.661568 290.899431 
L 115.747857 299.294185 
L 116.056569 307.711843 
L 116.588633 316.15449 
L 117.343068 324.593981 
L 118.31885 333.017398 
L 119.514568 341.412018 
L 120.92844 349.765339 
L 122.558321 358.065096 
L 124.401718 366.299289 
L 126.45175 374.440954 
L 128.708501 382.49409 
L 131.163649 390.432615 
L 133.812239 398.246216 
L 136.649063 405.925047 
L 139.674753 413.474305 
L 142.878363 420.870145 
L 146.254026 428.104113 
L 149.788472 435.154321 
L 153.481986 442.027736 
L 157.328253 448.717449 
L 161.320841 455.217046 
L 165.453217 461.520608 
L 169.718767 467.622711 
L 174.110814 473.518416 
L 178.622629 479.203271 
L 183.247454 484.6733 
L 187.978513 489.924998 
L 192.809029 494.955323 
L 197.732236 499.761689 
L 202.741396 504.341953 
L 207.829809 508.694408 
L 213.002527 512.8268 
L 218.241765 516.728346 
L 223.55317 520.406686 
L 228.918555 523.852664 
L 234.344167 527.073735 
L 239.824342 530.069094 
L 245.353469 532.838247 
L 250.925995 535.381008 
L 256.536432 537.697485 
L 262.192948 539.792825 
L 267.876941 541.661942 
L 273.597021 543.309491 
L 279.34841 544.735112 
L 285.12637 545.938672 
L 290.9262 546.920262 
L 296.757627 547.681793 
L 302.601861 548.221108 
L 308.468889 548.539443 
L 314.354418 548.636083 
L 320.254162 548.510491 
L 326.163838 548.162311 
L 332.079171 547.591368 
L 338.010747 546.795391 
L 343.939527 545.775695 
L 349.876139 544.529218 
L 355.816364 543.054763 
L 361.755944 541.351299 
L 367.690589 539.417953 
L 373.630813 537.248308 
L 379.557353 534.846378 
L 385.465801 532.21179 
L 391.366413 529.336884 
L 397.254522 526.219879 
L 403.110857 522.867803 
L 408.945305 519.271768 
L 414.752994 515.430531 
L 420.528979 511.343037 
L 426.268242 507.008422 
L 431.965698 502.426023 
L 437.616197 497.595378 
L 443.214529 492.516236 
L 448.755423 487.188557 
L 454.233559 481.612521 
L 459.643562 475.78853 
L 464.992828 469.702233 
L 470.262628 463.368359 
L 475.447429 456.788025 
L 480.541666 449.962589 
L 485.539745 442.893661 
L 490.43605 435.583098 
L 495.224949 428.033016 
L 499.900795 420.245786 
L 504.457936 412.224045 
L 508.890718 403.970694 
L 513.19349 395.488903 
L 517.360612 386.782112 
L 521.38646 377.854038 
L 525.256533 368.730315 
L 528.97492 359.394453 
L 532.536115 349.850964 
L 535.92693 340.127563 
L 539.150494 330.2072 
L 542.194588 320.118892 
L 545.055235 309.869338 
L 547.734588 299.440995 
L 550.222009 288.864685 
L 552.513875 278.1477 
L 554.606697 267.297506 
L 556.497127 256.321736 
L 558.181957 245.228186 
L 559.658128 234.024808 
L 560.372727 227.884823 
L 560.372727 227.884823 
" style="fill:none;stroke:#48d1cc;stroke-dasharray:1.5,2.475;stroke-dashoffset:0;stroke-width:1.5;"/>
   </g>
   <g id="line2d_19">
    <defs>
     <path d="M 0 3 
C 0.795609 3 1.55874 2.683901 2.12132 2.12132 
C 2.683901 1.55874 3 0.795609 3 0 
C 3 -0.795609 2.683901 -1.55874 2.12132 -2.12132 
C 1.55874 -2.683901 0.795609 -3 0 -3 
C -0.795609 -3 -1.55874 -2.683901 -2.12132 -2.12132 
C -2.683901 -1.55874 -3 -0.795609 -3 0 
C -3 0.795609 -2.683901 1.55874 -2.12132 2.12132 
C -1.55874 2.683901 -0.795609 3 0 3 
z
" id="mf8ab77b558" style="stroke:#0000ff;"/>
    </defs>
    <g clip-path="url(#p605f754842)">
     <use style="fill:#0000ff;stroke:#0000ff;" x="268.444103" xlink:href="#mf8ab77b558" y="227.884823"/>
     <use style="fill:#0000ff;stroke:#0000ff;" x="293.291914" xlink:href="#mf8ab77b558" y="197.987976"/>
     <use style="fill:#0000ff;stroke:#0000ff;" x="279.709186" xlink:href="#mf8ab77b558" y="136.27557"/>
     <use style="fill:#0000ff;stroke:#0000ff;" x="219.789332" xlink:href="#mf8ab77b558" y="107.045085"/>
     <use style="fill:#0000ff;stroke:#0000ff;" x="146.522692" xlink:href="#mf8ab77b558" y="164.253703"/>
     <use style="fill:#0000ff;stroke:#0000ff;" x="116.042339" xlink:href="#mf8ab77b558" y="307.423722"/>
     <use style="fill:#0000ff;stroke:#0000ff;" x="171.134561" xlink:href="#mf8ab77b558" y="469.564298"/>
     <use style="fill:#0000ff;stroke:#0000ff;" x="307.871893" xlink:href="#mf8ab77b558" y="548.517208"/>
     <use style="fill:#0000ff;stroke:#0000ff;" x="467.226592" xlink:href="#mf8ab77b558" y="467.059596"/>
    </g>
   </g>
   <g id="patch_3">
    <path d="M 81 576.72 
L 81 77.76 
" style="fill:none;stroke:#000000;stroke-linecap:square;stroke-linejoin:miter;stroke-width:0.8;"/>
   </g>
   <g id="patch_4">
    <path d="M 583.2 576.72 
L 583.2 77.76 
" style="fill:none;stroke:#000000;stroke-linecap:square;stroke-linejoin:miter;stroke-width:0.8;"/>
   </g>
   <g id="patch_5">
    <path d="M 81 576.72 
L 583.2 576.72 
" style="fill:none;stroke:#000000;stroke-linecap:square;stroke-linejoin:miter;stroke-width:0.8;"/>
   </g>
   <g id="patch_6">
    <path d="M 81 77.76 
L 583.2 77.76 
" style="fill:none;stroke:#000000;stroke-linecap:square;stroke-linejoin:miter;stroke-width:0.8;"/>
   </g>
   <g id="text_17">
    <!-- Interpolation of $f$: -->
    <defs>
     <path d="M 9.8125 72.90625 
L 19.671875 72.90625 
L 19.671875 0 
L 9.8125 0 
z
" id="DejaVuSans-49"/>
     <path d="M 54.890625 33.015625 
L 54.890625 0 
L 45.90625 0 
L 45.90625 32.71875 
Q 45.90625 40.484375 42.875 44.328125 
Q 39.84375 48.1875 33.796875 48.1875 
Q 26.515625 48.1875 22.3125 43.546875 
Q 18.109375 38.921875 18.109375 30.90625 
L 18.109375 0 
L 9.078125 0 
L 9.078125 54.6875 
L 18.109375 54.6875 
L 18.109375 46.1875 
Q 21.34375 51.125 25.703125 53.5625 
Q 30.078125 56 35.796875 56 
Q 45.21875 56 50.046875 50.171875 
Q 54.890625 44.34375 54.890625 33.015625 
z
" id="DejaVuSans-6e"/>
     <path d="M 18.3125 70.21875 
L 18.3125 54.6875 
L 36.8125 54.6875 
L 36.8125 47.703125 
L 18.3125 47.703125 
L 18.3125 18.015625 
Q 18.3125 11.328125 20.140625 9.421875 
Q 21.96875 7.515625 27.59375 7.515625 
L 36.8125 7.515625 
L 36.8125 0 
L 27.59375 0 
Q 17.1875 0 13.234375 3.875 
Q 9.28125 7.765625 9.28125 18.015625 
L 9.28125 47.703125 
L 2.6875 47.703125 
L 2.6875 54.6875 
L 9.28125 54.6875 
L 9.28125 70.21875 
z
" id="DejaVuSans-74"/>
     <path d="M 56.203125 29.59375 
L 56.203125 25.203125 
L 14.890625 25.203125 
Q 15.484375 15.921875 20.484375 11.0625 
Q 25.484375 6.203125 34.421875 6.203125 
Q 39.59375 6.203125 44.453125 7.46875 
Q 49.3125 8.734375 54.109375 11.28125 
L 54.109375 2.78125 
Q 49.265625 0.734375 44.1875 -0.34375 
Q 39.109375 -1.421875 33.890625 -1.421875 
Q 20.796875 -1.421875 13.15625 6.1875 
Q 5.515625 13.8125 5.515625 26.8125 
Q 5.515625 40.234375 12.765625 48.109375 
Q 20.015625 56 32.328125 56 
Q 43.359375 56 49.78125 48.890625 
Q 56.203125 41.796875 56.203125 29.59375 
z
M 47.21875 32.234375 
Q 47.125 39.59375 43.09375 43.984375 
Q 39.0625 48.390625 32.421875 48.390625 
Q 24.90625 48.390625 20.390625 44.140625 
Q 15.875 39.890625 15.1875 32.171875 
z
" id="DejaVuSans-65"/>
     <path d="M 41.109375 46.296875 
Q 39.59375 47.171875 37.8125 47.578125 
Q 36.03125 48 33.890625 48 
Q 26.265625 48 22.1875 43.046875 
Q 18.109375 38.09375 18.109375 28.8125 
L 18.109375 0 
L 9.078125 0 
L 9.078125 54.6875 
L 18.109375 54.6875 
L 18.109375 46.1875 
Q 20.953125 51.171875 25.484375 53.578125 
Q 30.03125 56 36.53125 56 
Q 37.453125 56 38.578125 55.875 
Q 39.703125 55.765625 41.0625 55.515625 
z
" id="DejaVuSans-72"/>
     <path d="M 18.109375 8.203125 
L 18.109375 -20.796875 
L 9.078125 -20.796875 
L 9.078125 54.6875 
L 18.109375 54.6875 
L 18.109375 46.390625 
Q 20.953125 51.265625 25.265625 53.625 
Q 29.59375 56 35.59375 56 
Q 45.5625 56 51.78125 48.09375 
Q 58.015625 40.1875 58.015625 27.296875 
Q 58.015625 14.40625 51.78125 6.484375 
Q 45.5625 -1.421875 35.59375 -1.421875 
Q 29.59375 -1.421875 25.265625 0.953125 
Q 20.953125 3.328125 18.109375 8.203125 
z
M 48.6875 27.296875 
Q 48.6875 37.203125 44.609375 42.84375 
Q 40.53125 48.484375 33.40625 48.484375 
Q 26.265625 48.484375 22.1875 42.84375 
Q 18.109375 37.203125 18.109375 27.296875 
Q 18.109375 17.390625 22.1875 11.75 
Q 26.265625 6.109375 33.40625 6.109375 
Q 40.53125 6.109375 44.609375 11.75 
Q 48.6875 17.390625 48.6875 27.296875 
z
" id="DejaVuSans-70"/>
     <path d="M 30.609375 48.390625 
Q 23.390625 48.390625 19.1875 42.75 
Q 14.984375 37.109375 14.984375 27.296875 
Q 14.984375 17.484375 19.15625 11.84375 
Q 23.34375 6.203125 30.609375 6.203125 
Q 37.796875 6.203125 41.984375 11.859375 
Q 46.1875 17.53125 46.1875 27.296875 
Q 46.1875 37.015625 41.984375 42.703125 
Q 37.796875 48.390625 30.609375 48.390625 
z
M 30.609375 56 
Q 42.328125 56 49.015625 48.375 
Q 55.71875 40.765625 55.71875 27.296875 
Q 55.71875 13.875 49.015625 6.21875 
Q 42.328125 -1.421875 30.609375 -1.421875 
Q 18.84375 -1.421875 12.171875 6.21875 
Q 5.515625 13.875 5.515625 27.296875 
Q 5.515625 40.765625 12.171875 48.375 
Q 18.84375 56 30.609375 56 
z
" id="DejaVuSans-6f"/>
     <path d="M 9.421875 75.984375 
L 18.40625 75.984375 
L 18.40625 0 
L 9.421875 0 
z
" id="DejaVuSans-6c"/>
     <path d="M 34.28125 27.484375 
Q 23.390625 27.484375 19.1875 25 
Q 14.984375 22.515625 14.984375 16.5 
Q 14.984375 11.71875 18.140625 8.90625 
Q 21.296875 6.109375 26.703125 6.109375 
Q 34.1875 6.109375 38.703125 11.40625 
Q 43.21875 16.703125 43.21875 25.484375 
L 43.21875 27.484375 
z
M 52.203125 31.203125 
L 52.203125 0 
L 43.21875 0 
L 43.21875 8.296875 
Q 40.140625 3.328125 35.546875 0.953125 
Q 30.953125 -1.421875 24.3125 -1.421875 
Q 15.921875 -1.421875 10.953125 3.296875 
Q 6 8.015625 6 15.921875 
Q 6 25.140625 12.171875 29.828125 
Q 18.359375 34.515625 30.609375 34.515625 
L 43.21875 34.515625 
L 43.21875 35.40625 
Q 43.21875 41.609375 39.140625 45 
Q 35.0625 48.390625 27.6875 48.390625 
Q 23 48.390625 18.546875 47.265625 
Q 14.109375 46.140625 10.015625 43.890625 
L 10.015625 52.203125 
Q 14.9375 54.109375 19.578125 55.046875 
Q 24.21875 56 28.609375 56 
Q 40.484375 56 46.34375 49.84375 
Q 52.203125 43.703125 52.203125 31.203125 
z
" id="DejaVuSans-61"/>
     <path d="M 9.421875 54.6875 
L 18.40625 54.6875 
L 18.40625 0 
L 9.421875 0 
z
M 9.421875 75.984375 
L 18.40625 75.984375 
L 18.40625 64.59375 
L 9.421875 64.59375 
z
" id="DejaVuSans-69"/>
     <path id="DejaVuSans-20"/>
     <path d="M 37.109375 75.984375 
L 37.109375 68.5 
L 28.515625 68.5 
Q 23.6875 68.5 21.796875 66.546875 
Q 19.921875 64.59375 19.921875 59.515625 
L 19.921875 54.6875 
L 34.71875 54.6875 
L 34.71875 47.703125 
L 19.921875 47.703125 
L 19.921875 0 
L 10.890625 0 
L 10.890625 47.703125 
L 2.296875 47.703125 
L 2.296875 54.6875 
L 10.890625 54.6875 
L 10.890625 58.5 
Q 10.890625 67.625 15.140625 71.796875 
Q 19.390625 75.984375 28.609375 75.984375 
z
" id="DejaVuSans-66"/>
     <path d="M 47.796875 75.984375 
L 46.390625 68.5 
L 37.796875 68.5 
Q 32.90625 68.5 30.6875 66.578125 
Q 28.46875 64.65625 27.390625 59.515625 
L 26.421875 54.6875 
L 41.21875 54.6875 
L 39.890625 47.703125 
L 25.09375 47.703125 
L 15.828125 0 
L 6.78125 0 
L 16.109375 47.703125 
L 7.515625 47.703125 
L 8.796875 54.6875 
L 17.390625 54.6875 
L 18.109375 58.5 
Q 19.96875 68.171875 24.625 72.078125 
Q 29.296875 75.984375 39.3125 75.984375 
z
" id="DejaVuSans-Oblique-66"/>
     <path d="M 11.71875 12.40625 
L 22.015625 12.40625 
L 22.015625 0 
L 11.71875 0 
z
M 11.71875 51.703125 
L 22.015625 51.703125 
L 22.015625 39.3125 
L 11.71875 39.3125 
z
" id="DejaVuSans-3a"/>
    </defs>
    <g transform="translate(279.96 71.76)scale(0.12 -0.12)">
     <use transform="translate(0 0.015625)" xlink:href="#DejaVuSans-49"/>
     <use transform="translate(29.492188 0.015625)" xlink:href="#DejaVuSans-6e"/>
     <use transform="translate(92.871094 0.015625)" xlink:href="#DejaVuSans-74"/>
     <use transform="translate(132.080078 0.015625)" xlink:href="#DejaVuSans-65"/>
     <use transform="translate(193.603516 0.015625)" xlink:href="#DejaVuSans-72"/>
     <use transform="translate(234.716797 0.015625)" xlink:href="#DejaVuSans-70"/>
     <use transform="translate(298.193359 0.015625)" xlink:href="#DejaVuSans-6f"/>
     <use transform="translate(359.375 0.015625)" xlink:href="#DejaVuSans-6c"/>
     <use transform="translate(387.158203 0.015625)" xlink:href="#DejaVuSans-61"/>
     <use transform="translate(448.4375 0.015625)" xlink:href="#DejaVuSans-74"/>
     <use transform="translate(487.646484 0.015625)" xlink:href="#DejaVuSans-69"/>
     <use transform="translate(515.429688 0.015625)" xlink:href="#DejaVuSans-6f"/>
     <use transform="translate(576.611328 0.015625)" xlink:href="#DejaVuSans-6e"/>
     <use transform="translate(639.990234 0.015625)" xlink:href="#DejaVuSans-20"/>
     <use transform="translate(671.777344 0.015625)" xlink:href="#DejaVuSans-6f"/>
     <use transform="translate(732.958984 0.015625)" xlink:href="#DejaVuSans-66"/>
     <use transform="translate(768.164062 0.015625)" xlink:href="#DejaVuSans-20"/>
     <use transform="translate(799.951172 0.015625)" xlink:href="#DejaVuSans-Oblique-66"/>
     <use transform="translate(835.15625 0.015625)" xlink:href="#DejaVuSans-3a"/>
    </g>
   </g>
   <g id="legend_1">
    <g id="patch_7">
     <path d="M 526.1 159.1725 
L 576.2 159.1725 
Q 578.2 159.1725 578.2 157.1725 
L 578.2 84.76 
Q 578.2 82.76 576.2 82.76 
L 526.1 82.76 
Q 524.1 82.76 524.1 84.76 
L 524.1 157.1725 
Q 524.1 159.1725 526.1 159.1725 
z
" style="fill:#ffffff;opacity:0.8;stroke:#cccccc;stroke-linejoin:miter;"/>
    </g>
    <g id="line2d_20">
     <path d="M 528.1 90.86 
L 548.1 90.86 
" style="fill:none;stroke:#4169e1;stroke-linecap:square;stroke-width:1.5;"/>
    </g>
    <g id="line2d_21"/>
    <g id="text_18">
     <!-- $q( t )$ -->
     <defs>
      <path d="M 41.703125 8.203125 
Q 38.09375 3.46875 33.171875 1.015625 
Q 28.265625 -1.421875 22.3125 -1.421875 
Q 14.015625 -1.421875 9.296875 4.171875 
Q 4.59375 9.765625 4.59375 19.578125 
Q 4.59375 27.484375 7.5 34.859375 
Q 10.40625 42.234375 15.828125 48.09375 
Q 19.34375 51.90625 23.90625 53.953125 
Q 28.46875 56 33.5 56 
Q 39.546875 56 43.453125 53.609375 
Q 47.359375 51.21875 49.125 46.390625 
L 50.6875 54.59375 
L 59.71875 54.59375 
L 45.125 -20.609375 
L 36.078125 -20.609375 
z
M 13.921875 20.90625 
Q 13.921875 13.671875 16.9375 9.890625 
Q 19.96875 6.109375 25.6875 6.109375 
Q 34.1875 6.109375 40.1875 14.234375 
Q 46.1875 22.359375 46.1875 33.984375 
Q 46.1875 41.015625 43.078125 44.75 
Q 39.984375 48.484375 34.1875 48.484375 
Q 29.9375 48.484375 26.3125 46.5 
Q 22.703125 44.53125 20.015625 40.71875 
Q 17.1875 36.71875 15.546875 31.34375 
Q 13.921875 25.984375 13.921875 20.90625 
z
" id="DejaVuSans-Oblique-71"/>
     </defs>
     <g transform="translate(556.1 94.36)scale(0.1 -0.1)">
      <use transform="translate(0 0.125)" xlink:href="#DejaVuSans-Oblique-71"/>
      <use transform="translate(63.476562 0.125)" xlink:href="#DejaVuSans-28"/>
      <use transform="translate(102.490234 0.125)" xlink:href="#DejaVuSans-Oblique-74"/>
      <use transform="translate(141.699219 0.125)" xlink:href="#DejaVuSans-29"/>
     </g>
    </g>
    <g id="line2d_22">
     <path d="M 528.1 105.558437 
L 548.1 105.558437 
" style="fill:none;stroke:#ff4500;stroke-linecap:square;stroke-width:1.5;"/>
    </g>
    <g id="line2d_23"/>
    <g id="text_19">
     <!-- $s( t )$ -->
     <defs>
      <path d="M 50 53.078125 
L 48.296875 44.578125 
Q 44.734375 46.53125 40.765625 47.5 
Q 36.8125 48.484375 32.625 48.484375 
Q 25.53125 48.484375 21.453125 46.0625 
Q 17.390625 43.65625 17.390625 39.5 
Q 17.390625 34.671875 26.859375 32.078125 
Q 27.59375 31.890625 27.9375 31.78125 
L 30.8125 30.90625 
Q 39.796875 28.421875 42.796875 25.6875 
Q 45.796875 22.953125 45.796875 18.21875 
Q 45.796875 9.515625 38.890625 4.046875 
Q 31.984375 -1.421875 20.796875 -1.421875 
Q 16.453125 -1.421875 11.671875 -0.578125 
Q 6.890625 0.25 1.125 2 
L 2.875 11.28125 
Q 7.8125 8.734375 12.59375 7.421875 
Q 17.390625 6.109375 21.78125 6.109375 
Q 28.375 6.109375 32.5 8.9375 
Q 36.625 11.765625 36.625 16.109375 
Q 36.625 20.796875 25.78125 23.6875 
L 24.859375 23.921875 
L 21.78125 24.703125 
Q 14.9375 26.515625 11.765625 29.46875 
Q 8.59375 32.421875 8.59375 37.015625 
Q 8.59375 45.75 15.15625 50.875 
Q 21.734375 56 33.015625 56 
Q 37.453125 56 41.671875 55.265625 
Q 45.90625 54.546875 50 53.078125 
z
" id="DejaVuSans-Oblique-73"/>
     </defs>
     <g transform="translate(556.1 109.058437)scale(0.1 -0.1)">
      <use transform="translate(0 0.125)" xlink:href="#DejaVuSans-Oblique-73"/>
      <use transform="translate(52.099609 0.125)" xlink:href="#DejaVuSans-28"/>
      <use transform="translate(91.113281 0.125)" xlink:href="#DejaVuSans-Oblique-74"/>
      <use transform="translate(130.322266 0.125)" xlink:href="#DejaVuSans-29"/>
     </g>
    </g>
    <g id="line2d_24">
     <path d="M 528.1 120.236562 
L 548.1 120.236562 
" style="fill:none;stroke:#cd5c5c;stroke-linecap:square;stroke-width:1.5;"/>
    </g>
    <g id="line2d_25"/>
    <g id="text_20">
     <!-- $n( t )$ -->
     <defs>
      <path d="M 55.71875 33.015625 
L 49.3125 0 
L 40.28125 0 
L 46.6875 32.671875 
Q 47.125 34.96875 47.359375 36.71875 
Q 47.609375 38.484375 47.609375 39.5 
Q 47.609375 43.609375 45.015625 45.890625 
Q 42.4375 48.1875 37.796875 48.1875 
Q 30.5625 48.1875 25.34375 43.375 
Q 20.125 38.578125 18.5 30.328125 
L 12.5 0 
L 3.515625 0 
L 14.109375 54.6875 
L 23.09375 54.6875 
L 21.296875 46.09375 
Q 25.046875 50.828125 30.3125 53.40625 
Q 35.59375 56 41.40625 56 
Q 48.640625 56 52.609375 52.09375 
Q 56.59375 48.1875 56.59375 41.109375 
Q 56.59375 39.359375 56.375 37.359375 
Q 56.15625 35.359375 55.71875 33.015625 
z
" id="DejaVuSans-Oblique-6e"/>
     </defs>
     <g transform="translate(556.1 123.736562)scale(0.1 -0.1)">
      <use transform="translate(0 0.125)" xlink:href="#DejaVuSans-Oblique-6e"/>
      <use transform="translate(63.378906 0.125)" xlink:href="#DejaVuSans-28"/>
      <use transform="translate(102.392578 0.125)" xlink:href="#DejaVuSans-Oblique-74"/>
      <use transform="translate(141.601562 0.125)" xlink:href="#DejaVuSans-29"/>
     </g>
    </g>
    <g id="line2d_26">
     <path d="M 528.1 134.914688 
L 548.1 134.914688 
" style="fill:none;stroke:#48d1cc;stroke-dasharray:1.5,2.475;stroke-dashoffset:0;stroke-width:1.5;"/>
    </g>
    <g id="line2d_27"/>
    <g id="text_21">
     <!-- $f( t )$ -->
     <g transform="translate(556.1 138.414688)scale(0.1 -0.1)">
      <use transform="translate(0 0.015625)" xlink:href="#DejaVuSans-Oblique-66"/>
      <use transform="translate(35.205078 0.015625)" xlink:href="#DejaVuSans-28"/>
      <use transform="translate(74.21875 0.015625)" xlink:href="#DejaVuSans-Oblique-74"/>
      <use transform="translate(113.427734 0.015625)" xlink:href="#DejaVuSans-29"/>
     </g>
    </g>
    <g id="line2d_28"/>
    <g id="line2d_29">
     <g>
      <use style="fill:#0000ff;stroke:#0000ff;" x="538.1" xlink:href="#mf8ab77b558" y="149.592813"/>
     </g>
    </g>
    <g id="text_22">
     <!-- $int$ -->
     <defs>
      <path d="M 18.3125 75.984375 
L 27.296875 75.984375 
L 25.09375 64.59375 
L 16.109375 64.59375 
z
M 14.203125 54.6875 
L 23.1875 54.6875 
L 12.5 0 
L 3.515625 0 
z
" id="DejaVuSans-Oblique-69"/>
     </defs>
     <g transform="translate(556.1 153.092813)scale(0.1 -0.1)">
      <use transform="translate(0 0.015625)" xlink:href="#DejaVuSans-Oblique-69"/>
      <use transform="translate(27.783203 0.015625)" xlink:href="#DejaVuSans-Oblique-6e"/>
      <use transform="translate(91.162109 0.015625)" xlink:href="#DejaVuSans-Oblique-74"/>
     </g>
    </g>
   </g>
  </g>
 </g>
 <defs>
  <clipPath id="p605f754842">
   <rect height="498.96" width="502.2" x="81" y="77.76"/>
  </clipPath>
 </defs>
</svg>
