<?xml version="1.0" encoding="utf-8" standalone="no"?>
<!DOCTYPE svg PUBLIC "-//W3C//DTD SVG 1.1//EN"
  "http://www.w3.org/Graphics/SVG/1.1/DTD/svg11.dtd">
<!-- Created with matplotlib (http://matplotlib.org/) -->
<svg height="648pt" version="1.1" viewBox="0 0 648 648" width="648pt" xmlns="http://www.w3.org/2000/svg" xmlns:xlink="http://www.w3.org/1999/xlink">
 <defs>
  <style type="text/css">
*{stroke-linecap:butt;stroke-linejoin:round;}
  </style>
 </defs>
 <g id="figure_1">
  <g id="patch_1">
   <path d="M 0 648 
L 648 648 
L 648 0 
L 0 0 
z
" style="fill:#ffffff;"/>
  </g>
  <g id="axes_1">
   <g id="patch_2">
    <path d="M 49.52 285.7975 
L 634.68 285.7975 
L 634.68 26.88 
L 49.52 26.88 
z
" style="fill:#ffffff;"/>
   </g>
   <g id="matplotlib.axis_1">
    <g id="xtick_1">
     <g id="line2d_1">
      <defs>
       <path d="M 0 0 
L 0 3.5 
" id="mc6347fdae9" style="stroke:#000000;stroke-width:0.8;"/>
      </defs>
      <g>
       <use style="stroke:#000000;stroke-width:0.8;" x="76.118182" xlink:href="#mc6347fdae9" y="285.7975"/>
      </g>
     </g>
     <g id="text_1">
      <!-- 0 -->
      <defs>
       <path d="M 31.78125 66.40625 
Q 24.171875 66.40625 20.328125 58.90625 
Q 16.5 51.421875 16.5 36.375 
Q 16.5 21.390625 20.328125 13.890625 
Q 24.171875 6.390625 31.78125 6.390625 
Q 39.453125 6.390625 43.28125 13.890625 
Q 47.125 21.390625 47.125 36.375 
Q 47.125 51.421875 43.28125 58.90625 
Q 39.453125 66.40625 31.78125 66.40625 
z
M 31.78125 74.21875 
Q 44.046875 74.21875 50.515625 64.515625 
Q 56.984375 54.828125 56.984375 36.375 
Q 56.984375 17.96875 50.515625 8.265625 
Q 44.046875 -1.421875 31.78125 -1.421875 
Q 19.53125 -1.421875 13.0625 8.265625 
Q 6.59375 17.96875 6.59375 36.375 
Q 6.59375 54.828125 13.0625 64.515625 
Q 19.53125 74.21875 31.78125 74.21875 
z
" id="DejaVuSans-30"/>
      </defs>
      <g transform="translate(72.936932 300.395938)scale(0.1 -0.1)">
       <use xlink:href="#DejaVuSans-30"/>
      </g>
     </g>
    </g>
    <g id="xtick_2">
     <g id="line2d_2">
      <g>
       <use style="stroke:#000000;stroke-width:0.8;" x="142.613636" xlink:href="#mc6347fdae9" y="285.7975"/>
      </g>
     </g>
     <g id="text_2">
      <!-- 0.25 -->
      <defs>
       <path d="M 10.6875 12.40625 
L 21 12.40625 
L 21 0 
L 10.6875 0 
z
" id="DejaVuSans-2e"/>
       <path d="M 19.1875 8.296875 
L 53.609375 8.296875 
L 53.609375 0 
L 7.328125 0 
L 7.328125 8.296875 
Q 12.9375 14.109375 22.625 23.890625 
Q 32.328125 33.6875 34.8125 36.53125 
Q 39.546875 41.84375 41.421875 45.53125 
Q 43.3125 49.21875 43.3125 52.78125 
Q 43.3125 58.59375 39.234375 62.25 
Q 35.15625 65.921875 28.609375 65.921875 
Q 23.96875 65.921875 18.8125 64.3125 
Q 13.671875 62.703125 7.8125 59.421875 
L 7.8125 69.390625 
Q 13.765625 71.78125 18.9375 73 
Q 24.125 74.21875 28.421875 74.21875 
Q 39.75 74.21875 46.484375 68.546875 
Q 53.21875 62.890625 53.21875 53.421875 
Q 53.21875 48.921875 51.53125 44.890625 
Q 49.859375 40.875 45.40625 35.40625 
Q 44.1875 33.984375 37.640625 27.21875 
Q 31.109375 20.453125 19.1875 8.296875 
z
" id="DejaVuSans-32"/>
       <path d="M 10.796875 72.90625 
L 49.515625 72.90625 
L 49.515625 64.59375 
L 19.828125 64.59375 
L 19.828125 46.734375 
Q 21.96875 47.46875 24.109375 47.828125 
Q 26.265625 48.1875 28.421875 48.1875 
Q 40.625 48.1875 47.75 41.5 
Q 54.890625 34.8125 54.890625 23.390625 
Q 54.890625 11.625 47.5625 5.09375 
Q 40.234375 -1.421875 26.90625 -1.421875 
Q 22.3125 -1.421875 17.546875 -0.640625 
Q 12.796875 0.140625 7.71875 1.703125 
L 7.71875 11.625 
Q 12.109375 9.234375 16.796875 8.0625 
Q 21.484375 6.890625 26.703125 6.890625 
Q 35.15625 6.890625 40.078125 11.328125 
Q 45.015625 15.765625 45.015625 23.390625 
Q 45.015625 31 40.078125 35.4375 
Q 35.15625 39.890625 26.703125 39.890625 
Q 22.75 39.890625 18.8125 39.015625 
Q 14.890625 38.140625 10.796875 36.28125 
z
" id="DejaVuSans-35"/>
      </defs>
      <g transform="translate(131.480824 300.395938)scale(0.1 -0.1)">
       <use xlink:href="#DejaVuSans-30"/>
       <use x="63.623047" xlink:href="#DejaVuSans-2e"/>
       <use x="95.410156" xlink:href="#DejaVuSans-32"/>
       <use x="159.033203" xlink:href="#DejaVuSans-35"/>
      </g>
     </g>
    </g>
    <g id="xtick_3">
     <g id="line2d_3">
      <g>
       <use style="stroke:#000000;stroke-width:0.8;" x="209.109091" xlink:href="#mc6347fdae9" y="285.7975"/>
      </g>
     </g>
     <g id="text_3">
      <!-- 0.5 -->
      <g transform="translate(201.157528 300.395938)scale(0.1 -0.1)">
       <use xlink:href="#DejaVuSans-30"/>
       <use x="63.623047" xlink:href="#DejaVuSans-2e"/>
       <use x="95.410156" xlink:href="#DejaVuSans-35"/>
      </g>
     </g>
    </g>
    <g id="xtick_4">
     <g id="line2d_4">
      <g>
       <use style="stroke:#000000;stroke-width:0.8;" x="275.604545" xlink:href="#mc6347fdae9" y="285.7975"/>
      </g>
     </g>
     <g id="text_4">
      <!-- 0.75 -->
      <defs>
       <path d="M 8.203125 72.90625 
L 55.078125 72.90625 
L 55.078125 68.703125 
L 28.609375 0 
L 18.3125 0 
L 43.21875 64.59375 
L 8.203125 64.59375 
z
" id="DejaVuSans-37"/>
      </defs>
      <g transform="translate(264.471733 300.395938)scale(0.1 -0.1)">
       <use xlink:href="#DejaVuSans-30"/>
       <use x="63.623047" xlink:href="#DejaVuSans-2e"/>
       <use x="95.410156" xlink:href="#DejaVuSans-37"/>
       <use x="159.033203" xlink:href="#DejaVuSans-35"/>
      </g>
     </g>
    </g>
    <g id="xtick_5">
     <g id="line2d_5">
      <g>
       <use style="stroke:#000000;stroke-width:0.8;" x="342.1" xlink:href="#mc6347fdae9" y="285.7975"/>
      </g>
     </g>
     <g id="text_5">
      <!-- 1 -->
      <defs>
       <path d="M 12.40625 8.296875 
L 28.515625 8.296875 
L 28.515625 63.921875 
L 10.984375 60.40625 
L 10.984375 69.390625 
L 28.421875 72.90625 
L 38.28125 72.90625 
L 38.28125 8.296875 
L 54.390625 8.296875 
L 54.390625 0 
L 12.40625 0 
z
" id="DejaVuSans-31"/>
      </defs>
      <g transform="translate(338.91875 300.395938)scale(0.1 -0.1)">
       <use xlink:href="#DejaVuSans-31"/>
      </g>
     </g>
    </g>
    <g id="xtick_6">
     <g id="line2d_6">
      <g>
       <use style="stroke:#000000;stroke-width:0.8;" x="408.595455" xlink:href="#mc6347fdae9" y="285.7975"/>
      </g>
     </g>
     <g id="text_6">
      <!-- 1.25 -->
      <g transform="translate(397.462642 300.395938)scale(0.1 -0.1)">
       <use xlink:href="#DejaVuSans-31"/>
       <use x="63.623047" xlink:href="#DejaVuSans-2e"/>
       <use x="95.410156" xlink:href="#DejaVuSans-32"/>
       <use x="159.033203" xlink:href="#DejaVuSans-35"/>
      </g>
     </g>
    </g>
    <g id="xtick_7">
     <g id="line2d_7">
      <g>
       <use style="stroke:#000000;stroke-width:0.8;" x="475.090909" xlink:href="#mc6347fdae9" y="285.7975"/>
      </g>
     </g>
     <g id="text_7">
      <!-- 1.5 -->
      <g transform="translate(467.139347 300.395938)scale(0.1 -0.1)">
       <use xlink:href="#DejaVuSans-31"/>
       <use x="63.623047" xlink:href="#DejaVuSans-2e"/>
       <use x="95.410156" xlink:href="#DejaVuSans-35"/>
      </g>
     </g>
    </g>
    <g id="xtick_8">
     <g id="line2d_8">
      <g>
       <use style="stroke:#000000;stroke-width:0.8;" x="541.586364" xlink:href="#mc6347fdae9" y="285.7975"/>
      </g>
     </g>
     <g id="text_8">
      <!-- 1.75 -->
      <g transform="translate(530.453551 300.395938)scale(0.1 -0.1)">
       <use xlink:href="#DejaVuSans-31"/>
       <use x="63.623047" xlink:href="#DejaVuSans-2e"/>
       <use x="95.410156" xlink:href="#DejaVuSans-37"/>
       <use x="159.033203" xlink:href="#DejaVuSans-35"/>
      </g>
     </g>
    </g>
    <g id="xtick_9">
     <g id="line2d_9">
      <g>
       <use style="stroke:#000000;stroke-width:0.8;" x="608.081818" xlink:href="#mc6347fdae9" y="285.7975"/>
      </g>
     </g>
     <g id="text_9">
      <!-- 2 -->
      <g transform="translate(604.900568 300.395938)scale(0.1 -0.1)">
       <use xlink:href="#DejaVuSans-32"/>
      </g>
     </g>
    </g>
    <g id="text_10">
     <!-- $t\ [rad/\pi]$ -->
     <defs>
      <path d="M 42.28125 54.6875 
L 40.921875 47.703125 
L 23 47.703125 
L 17.1875 18.015625 
Q 16.890625 16.359375 16.75 15.234375 
Q 16.609375 14.109375 16.609375 13.484375 
Q 16.609375 10.359375 18.484375 8.9375 
Q 20.359375 7.515625 24.515625 7.515625 
L 33.59375 7.515625 
L 32.078125 0 
L 23.484375 0 
Q 15.484375 0 11.546875 3.125 
Q 7.625 6.25 7.625 12.59375 
Q 7.625 13.71875 7.765625 15.0625 
Q 7.90625 16.40625 8.203125 18.015625 
L 14.015625 47.703125 
L 6.390625 47.703125 
L 7.8125 54.6875 
L 15.28125 54.6875 
L 18.3125 70.21875 
L 27.296875 70.21875 
L 24.3125 54.6875 
z
" id="DejaVuSans-Oblique-74"/>
      <path d="M 8.59375 75.984375 
L 29.296875 75.984375 
L 29.296875 69 
L 17.578125 69 
L 17.578125 -6.203125 
L 29.296875 -6.203125 
L 29.296875 -13.1875 
L 8.59375 -13.1875 
z
" id="DejaVuSans-5b"/>
      <path d="M 44.578125 46.390625 
Q 43.21875 47.125 41.453125 47.515625 
Q 39.703125 47.90625 37.703125 47.90625 
Q 30.515625 47.90625 25.140625 42.453125 
Q 19.78125 37.015625 18.015625 27.875 
L 12.5 0 
L 3.515625 0 
L 14.203125 54.6875 
L 23.1875 54.6875 
L 21.484375 46.1875 
Q 25.046875 50.921875 30 53.453125 
Q 34.96875 56 40.578125 56 
Q 42.046875 56 43.453125 55.828125 
Q 44.875 55.671875 46.296875 55.28125 
z
" id="DejaVuSans-Oblique-72"/>
      <path d="M 53.71875 31.203125 
L 47.609375 0 
L 38.625 0 
L 40.28125 8.296875 
Q 36.328125 3.421875 31.265625 1 
Q 26.21875 -1.421875 20.015625 -1.421875 
Q 13.03125 -1.421875 8.5625 2.84375 
Q 4.109375 7.125 4.109375 13.8125 
Q 4.109375 23.390625 11.75 28.953125 
Q 19.390625 34.515625 32.8125 34.515625 
L 45.3125 34.515625 
L 45.796875 36.921875 
Q 45.90625 37.3125 45.953125 37.765625 
Q 46 38.234375 46 39.203125 
Q 46 43.5625 42.453125 45.96875 
Q 38.921875 48.390625 32.515625 48.390625 
Q 28.125 48.390625 23.5 47.265625 
Q 18.890625 46.140625 14.015625 43.890625 
L 15.578125 52.203125 
Q 20.65625 54.109375 25.515625 55.046875 
Q 30.375 56 34.90625 56 
Q 44.578125 56 49.625 51.796875 
Q 54.6875 47.609375 54.6875 39.59375 
Q 54.6875 37.984375 54.4375 35.8125 
Q 54.203125 33.640625 53.71875 31.203125 
z
M 44 27.484375 
L 35.015625 27.484375 
Q 23.96875 27.484375 18.671875 24.53125 
Q 13.375 21.578125 13.375 15.375 
Q 13.375 11.078125 16.078125 8.640625 
Q 18.796875 6.203125 23.578125 6.203125 
Q 30.90625 6.203125 36.375 11.453125 
Q 41.84375 16.703125 43.609375 25.484375 
z
" id="DejaVuSans-Oblique-61"/>
      <path d="M 41.796875 8.203125 
Q 38.1875 3.46875 33.25 1.015625 
Q 28.328125 -1.421875 22.3125 -1.421875 
Q 14.109375 -1.421875 9.34375 4.171875 
Q 4.59375 9.765625 4.59375 19.484375 
Q 4.59375 27.59375 7.46875 34.9375 
Q 10.359375 42.28125 15.828125 48.09375 
Q 19.4375 51.953125 23.96875 53.96875 
Q 28.515625 56 33.5 56 
Q 38.765625 56 42.796875 53.453125 
Q 46.828125 50.921875 49.03125 46.1875 
L 54.890625 75.984375 
L 63.921875 75.984375 
L 49.125 0 
L 40.09375 0 
z
M 13.921875 21.09375 
Q 13.921875 14.015625 17.109375 10.0625 
Q 20.3125 6.109375 25.984375 6.109375 
Q 30.171875 6.109375 33.765625 8.125 
Q 37.359375 10.15625 40.09375 14.109375 
Q 42.96875 18.21875 44.625 23.578125 
Q 46.296875 28.953125 46.296875 34.1875 
Q 46.296875 40.96875 43.09375 44.765625 
Q 39.890625 48.578125 34.28125 48.578125 
Q 30.03125 48.578125 26.359375 46.578125 
Q 22.703125 44.578125 20.125 40.828125 
Q 17.28125 36.765625 15.59375 31.390625 
Q 13.921875 26.03125 13.921875 21.09375 
z
" id="DejaVuSans-Oblique-64"/>
      <path d="M 25.390625 72.90625 
L 33.6875 72.90625 
L 8.296875 -9.28125 
L 0 -9.28125 
z
" id="DejaVuSans-2f"/>
      <path d="M 9.125 54.6875 
L 61.53125 54.6875 
L 59.765625 45.703125 
L 52.875 45.703125 
L 46.34375 12.109375 
Q 45.65625 8.59375 46.578125 7.03125 
Q 47.46875 5.515625 50.140625 5.515625 
Q 50.875 5.515625 51.953125 5.671875 
Q 53.078125 5.765625 53.421875 5.8125 
L 52.15625 -0.6875 
Q 50.34375 -1.3125 48.484375 -1.609375 
Q 46.578125 -1.90625 44.78125 -1.90625 
Q 38.921875 -1.90625 37.3125 1.265625 
Q 35.6875 4.5 37.359375 13.09375 
L 43.703125 45.703125 
L 23.53125 45.703125 
L 14.65625 0 
L 5.46875 0 
L 14.359375 45.703125 
L 7.375 45.703125 
z
" id="DejaVuSans-Oblique-3c0"/>
      <path d="M 30.421875 75.984375 
L 30.421875 -13.1875 
L 9.71875 -13.1875 
L 9.71875 -6.203125 
L 21.390625 -6.203125 
L 21.390625 69 
L 9.71875 69 
L 9.71875 75.984375 
z
" id="DejaVuSans-5d"/>
     </defs>
     <g transform="translate(321.6 314.074063)scale(0.1 -0.1)">
      <use transform="translate(0 0.015625)" xlink:href="#DejaVuSans-Oblique-74"/>
      <use transform="translate(71.679363 0.015625)" xlink:href="#DejaVuSans-5b"/>
      <use transform="translate(110.693035 0.015625)" xlink:href="#DejaVuSans-Oblique-72"/>
      <use transform="translate(151.806316 0.015625)" xlink:href="#DejaVuSans-Oblique-61"/>
      <use transform="translate(213.085613 0.015625)" xlink:href="#DejaVuSans-Oblique-64"/>
      <use transform="translate(276.562175 0.015625)" xlink:href="#DejaVuSans-2f"/>
      <use transform="translate(310.253582 0.015625)" xlink:href="#DejaVuSans-Oblique-3c0"/>
      <use transform="translate(370.45866 0.015625)" xlink:href="#DejaVuSans-5d"/>
     </g>
    </g>
   </g>
   <g id="matplotlib.axis_2">
    <g id="ytick_1">
     <g id="line2d_10">
      <defs>
       <path d="M 0 0 
L -3.5 0 
" id="mb7483b704f" style="stroke:#000000;stroke-width:0.8;"/>
      </defs>
      <g>
       <use style="stroke:#000000;stroke-width:0.8;" x="49.52" xlink:href="#mb7483b704f" y="284.974363"/>
      </g>
     </g>
     <g id="text_11">
      <!-- −4 -->
      <defs>
       <path d="M 10.59375 35.5 
L 73.1875 35.5 
L 73.1875 27.203125 
L 10.59375 27.203125 
z
" id="DejaVuSans-2212"/>
       <path d="M 37.796875 64.3125 
L 12.890625 25.390625 
L 37.796875 25.390625 
z
M 35.203125 72.90625 
L 47.609375 72.90625 
L 47.609375 25.390625 
L 58.015625 25.390625 
L 58.015625 17.1875 
L 47.609375 17.1875 
L 47.609375 0 
L 37.796875 0 
L 37.796875 17.1875 
L 4.890625 17.1875 
L 4.890625 26.703125 
z
" id="DejaVuSans-34"/>
      </defs>
      <g transform="translate(27.777813 288.773582)scale(0.1 -0.1)">
       <use xlink:href="#DejaVuSans-2212"/>
       <use x="83.789062" xlink:href="#DejaVuSans-34"/>
      </g>
     </g>
    </g>
    <g id="ytick_2">
     <g id="line2d_11">
      <g>
       <use style="stroke:#000000;stroke-width:0.8;" x="49.52" xlink:href="#mb7483b704f" y="237.065981"/>
      </g>
     </g>
     <g id="text_12">
      <!-- −2 -->
      <g transform="translate(27.777813 240.8652)scale(0.1 -0.1)">
       <use xlink:href="#DejaVuSans-2212"/>
       <use x="83.789062" xlink:href="#DejaVuSans-32"/>
      </g>
     </g>
    </g>
    <g id="ytick_3">
     <g id="line2d_12">
      <g>
       <use style="stroke:#000000;stroke-width:0.8;" x="49.52" xlink:href="#mb7483b704f" y="189.157599"/>
      </g>
     </g>
     <g id="text_13">
      <!-- 0 -->
      <g transform="translate(36.1575 192.956817)scale(0.1 -0.1)">
       <use xlink:href="#DejaVuSans-30"/>
      </g>
     </g>
    </g>
    <g id="ytick_4">
     <g id="line2d_13">
      <g>
       <use style="stroke:#000000;stroke-width:0.8;" x="49.52" xlink:href="#mb7483b704f" y="141.249217"/>
      </g>
     </g>
     <g id="text_14">
      <!-- 2 -->
      <g transform="translate(36.1575 145.048435)scale(0.1 -0.1)">
       <use xlink:href="#DejaVuSans-32"/>
      </g>
     </g>
    </g>
    <g id="ytick_5">
     <g id="line2d_14">
      <g>
       <use style="stroke:#000000;stroke-width:0.8;" x="49.52" xlink:href="#mb7483b704f" y="93.340834"/>
      </g>
     </g>
     <g id="text_15">
      <!-- 4 -->
      <g transform="translate(36.1575 97.140053)scale(0.1 -0.1)">
       <use xlink:href="#DejaVuSans-34"/>
      </g>
     </g>
    </g>
    <g id="ytick_6">
     <g id="line2d_15">
      <g>
       <use style="stroke:#000000;stroke-width:0.8;" x="49.52" xlink:href="#mb7483b704f" y="45.432452"/>
      </g>
     </g>
     <g id="text_16">
      <!-- 6 -->
      <defs>
       <path d="M 33.015625 40.375 
Q 26.375 40.375 22.484375 35.828125 
Q 18.609375 31.296875 18.609375 23.390625 
Q 18.609375 15.53125 22.484375 10.953125 
Q 26.375 6.390625 33.015625 6.390625 
Q 39.65625 6.390625 43.53125 10.953125 
Q 47.40625 15.53125 47.40625 23.390625 
Q 47.40625 31.296875 43.53125 35.828125 
Q 39.65625 40.375 33.015625 40.375 
z
M 52.59375 71.296875 
L 52.59375 62.3125 
Q 48.875 64.0625 45.09375 64.984375 
Q 41.3125 65.921875 37.59375 65.921875 
Q 27.828125 65.921875 22.671875 59.328125 
Q 17.53125 52.734375 16.796875 39.40625 
Q 19.671875 43.65625 24.015625 45.921875 
Q 28.375 48.1875 33.59375 48.1875 
Q 44.578125 48.1875 50.953125 41.515625 
Q 57.328125 34.859375 57.328125 23.390625 
Q 57.328125 12.15625 50.6875 5.359375 
Q 44.046875 -1.421875 33.015625 -1.421875 
Q 20.359375 -1.421875 13.671875 8.265625 
Q 6.984375 17.96875 6.984375 36.375 
Q 6.984375 53.65625 15.1875 63.9375 
Q 23.390625 74.21875 37.203125 74.21875 
Q 40.921875 74.21875 44.703125 73.484375 
Q 48.484375 72.75 52.59375 71.296875 
z
" id="DejaVuSans-36"/>
      </defs>
      <g transform="translate(36.1575 49.231671)scale(0.1 -0.1)">
       <use xlink:href="#DejaVuSans-36"/>
      </g>
     </g>
    </g>
    <g id="text_17">
     <!-- $y( t )\ [1]$ -->
     <defs>
      <path d="M 24.8125 -5.078125 
Q 18.5625 -15.578125 14.625 -18.1875 
Q 10.6875 -20.796875 4.59375 -20.796875 
L -2.484375 -20.796875 
L -0.984375 -13.28125 
L 4.203125 -13.28125 
Q 7.953125 -13.28125 10.59375 -11.234375 
Q 13.234375 -9.1875 16.5 -3.21875 
L 19.28125 2 
L 7.171875 54.6875 
L 16.703125 54.6875 
L 25.78125 12.796875 
L 50.875 54.6875 
L 60.296875 54.6875 
z
" id="DejaVuSans-Oblique-79"/>
      <path d="M 31 75.875 
Q 24.46875 64.65625 21.28125 53.65625 
Q 18.109375 42.671875 18.109375 31.390625 
Q 18.109375 20.125 21.3125 9.0625 
Q 24.515625 -2 31 -13.1875 
L 23.1875 -13.1875 
Q 15.875 -1.703125 12.234375 9.375 
Q 8.59375 20.453125 8.59375 31.390625 
Q 8.59375 42.28125 12.203125 53.3125 
Q 15.828125 64.359375 23.1875 75.875 
z
" id="DejaVuSans-28"/>
      <path d="M 8.015625 75.875 
L 15.828125 75.875 
Q 23.140625 64.359375 26.78125 53.3125 
Q 30.421875 42.28125 30.421875 31.390625 
Q 30.421875 20.453125 26.78125 9.375 
Q 23.140625 -1.703125 15.828125 -13.1875 
L 8.015625 -13.1875 
Q 14.5 -2 17.703125 9.0625 
Q 20.90625 20.125 20.90625 31.390625 
Q 20.90625 42.671875 17.703125 53.65625 
Q 14.5 64.65625 8.015625 75.875 
z
" id="DejaVuSans-29"/>
     </defs>
     <g transform="translate(21.677813 173.88875)rotate(-90)scale(0.1 -0.1)">
      <use transform="translate(0 0.015625)" xlink:href="#DejaVuSans-Oblique-79"/>
      <use transform="translate(59.179688 0.015625)" xlink:href="#DejaVuSans-28"/>
      <use transform="translate(98.193359 0.015625)" xlink:href="#DejaVuSans-Oblique-74"/>
      <use transform="translate(137.402344 0.015625)" xlink:href="#DejaVuSans-29"/>
      <use transform="translate(208.886394 0.015625)" xlink:href="#DejaVuSans-5b"/>
      <use transform="translate(247.900066 0.015625)" xlink:href="#DejaVuSans-31"/>
      <use transform="translate(311.523113 0.015625)" xlink:href="#DejaVuSans-5d"/>
     </g>
    </g>
   </g>
   <g id="line2d_16">
    <path clip-path="url(#p794a2dd22a)" d="M 76.118182 189.157599 
L 78.597157 192.28916 
L 80.937821 194.895581 
L 83.16677 197.051313 
L 85.299966 198.810565 
L 87.353366 200.220576 
L 89.34293 201.321188 
L 91.284617 202.144788 
L 93.199705 202.717739 
L 95.104154 203.056245 
L 97.013922 203.170019 
L 98.950289 203.062129 
L 100.934534 202.727749 
L 102.993253 202.153157 
L 105.153047 201.316205 
L 107.445834 200.184914 
L 109.91417 198.713554 
L 112.616572 196.837226 
L 115.654115 194.449324 
L 119.239585 191.335692 
L 124.048585 186.840284 
L 134.608169 176.890649 
L 138.438345 173.642714 
L 141.709954 171.152596 
L 144.662382 169.179194 
L 147.396702 167.614402 
L 149.976752 166.390419 
L 152.445088 165.462868 
L 154.828309 164.802233 
L 157.163652 164.384173 
L 159.467078 164.196588 
L 161.770503 164.232029 
L 164.095208 164.491224 
L 166.46247 164.980487 
L 168.898887 165.713149 
L 171.436379 166.711278 
L 174.106864 168.004002 
L 176.963537 169.638521 
L 180.070236 171.678202 
L 183.538673 174.228963 
L 187.597596 177.501092 
L 192.938565 182.114245 
L 206.455896 193.91031 
L 210.988271 197.493671 
L 214.993997 200.382778 
L 218.72842 202.806203 
L 222.31921 204.874146 
L 225.856804 206.656137 
L 229.415676 208.199973 
L 233.080942 209.546838 
L 236.985594 210.742208 
L 241.369018 211.845731 
L 246.960012 213.008707 
L 259.557037 215.554863 
L 263.940461 216.722112 
L 267.797236 217.976819 
L 271.398666 219.381423 
L 274.867103 220.97284 
L 278.287664 222.787636 
L 281.729503 224.867113 
L 285.256457 227.260506 
L 288.948322 230.038812 
L 292.906171 233.301151 
L 297.332153 237.245932 
L 302.742277 242.382138 
L 319.946153 258.948761 
L 324.036994 262.437572 
L 327.622465 265.209783 
L 330.883435 267.455613 
L 333.920977 269.282201 
L 336.79361 270.754097 
L 339.549209 271.918981 
L 342.214373 272.806688 
L 344.821021 273.4426 
L 347.401071 273.843946 
L 349.970481 274.019148 
L 352.56117 273.972814 
L 355.199736 273.702291 
L 357.918097 273.198172 
L 360.748172 272.44483 
L 363.743157 271.414017 
L 366.961569 270.067016 
L 370.515122 268.333106 
L 374.605963 266.081303 
L 379.787341 262.959727 
L 397.086971 252.333195 
L 401.837454 249.799955 
L 406.284714 247.678196 
L 410.705376 245.815629 
L 415.370744 244.094658 
L 420.850024 242.320837 
L 435.463212 237.725738 
L 439.293388 236.195137 
L 442.644793 234.619187 
L 445.730212 232.923775 
L 448.650722 231.065106 
L 451.464838 229.00999 
L 454.220437 226.72108 
L 456.954757 224.158283 
L 459.689078 221.287774 
L 462.449997 218.063631 
L 465.264113 214.431172 
L 468.152704 210.334548 
L 471.147689 205.69492 
L 474.280986 200.423498 
L 477.600473 194.394408 
L 481.169984 187.439785 
L 485.117194 179.248621 
L 489.702766 169.19988 
L 495.884246 155.070299 
L 506.757691 130.175687 
L 511.141115 120.751158 
L 514.763824 113.472772 
L 517.939679 107.576944 
L 520.801672 102.720226 
L 523.418959 98.704903 
L 525.844737 95.380684 
L 528.105605 92.650981 
L 530.222842 90.434756 
L 532.223045 88.656006 
L 534.116855 87.263137 
L 535.925549 86.203954 
L 537.659768 85.441684 
L 539.34079 84.942544 
L 540.984574 84.684561 
L 542.607079 84.653922 
L 544.229584 84.845819 
L 545.868049 85.264541 
L 547.543751 85.924712 
L 549.27265 86.848615 
L 551.070705 88.066488 
L 552.953875 89.616465 
L 554.938119 91.54432 
L 557.039397 93.902907 
L 559.278986 96.758271 
L 561.688806 100.199925 
L 564.300773 104.328318 
L 567.168086 109.287916 
L 570.381178 115.304022 
L 574.1156 122.786706 
L 578.871403 132.846298 
L 593.686738 164.541996 
L 597.506275 171.981261 
L 600.825762 177.97361 
L 603.820747 182.93299 
L 606.576346 187.076306 
L 608.081818 189.157599 
L 608.081818 189.157599 
" style="fill:none;stroke:#4169e1;stroke-linecap:square;stroke-width:1.5;"/>
   </g>
   <g id="line2d_17">
    <path clip-path="url(#p794a2dd22a)" d="M 76.118182 189.157599 
L 78.144984 191.312998 
L 80.134547 193.109806 
L 82.097513 194.587597 
L 84.044519 195.778188 
L 85.980886 196.704411 
L 87.922573 197.388889 
L 89.885538 197.846423 
L 91.891061 198.085368 
L 93.955101 198.106207 
L 96.098936 197.903924 
L 98.354484 197.465147 
L 100.753664 196.768243 
L 103.339033 195.781254 
L 106.174428 194.455504 
L 109.371561 192.708072 
L 113.15918 190.373982 
L 118.351197 186.88959 
L 127.990475 180.392304 
L 131.852569 178.088252 
L 135.070982 176.419926 
L 138.00745 175.146404 
L 140.970517 174.103055 
L 143.970822 173.281903 
L 147.024324 172.676648 
L 150.146982 172.284688 
L 153.360074 172.106477 
L 156.679561 172.146249 
L 160.137359 172.411849 
L 163.760067 172.915234 
L 167.590244 173.674329 
L 171.691724 174.717213 
L 176.144305 176.082866 
L 181.102255 177.841686 
L 186.863479 180.129566 
L 194.3802 183.370904 
L 205.067457 188.226336 
L 214.972719 192.968473 
L 224.303454 197.680281 
L 233.187336 202.414011 
L 241.714798 207.208493 
L 249.954997 212.095716 
L 258.056884 217.160491 
L 268.004704 223.660542 
L 297.454505 243.073126 
L 305.242531 247.83696 
L 311.993217 251.711042 
L 318.100221 254.963479 
L 323.781649 257.740997 
L 329.127937 260.110298 
L 334.192281 262.114426 
L 339.02256 263.789539 
L 343.656009 265.163227 
L 348.113909 266.254939 
L 352.422858 267.082918 
L 356.598814 267.660459 
L 360.663057 267.99925 
L 364.626225 268.107566 
L 368.504279 267.992061 
L 372.313177 267.656643 
L 376.132714 267.095371 
L 380.042686 266.294768 
L 384.059051 265.243836 
L 388.19245 263.93083 
L 392.464161 262.3386 
L 396.890143 260.449223 
L 401.486354 258.243123 
L 406.284714 255.690616 
L 411.306501 252.764618 
L 416.594273 249.423205 
L 422.195906 245.616859 
L 428.175237 241.281075 
L 434.516307 236.406116 
L 440.176457 231.781484 
L 445.304637 227.306805 
L 450.092358 222.835445 
L 454.640692 218.283825 
L 459.013477 213.592997 
L 463.25327 208.717943 
L 467.391988 203.619108 
L 471.450912 198.264656 
L 475.456638 192.610395 
L 479.419806 186.629093 
L 483.351057 180.290855 
L 487.261029 173.562518 
L 491.171001 166.387908 
L 495.64486 157.684858 
L 502.134881 144.517613 
L 511.56669 125.43027 
L 516.088427 116.802043 
L 519.80157 110.180286 
L 523.035941 104.853327 
L 525.929852 100.503097 
L 528.557779 96.942553 
L 530.972918 94.035167 
L 533.201868 91.691312 
L 535.271227 89.830158 
L 537.202274 88.385607 
L 539.010969 87.303741 
L 540.718589 86.535776 
L 542.346414 86.043746 
L 543.905083 85.801668 
L 545.421195 85.78972 
L 546.910708 86.000596 
L 548.389582 86.435917 
L 549.879095 87.108934 
L 551.443083 88.065559 
L 553.102827 89.347409 
L 554.879603 91.007463 
L 556.794691 93.109589 
L 558.86405 95.720249 
L 561.114279 98.92624 
L 563.582615 102.840236 
L 566.322255 107.613643 
L 569.412995 113.460139 
L 573.014425 120.766994 
L 577.55212 130.507023 
L 593.564385 165.34092 
L 597.0807 172.195195 
L 600.112923 177.634032 
L 602.804686 182.019239 
L 605.235784 185.566917 
L 607.448775 188.414905 
L 608.081818 189.157599 
L 608.081818 189.157599 
" style="fill:none;stroke:#ff4500;stroke-linecap:square;stroke-width:1.5;"/>
   </g>
   <g id="line2d_18">
    <path clip-path="url(#p794a2dd22a)" d="M 76.118182 189.157599 
L 94.157249 184.16921 
L 103.801846 181.740047 
L 111.914373 179.921591 
L 119.202348 178.512348 
L 125.958353 177.429895 
L 132.331341 176.631866 
L 138.427706 176.090996 
L 144.311282 175.791038 
L 150.029949 175.720988 
L 155.631582 175.873977 
L 161.1481 176.246715 
L 166.606101 176.838189 
L 172.032185 177.649819 
L 177.452948 178.68566 
L 182.894991 179.952511 
L 188.379591 181.458342 
L 193.933347 183.21467 
L 199.588177 185.237457 
L 205.375999 187.545609 
L 211.334051 190.162856 
L 217.51553 193.123271 
L 223.989593 196.473046 
L 230.851992 200.277367 
L 238.26232 204.64394 
L 246.513158 209.770179 
L 256.285428 216.114271 
L 270.941173 225.929381 
L 287.517325 236.963779 
L 296.725708 242.822991 
L 304.375421 247.432957 
L 311.158026 251.265678 
L 317.355464 254.516556 
L 323.127327 257.296546 
L 328.56405 259.67129 
L 333.729468 261.687704 
L 338.67678 263.382664 
L 343.437902 264.780999 
L 348.044753 265.904283 
L 352.523932 266.769176 
L 356.896717 267.388212 
L 361.179067 267.770761 
L 365.386941 267.924166 
L 369.536299 267.853518 
L 373.643099 267.56146 
L 377.717981 267.048848 
L 381.776905 266.313869 
L 385.825188 265.354697 
L 389.884111 264.163857 
L 393.958994 262.735733 
L 398.060474 261.0618 
L 402.204512 259.12908 
L 406.396428 256.927439 
L 410.65218 254.439682 
L 414.982407 251.649215 
L 419.403069 248.533908 
L 423.924805 245.073094 
L 428.563574 241.240268 
L 433.340655 237.001758 
L 438.272008 232.325899 
L 443.384229 227.168617 
L 448.709239 221.47684 
L 454.284273 215.188035 
L 460.16253 208.217413 
L 466.429125 200.435741 
L 473.201089 191.66511 
L 480.685893 181.598827 
L 489.330388 169.587402 
L 500.528335 153.620452 
L 526.605453 116.303515 
L 535.0478 104.700607 
L 542.208102 95.228512 
L 548.59173 87.144789 
L 554.432749 80.100484 
L 559.853513 73.905557 
L 564.939136 68.426145 
L 569.742816 63.57258 
L 574.307109 59.272516 
L 578.663935 55.469272 
L 582.839891 52.115391 
L 586.850937 49.175416 
L 590.718351 46.61279 
L 594.463413 44.395166 
L 598.091441 42.502517 
L 601.618395 40.91072 
L 605.060235 39.599171 
L 608.081818 38.648977 
L 608.081818 38.648977 
" style="fill:none;stroke:#48d1cc;stroke-dasharray:1.5,2.475;stroke-dashoffset:0;stroke-width:1.5;"/>
   </g>
   <g id="line2d_19">
    <defs>
     <path d="M 0 3 
C 0.795609 3 1.55874 2.683901 2.12132 2.12132 
C 2.683901 1.55874 3 0.795609 3 0 
C 3 -0.795609 2.683901 -1.55874 2.12132 -2.12132 
C 1.55874 -2.683901 0.795609 -3 0 -3 
C -0.795609 -3 -1.55874 -2.683901 -2.12132 -2.12132 
C -2.683901 -1.55874 -3 -0.795609 -3 0 
C -3 0.795609 -2.683901 1.55874 -2.12132 2.12132 
C -1.55874 2.683901 -0.795609 3 0 3 
z
" id="ma523cf57f0" style="stroke:#0000ff;"/>
    </defs>
    <g clip-path="url(#p794a2dd22a)">
     <use style="fill:#0000ff;stroke:#0000ff;" x="76.118182" xlink:href="#ma523cf57f0" y="189.157599"/>
     <use style="fill:#0000ff;stroke:#0000ff;" x="135.225253" xlink:href="#ma523cf57f0" y="176.346899"/>
     <use style="fill:#0000ff;stroke:#0000ff;" x="194.332323" xlink:href="#ma523cf57f0" y="183.349699"/>
     <use style="fill:#0000ff;stroke:#0000ff;" x="253.439394" xlink:href="#ma523cf57f0" y="214.242369"/>
     <use style="fill:#0000ff;stroke:#0000ff;" x="312.546465" xlink:href="#ma523cf57f0" y="252.016195"/>
     <use style="fill:#0000ff;stroke:#0000ff;" x="371.653535" xlink:href="#ma523cf57f0" y="267.730844"/>
     <use style="fill:#0000ff;stroke:#0000ff;" x="430.760606" xlink:href="#ma523cf57f0" y="239.327139"/>
     <use style="fill:#0000ff;stroke:#0000ff;" x="489.867677" xlink:href="#ma523cf57f0" y="168.82995"/>
     <use style="fill:#0000ff;stroke:#0000ff;" x="548.974747" xlink:href="#ma523cf57f0" y="86.672005"/>
    </g>
   </g>
   <g id="patch_3">
    <path d="M 49.52 285.7975 
L 49.52 26.88 
" style="fill:none;stroke:#000000;stroke-linecap:square;stroke-linejoin:miter;stroke-width:0.8;"/>
   </g>
   <g id="patch_4">
    <path d="M 634.68 285.7975 
L 634.68 26.88 
" style="fill:none;stroke:#000000;stroke-linecap:square;stroke-linejoin:miter;stroke-width:0.8;"/>
   </g>
   <g id="patch_5">
    <path d="M 49.52 285.7975 
L 634.68 285.7975 
" style="fill:none;stroke:#000000;stroke-linecap:square;stroke-linejoin:miter;stroke-width:0.8;"/>
   </g>
   <g id="patch_6">
    <path d="M 49.52 26.88 
L 634.68 26.88 
" style="fill:none;stroke:#000000;stroke-linecap:square;stroke-linejoin:miter;stroke-width:0.8;"/>
   </g>
   <g id="text_18">
    <!-- Equidistant interpolation of $f_x$: -->
    <defs>
     <path d="M 9.8125 72.90625 
L 55.90625 72.90625 
L 55.90625 64.59375 
L 19.671875 64.59375 
L 19.671875 43.015625 
L 54.390625 43.015625 
L 54.390625 34.71875 
L 19.671875 34.71875 
L 19.671875 8.296875 
L 56.78125 8.296875 
L 56.78125 0 
L 9.8125 0 
z
" id="DejaVuSans-45"/>
     <path d="M 14.796875 27.296875 
Q 14.796875 17.390625 18.875 11.75 
Q 22.953125 6.109375 30.078125 6.109375 
Q 37.203125 6.109375 41.296875 11.75 
Q 45.40625 17.390625 45.40625 27.296875 
Q 45.40625 37.203125 41.296875 42.84375 
Q 37.203125 48.484375 30.078125 48.484375 
Q 22.953125 48.484375 18.875 42.84375 
Q 14.796875 37.203125 14.796875 27.296875 
z
M 45.40625 8.203125 
Q 42.578125 3.328125 38.25 0.953125 
Q 33.9375 -1.421875 27.875 -1.421875 
Q 17.96875 -1.421875 11.734375 6.484375 
Q 5.515625 14.40625 5.515625 27.296875 
Q 5.515625 40.1875 11.734375 48.09375 
Q 17.96875 56 27.875 56 
Q 33.9375 56 38.25 53.625 
Q 42.578125 51.265625 45.40625 46.390625 
L 45.40625 54.6875 
L 54.390625 54.6875 
L 54.390625 -20.796875 
L 45.40625 -20.796875 
z
" id="DejaVuSans-71"/>
     <path d="M 8.5 21.578125 
L 8.5 54.6875 
L 17.484375 54.6875 
L 17.484375 21.921875 
Q 17.484375 14.15625 20.5 10.265625 
Q 23.53125 6.390625 29.59375 6.390625 
Q 36.859375 6.390625 41.078125 11.03125 
Q 45.3125 15.671875 45.3125 23.6875 
L 45.3125 54.6875 
L 54.296875 54.6875 
L 54.296875 0 
L 45.3125 0 
L 45.3125 8.40625 
Q 42.046875 3.421875 37.71875 1 
Q 33.40625 -1.421875 27.6875 -1.421875 
Q 18.265625 -1.421875 13.375 4.4375 
Q 8.5 10.296875 8.5 21.578125 
z
M 31.109375 56 
z
" id="DejaVuSans-75"/>
     <path d="M 9.421875 54.6875 
L 18.40625 54.6875 
L 18.40625 0 
L 9.421875 0 
z
M 9.421875 75.984375 
L 18.40625 75.984375 
L 18.40625 64.59375 
L 9.421875 64.59375 
z
" id="DejaVuSans-69"/>
     <path d="M 45.40625 46.390625 
L 45.40625 75.984375 
L 54.390625 75.984375 
L 54.390625 0 
L 45.40625 0 
L 45.40625 8.203125 
Q 42.578125 3.328125 38.25 0.953125 
Q 33.9375 -1.421875 27.875 -1.421875 
Q 17.96875 -1.421875 11.734375 6.484375 
Q 5.515625 14.40625 5.515625 27.296875 
Q 5.515625 40.1875 11.734375 48.09375 
Q 17.96875 56 27.875 56 
Q 33.9375 56 38.25 53.625 
Q 42.578125 51.265625 45.40625 46.390625 
z
M 14.796875 27.296875 
Q 14.796875 17.390625 18.875 11.75 
Q 22.953125 6.109375 30.078125 6.109375 
Q 37.203125 6.109375 41.296875 11.75 
Q 45.40625 17.390625 45.40625 27.296875 
Q 45.40625 37.203125 41.296875 42.84375 
Q 37.203125 48.484375 30.078125 48.484375 
Q 22.953125 48.484375 18.875 42.84375 
Q 14.796875 37.203125 14.796875 27.296875 
z
" id="DejaVuSans-64"/>
     <path d="M 44.28125 53.078125 
L 44.28125 44.578125 
Q 40.484375 46.53125 36.375 47.5 
Q 32.28125 48.484375 27.875 48.484375 
Q 21.1875 48.484375 17.84375 46.4375 
Q 14.5 44.390625 14.5 40.28125 
Q 14.5 37.15625 16.890625 35.375 
Q 19.28125 33.59375 26.515625 31.984375 
L 29.59375 31.296875 
Q 39.15625 29.25 43.1875 25.515625 
Q 47.21875 21.78125 47.21875 15.09375 
Q 47.21875 7.46875 41.1875 3.015625 
Q 35.15625 -1.421875 24.609375 -1.421875 
Q 20.21875 -1.421875 15.453125 -0.5625 
Q 10.6875 0.296875 5.421875 2 
L 5.421875 11.28125 
Q 10.40625 8.6875 15.234375 7.390625 
Q 20.0625 6.109375 24.8125 6.109375 
Q 31.15625 6.109375 34.5625 8.28125 
Q 37.984375 10.453125 37.984375 14.40625 
Q 37.984375 18.0625 35.515625 20.015625 
Q 33.0625 21.96875 24.703125 23.78125 
L 21.578125 24.515625 
Q 13.234375 26.265625 9.515625 29.90625 
Q 5.8125 33.546875 5.8125 39.890625 
Q 5.8125 47.609375 11.28125 51.796875 
Q 16.75 56 26.8125 56 
Q 31.78125 56 36.171875 55.265625 
Q 40.578125 54.546875 44.28125 53.078125 
z
" id="DejaVuSans-73"/>
     <path d="M 18.3125 70.21875 
L 18.3125 54.6875 
L 36.8125 54.6875 
L 36.8125 47.703125 
L 18.3125 47.703125 
L 18.3125 18.015625 
Q 18.3125 11.328125 20.140625 9.421875 
Q 21.96875 7.515625 27.59375 7.515625 
L 36.8125 7.515625 
L 36.8125 0 
L 27.59375 0 
Q 17.1875 0 13.234375 3.875 
Q 9.28125 7.765625 9.28125 18.015625 
L 9.28125 47.703125 
L 2.6875 47.703125 
L 2.6875 54.6875 
L 9.28125 54.6875 
L 9.28125 70.21875 
z
" id="DejaVuSans-74"/>
     <path d="M 34.28125 27.484375 
Q 23.390625 27.484375 19.1875 25 
Q 14.984375 22.515625 14.984375 16.5 
Q 14.984375 11.71875 18.140625 8.90625 
Q 21.296875 6.109375 26.703125 6.109375 
Q 34.1875 6.109375 38.703125 11.40625 
Q 43.21875 16.703125 43.21875 25.484375 
L 43.21875 27.484375 
z
M 52.203125 31.203125 
L 52.203125 0 
L 43.21875 0 
L 43.21875 8.296875 
Q 40.140625 3.328125 35.546875 0.953125 
Q 30.953125 -1.421875 24.3125 -1.421875 
Q 15.921875 -1.421875 10.953125 3.296875 
Q 6 8.015625 6 15.921875 
Q 6 25.140625 12.171875 29.828125 
Q 18.359375 34.515625 30.609375 34.515625 
L 43.21875 34.515625 
L 43.21875 35.40625 
Q 43.21875 41.609375 39.140625 45 
Q 35.0625 48.390625 27.6875 48.390625 
Q 23 48.390625 18.546875 47.265625 
Q 14.109375 46.140625 10.015625 43.890625 
L 10.015625 52.203125 
Q 14.9375 54.109375 19.578125 55.046875 
Q 24.21875 56 28.609375 56 
Q 40.484375 56 46.34375 49.84375 
Q 52.203125 43.703125 52.203125 31.203125 
z
" id="DejaVuSans-61"/>
     <path d="M 54.890625 33.015625 
L 54.890625 0 
L 45.90625 0 
L 45.90625 32.71875 
Q 45.90625 40.484375 42.875 44.328125 
Q 39.84375 48.1875 33.796875 48.1875 
Q 26.515625 48.1875 22.3125 43.546875 
Q 18.109375 38.921875 18.109375 30.90625 
L 18.109375 0 
L 9.078125 0 
L 9.078125 54.6875 
L 18.109375 54.6875 
L 18.109375 46.1875 
Q 21.34375 51.125 25.703125 53.5625 
Q 30.078125 56 35.796875 56 
Q 45.21875 56 50.046875 50.171875 
Q 54.890625 44.34375 54.890625 33.015625 
z
" id="DejaVuSans-6e"/>
     <path id="DejaVuSans-20"/>
     <path d="M 56.203125 29.59375 
L 56.203125 25.203125 
L 14.890625 25.203125 
Q 15.484375 15.921875 20.484375 11.0625 
Q 25.484375 6.203125 34.421875 6.203125 
Q 39.59375 6.203125 44.453125 7.46875 
Q 49.3125 8.734375 54.109375 11.28125 
L 54.109375 2.78125 
Q 49.265625 0.734375 44.1875 -0.34375 
Q 39.109375 -1.421875 33.890625 -1.421875 
Q 20.796875 -1.421875 13.15625 6.1875 
Q 5.515625 13.8125 5.515625 26.8125 
Q 5.515625 40.234375 12.765625 48.109375 
Q 20.015625 56 32.328125 56 
Q 43.359375 56 49.78125 48.890625 
Q 56.203125 41.796875 56.203125 29.59375 
z
M 47.21875 32.234375 
Q 47.125 39.59375 43.09375 43.984375 
Q 39.0625 48.390625 32.421875 48.390625 
Q 24.90625 48.390625 20.390625 44.140625 
Q 15.875 39.890625 15.1875 32.171875 
z
" id="DejaVuSans-65"/>
     <path d="M 41.109375 46.296875 
Q 39.59375 47.171875 37.8125 47.578125 
Q 36.03125 48 33.890625 48 
Q 26.265625 48 22.1875 43.046875 
Q 18.109375 38.09375 18.109375 28.8125 
L 18.109375 0 
L 9.078125 0 
L 9.078125 54.6875 
L 18.109375 54.6875 
L 18.109375 46.1875 
Q 20.953125 51.171875 25.484375 53.578125 
Q 30.03125 56 36.53125 56 
Q 37.453125 56 38.578125 55.875 
Q 39.703125 55.765625 41.0625 55.515625 
z
" id="DejaVuSans-72"/>
     <path d="M 18.109375 8.203125 
L 18.109375 -20.796875 
L 9.078125 -20.796875 
L 9.078125 54.6875 
L 18.109375 54.6875 
L 18.109375 46.390625 
Q 20.953125 51.265625 25.265625 53.625 
Q 29.59375 56 35.59375 56 
Q 45.5625 56 51.78125 48.09375 
Q 58.015625 40.1875 58.015625 27.296875 
Q 58.015625 14.40625 51.78125 6.484375 
Q 45.5625 -1.421875 35.59375 -1.421875 
Q 29.59375 -1.421875 25.265625 0.953125 
Q 20.953125 3.328125 18.109375 8.203125 
z
M 48.6875 27.296875 
Q 48.6875 37.203125 44.609375 42.84375 
Q 40.53125 48.484375 33.40625 48.484375 
Q 26.265625 48.484375 22.1875 42.84375 
Q 18.109375 37.203125 18.109375 27.296875 
Q 18.109375 17.390625 22.1875 11.75 
Q 26.265625 6.109375 33.40625 6.109375 
Q 40.53125 6.109375 44.609375 11.75 
Q 48.6875 17.390625 48.6875 27.296875 
z
" id="DejaVuSans-70"/>
     <path d="M 30.609375 48.390625 
Q 23.390625 48.390625 19.1875 42.75 
Q 14.984375 37.109375 14.984375 27.296875 
Q 14.984375 17.484375 19.15625 11.84375 
Q 23.34375 6.203125 30.609375 6.203125 
Q 37.796875 6.203125 41.984375 11.859375 
Q 46.1875 17.53125 46.1875 27.296875 
Q 46.1875 37.015625 41.984375 42.703125 
Q 37.796875 48.390625 30.609375 48.390625 
z
M 30.609375 56 
Q 42.328125 56 49.015625 48.375 
Q 55.71875 40.765625 55.71875 27.296875 
Q 55.71875 13.875 49.015625 6.21875 
Q 42.328125 -1.421875 30.609375 -1.421875 
Q 18.84375 -1.421875 12.171875 6.21875 
Q 5.515625 13.875 5.515625 27.296875 
Q 5.515625 40.765625 12.171875 48.375 
Q 18.84375 56 30.609375 56 
z
" id="DejaVuSans-6f"/>
     <path d="M 9.421875 75.984375 
L 18.40625 75.984375 
L 18.40625 0 
L 9.421875 0 
z
" id="DejaVuSans-6c"/>
     <path d="M 37.109375 75.984375 
L 37.109375 68.5 
L 28.515625 68.5 
Q 23.6875 68.5 21.796875 66.546875 
Q 19.921875 64.59375 19.921875 59.515625 
L 19.921875 54.6875 
L 34.71875 54.6875 
L 34.71875 47.703125 
L 19.921875 47.703125 
L 19.921875 0 
L 10.890625 0 
L 10.890625 47.703125 
L 2.296875 47.703125 
L 2.296875 54.6875 
L 10.890625 54.6875 
L 10.890625 58.5 
Q 10.890625 67.625 15.140625 71.796875 
Q 19.390625 75.984375 28.609375 75.984375 
z
" id="DejaVuSans-66"/>
     <path d="M 47.796875 75.984375 
L 46.390625 68.5 
L 37.796875 68.5 
Q 32.90625 68.5 30.6875 66.578125 
Q 28.46875 64.65625 27.390625 59.515625 
L 26.421875 54.6875 
L 41.21875 54.6875 
L 39.890625 47.703125 
L 25.09375 47.703125 
L 15.828125 0 
L 6.78125 0 
L 16.109375 47.703125 
L 7.515625 47.703125 
L 8.796875 54.6875 
L 17.390625 54.6875 
L 18.109375 58.5 
Q 19.96875 68.171875 24.625 72.078125 
Q 29.296875 75.984375 39.3125 75.984375 
z
" id="DejaVuSans-Oblique-66"/>
     <path d="M 60.015625 54.6875 
L 34.90625 27.875 
L 50.296875 0 
L 39.984375 0 
L 28.421875 21.6875 
L 8.296875 0 
L -2.59375 0 
L 24.3125 28.8125 
L 10.015625 54.6875 
L 20.3125 54.6875 
L 30.8125 34.90625 
L 49.125 54.6875 
z
" id="DejaVuSans-Oblique-78"/>
     <path d="M 11.71875 12.40625 
L 22.015625 12.40625 
L 22.015625 0 
L 11.71875 0 
z
M 11.71875 51.703125 
L 22.015625 51.703125 
L 22.015625 39.3125 
L 11.71875 39.3125 
z
" id="DejaVuSans-3a"/>
    </defs>
    <g transform="translate(251.62 20.88)scale(0.12 -0.12)">
     <use transform="translate(0 0.015625)" xlink:href="#DejaVuSans-45"/>
     <use transform="translate(63.183594 0.015625)" xlink:href="#DejaVuSans-71"/>
     <use transform="translate(126.660156 0.015625)" xlink:href="#DejaVuSans-75"/>
     <use transform="translate(190.039062 0.015625)" xlink:href="#DejaVuSans-69"/>
     <use transform="translate(217.822266 0.015625)" xlink:href="#DejaVuSans-64"/>
     <use transform="translate(281.298828 0.015625)" xlink:href="#DejaVuSans-69"/>
     <use transform="translate(309.082031 0.015625)" xlink:href="#DejaVuSans-73"/>
     <use transform="translate(361.181641 0.015625)" xlink:href="#DejaVuSans-74"/>
     <use transform="translate(400.390625 0.015625)" xlink:href="#DejaVuSans-61"/>
     <use transform="translate(461.669922 0.015625)" xlink:href="#DejaVuSans-6e"/>
     <use transform="translate(525.048828 0.015625)" xlink:href="#DejaVuSans-74"/>
     <use transform="translate(564.257812 0.015625)" xlink:href="#DejaVuSans-20"/>
     <use transform="translate(596.044922 0.015625)" xlink:href="#DejaVuSans-69"/>
     <use transform="translate(623.828125 0.015625)" xlink:href="#DejaVuSans-6e"/>
     <use transform="translate(687.207031 0.015625)" xlink:href="#DejaVuSans-74"/>
     <use transform="translate(726.416016 0.015625)" xlink:href="#DejaVuSans-65"/>
     <use transform="translate(787.939453 0.015625)" xlink:href="#DejaVuSans-72"/>
     <use transform="translate(829.052734 0.015625)" xlink:href="#DejaVuSans-70"/>
     <use transform="translate(892.529297 0.015625)" xlink:href="#DejaVuSans-6f"/>
     <use transform="translate(953.710938 0.015625)" xlink:href="#DejaVuSans-6c"/>
     <use transform="translate(981.494141 0.015625)" xlink:href="#DejaVuSans-61"/>
     <use transform="translate(1042.773438 0.015625)" xlink:href="#DejaVuSans-74"/>
     <use transform="translate(1081.982422 0.015625)" xlink:href="#DejaVuSans-69"/>
     <use transform="translate(1109.765625 0.015625)" xlink:href="#DejaVuSans-6f"/>
     <use transform="translate(1170.947266 0.015625)" xlink:href="#DejaVuSans-6e"/>
     <use transform="translate(1234.326172 0.015625)" xlink:href="#DejaVuSans-20"/>
     <use transform="translate(1266.113281 0.015625)" xlink:href="#DejaVuSans-6f"/>
     <use transform="translate(1327.294922 0.015625)" xlink:href="#DejaVuSans-66"/>
     <use transform="translate(1362.5 0.015625)" xlink:href="#DejaVuSans-20"/>
     <use transform="translate(1394.287109 0.015625)" xlink:href="#DejaVuSans-Oblique-66"/>
     <use transform="translate(1429.492188 -16.390625)scale(0.7)" xlink:href="#DejaVuSans-Oblique-78"/>
     <use transform="translate(1473.652344 0.015625)" xlink:href="#DejaVuSans-3a"/>
    </g>
   </g>
   <g id="legend_1">
    <g id="patch_7">
     <path d="M 56.52 93.614375 
L 111.02 93.614375 
Q 113.02 93.614375 113.02 91.614375 
L 113.02 33.88 
Q 113.02 31.88 111.02 31.88 
L 56.52 31.88 
Q 54.52 31.88 54.52 33.88 
L 54.52 91.614375 
Q 54.52 93.614375 56.52 93.614375 
z
" style="fill:#ffffff;opacity:0.8;stroke:#cccccc;stroke-linejoin:miter;"/>
    </g>
    <g id="line2d_20">
     <path d="M 58.52 39.98 
L 78.52 39.98 
" style="fill:none;stroke:#4169e1;stroke-linecap:square;stroke-width:1.5;"/>
    </g>
    <g id="line2d_21"/>
    <g id="text_19">
     <!-- $q_x( t )$ -->
     <defs>
      <path d="M 41.703125 8.203125 
Q 38.09375 3.46875 33.171875 1.015625 
Q 28.265625 -1.421875 22.3125 -1.421875 
Q 14.015625 -1.421875 9.296875 4.171875 
Q 4.59375 9.765625 4.59375 19.578125 
Q 4.59375 27.484375 7.5 34.859375 
Q 10.40625 42.234375 15.828125 48.09375 
Q 19.34375 51.90625 23.90625 53.953125 
Q 28.46875 56 33.5 56 
Q 39.546875 56 43.453125 53.609375 
Q 47.359375 51.21875 49.125 46.390625 
L 50.6875 54.59375 
L 59.71875 54.59375 
L 45.125 -20.609375 
L 36.078125 -20.609375 
z
M 13.921875 20.90625 
Q 13.921875 13.671875 16.9375 9.890625 
Q 19.96875 6.109375 25.6875 6.109375 
Q 34.1875 6.109375 40.1875 14.234375 
Q 46.1875 22.359375 46.1875 33.984375 
Q 46.1875 41.015625 43.078125 44.75 
Q 39.984375 48.484375 34.1875 48.484375 
Q 29.9375 48.484375 26.3125 46.5 
Q 22.703125 44.53125 20.015625 40.71875 
Q 17.1875 36.71875 15.546875 31.34375 
Q 13.921875 25.984375 13.921875 20.90625 
z
" id="DejaVuSans-Oblique-71"/>
     </defs>
     <g transform="translate(86.52 43.48)scale(0.1 -0.1)">
      <use transform="translate(0 0.125)" xlink:href="#DejaVuSans-Oblique-71"/>
      <use transform="translate(63.476562 -16.28125)scale(0.7)" xlink:href="#DejaVuSans-Oblique-78"/>
      <use transform="translate(107.636719 0.125)" xlink:href="#DejaVuSans-28"/>
      <use transform="translate(146.650391 0.125)" xlink:href="#DejaVuSans-Oblique-74"/>
      <use transform="translate(185.859375 0.125)" xlink:href="#DejaVuSans-29"/>
     </g>
    </g>
    <g id="line2d_22">
     <path d="M 58.52 54.678437 
L 78.52 54.678437 
" style="fill:none;stroke:#ff4500;stroke-linecap:square;stroke-width:1.5;"/>
    </g>
    <g id="line2d_23"/>
    <g id="text_20">
     <!-- $s_x( t )$ -->
     <defs>
      <path d="M 50 53.078125 
L 48.296875 44.578125 
Q 44.734375 46.53125 40.765625 47.5 
Q 36.8125 48.484375 32.625 48.484375 
Q 25.53125 48.484375 21.453125 46.0625 
Q 17.390625 43.65625 17.390625 39.5 
Q 17.390625 34.671875 26.859375 32.078125 
Q 27.59375 31.890625 27.9375 31.78125 
L 30.8125 30.90625 
Q 39.796875 28.421875 42.796875 25.6875 
Q 45.796875 22.953125 45.796875 18.21875 
Q 45.796875 9.515625 38.890625 4.046875 
Q 31.984375 -1.421875 20.796875 -1.421875 
Q 16.453125 -1.421875 11.671875 -0.578125 
Q 6.890625 0.25 1.125 2 
L 2.875 11.28125 
Q 7.8125 8.734375 12.59375 7.421875 
Q 17.390625 6.109375 21.78125 6.109375 
Q 28.375 6.109375 32.5 8.9375 
Q 36.625 11.765625 36.625 16.109375 
Q 36.625 20.796875 25.78125 23.6875 
L 24.859375 23.921875 
L 21.78125 24.703125 
Q 14.9375 26.515625 11.765625 29.46875 
Q 8.59375 32.421875 8.59375 37.015625 
Q 8.59375 45.75 15.15625 50.875 
Q 21.734375 56 33.015625 56 
Q 37.453125 56 41.671875 55.265625 
Q 45.90625 54.546875 50 53.078125 
z
" id="DejaVuSans-Oblique-73"/>
     </defs>
     <g transform="translate(86.52 58.178437)scale(0.1 -0.1)">
      <use transform="translate(0 0.125)" xlink:href="#DejaVuSans-Oblique-73"/>
      <use transform="translate(52.099609 -16.28125)scale(0.7)" xlink:href="#DejaVuSans-Oblique-78"/>
      <use transform="translate(96.259766 0.125)" xlink:href="#DejaVuSans-28"/>
      <use transform="translate(135.273438 0.125)" xlink:href="#DejaVuSans-Oblique-74"/>
      <use transform="translate(174.482422 0.125)" xlink:href="#DejaVuSans-29"/>
     </g>
    </g>
    <g id="line2d_24">
     <path d="M 58.52 69.356562 
L 78.52 69.356562 
" style="fill:none;stroke:#48d1cc;stroke-dasharray:1.5,2.475;stroke-dashoffset:0;stroke-width:1.5;"/>
    </g>
    <g id="line2d_25"/>
    <g id="text_21">
     <!-- $f_x( t )$ -->
     <g transform="translate(86.52 72.856562)scale(0.1 -0.1)">
      <use transform="translate(0 0.015625)" xlink:href="#DejaVuSans-Oblique-66"/>
      <use transform="translate(35.205078 -16.390625)scale(0.7)" xlink:href="#DejaVuSans-Oblique-78"/>
      <use transform="translate(79.365234 0.015625)" xlink:href="#DejaVuSans-28"/>
      <use transform="translate(118.378906 0.015625)" xlink:href="#DejaVuSans-Oblique-74"/>
      <use transform="translate(157.587891 0.015625)" xlink:href="#DejaVuSans-29"/>
     </g>
    </g>
    <g id="line2d_26"/>
    <g id="line2d_27">
     <g>
      <use style="fill:#0000ff;stroke:#0000ff;" x="68.52" xlink:href="#ma523cf57f0" y="84.034688"/>
     </g>
    </g>
    <g id="text_22">
     <!-- $int$ -->
     <defs>
      <path d="M 18.3125 75.984375 
L 27.296875 75.984375 
L 25.09375 64.59375 
L 16.109375 64.59375 
z
M 14.203125 54.6875 
L 23.1875 54.6875 
L 12.5 0 
L 3.515625 0 
z
" id="DejaVuSans-Oblique-69"/>
      <path d="M 55.71875 33.015625 
L 49.3125 0 
L 40.28125 0 
L 46.6875 32.671875 
Q 47.125 34.96875 47.359375 36.71875 
Q 47.609375 38.484375 47.609375 39.5 
Q 47.609375 43.609375 45.015625 45.890625 
Q 42.4375 48.1875 37.796875 48.1875 
Q 30.5625 48.1875 25.34375 43.375 
Q 20.125 38.578125 18.5 30.328125 
L 12.5 0 
L 3.515625 0 
L 14.109375 54.6875 
L 23.09375 54.6875 
L 21.296875 46.09375 
Q 25.046875 50.828125 30.3125 53.40625 
Q 35.59375 56 41.40625 56 
Q 48.640625 56 52.609375 52.09375 
Q 56.59375 48.1875 56.59375 41.109375 
Q 56.59375 39.359375 56.375 37.359375 
Q 56.15625 35.359375 55.71875 33.015625 
z
" id="DejaVuSans-Oblique-6e"/>
     </defs>
     <g transform="translate(86.52 87.534688)scale(0.1 -0.1)">
      <use transform="translate(0 0.015625)" xlink:href="#DejaVuSans-Oblique-69"/>
      <use transform="translate(27.783203 0.015625)" xlink:href="#DejaVuSans-Oblique-6e"/>
      <use transform="translate(91.162109 0.015625)" xlink:href="#DejaVuSans-Oblique-74"/>
     </g>
    </g>
   </g>
  </g>
  <g id="axes_2">
   <g id="patch_8">
    <path d="M 49.52 604.3975 
L 634.68 604.3975 
L 634.68 345.48 
L 49.52 345.48 
z
" style="fill:#ffffff;"/>
   </g>
   <g id="matplotlib.axis_3">
    <g id="xtick_10">
     <g id="line2d_28">
      <g>
       <use style="stroke:#000000;stroke-width:0.8;" x="76.118182" xlink:href="#mc6347fdae9" y="604.3975"/>
      </g>
     </g>
     <g id="text_23">
      <!-- 0 -->
      <g transform="translate(72.936932 618.995938)scale(0.1 -0.1)">
       <use xlink:href="#DejaVuSans-30"/>
      </g>
     </g>
    </g>
    <g id="xtick_11">
     <g id="line2d_29">
      <g>
       <use style="stroke:#000000;stroke-width:0.8;" x="142.613636" xlink:href="#mc6347fdae9" y="604.3975"/>
      </g>
     </g>
     <g id="text_24">
      <!-- 0.25 -->
      <g transform="translate(131.480824 618.995938)scale(0.1 -0.1)">
       <use xlink:href="#DejaVuSans-30"/>
       <use x="63.623047" xlink:href="#DejaVuSans-2e"/>
       <use x="95.410156" xlink:href="#DejaVuSans-32"/>
       <use x="159.033203" xlink:href="#DejaVuSans-35"/>
      </g>
     </g>
    </g>
    <g id="xtick_12">
     <g id="line2d_30">
      <g>
       <use style="stroke:#000000;stroke-width:0.8;" x="209.109091" xlink:href="#mc6347fdae9" y="604.3975"/>
      </g>
     </g>
     <g id="text_25">
      <!-- 0.5 -->
      <g transform="translate(201.157528 618.995938)scale(0.1 -0.1)">
       <use xlink:href="#DejaVuSans-30"/>
       <use x="63.623047" xlink:href="#DejaVuSans-2e"/>
       <use x="95.410156" xlink:href="#DejaVuSans-35"/>
      </g>
     </g>
    </g>
    <g id="xtick_13">
     <g id="line2d_31">
      <g>
       <use style="stroke:#000000;stroke-width:0.8;" x="275.604545" xlink:href="#mc6347fdae9" y="604.3975"/>
      </g>
     </g>
     <g id="text_26">
      <!-- 0.75 -->
      <g transform="translate(264.471733 618.995938)scale(0.1 -0.1)">
       <use xlink:href="#DejaVuSans-30"/>
       <use x="63.623047" xlink:href="#DejaVuSans-2e"/>
       <use x="95.410156" xlink:href="#DejaVuSans-37"/>
       <use x="159.033203" xlink:href="#DejaVuSans-35"/>
      </g>
     </g>
    </g>
    <g id="xtick_14">
     <g id="line2d_32">
      <g>
       <use style="stroke:#000000;stroke-width:0.8;" x="342.1" xlink:href="#mc6347fdae9" y="604.3975"/>
      </g>
     </g>
     <g id="text_27">
      <!-- 1 -->
      <g transform="translate(338.91875 618.995938)scale(0.1 -0.1)">
       <use xlink:href="#DejaVuSans-31"/>
      </g>
     </g>
    </g>
    <g id="xtick_15">
     <g id="line2d_33">
      <g>
       <use style="stroke:#000000;stroke-width:0.8;" x="408.595455" xlink:href="#mc6347fdae9" y="604.3975"/>
      </g>
     </g>
     <g id="text_28">
      <!-- 1.25 -->
      <g transform="translate(397.462642 618.995938)scale(0.1 -0.1)">
       <use xlink:href="#DejaVuSans-31"/>
       <use x="63.623047" xlink:href="#DejaVuSans-2e"/>
       <use x="95.410156" xlink:href="#DejaVuSans-32"/>
       <use x="159.033203" xlink:href="#DejaVuSans-35"/>
      </g>
     </g>
    </g>
    <g id="xtick_16">
     <g id="line2d_34">
      <g>
       <use style="stroke:#000000;stroke-width:0.8;" x="475.090909" xlink:href="#mc6347fdae9" y="604.3975"/>
      </g>
     </g>
     <g id="text_29">
      <!-- 1.5 -->
      <g transform="translate(467.139347 618.995938)scale(0.1 -0.1)">
       <use xlink:href="#DejaVuSans-31"/>
       <use x="63.623047" xlink:href="#DejaVuSans-2e"/>
       <use x="95.410156" xlink:href="#DejaVuSans-35"/>
      </g>
     </g>
    </g>
    <g id="xtick_17">
     <g id="line2d_35">
      <g>
       <use style="stroke:#000000;stroke-width:0.8;" x="541.586364" xlink:href="#mc6347fdae9" y="604.3975"/>
      </g>
     </g>
     <g id="text_30">
      <!-- 1.75 -->
      <g transform="translate(530.453551 618.995938)scale(0.1 -0.1)">
       <use xlink:href="#DejaVuSans-31"/>
       <use x="63.623047" xlink:href="#DejaVuSans-2e"/>
       <use x="95.410156" xlink:href="#DejaVuSans-37"/>
       <use x="159.033203" xlink:href="#DejaVuSans-35"/>
      </g>
     </g>
    </g>
    <g id="xtick_18">
     <g id="line2d_36">
      <g>
       <use style="stroke:#000000;stroke-width:0.8;" x="608.081818" xlink:href="#mc6347fdae9" y="604.3975"/>
      </g>
     </g>
     <g id="text_31">
      <!-- 2 -->
      <g transform="translate(604.900568 618.995938)scale(0.1 -0.1)">
       <use xlink:href="#DejaVuSans-32"/>
      </g>
     </g>
    </g>
    <g id="text_32">
     <!-- $t\ [rad/\pi]$ -->
     <g transform="translate(321.6 632.674062)scale(0.1 -0.1)">
      <use transform="translate(0 0.015625)" xlink:href="#DejaVuSans-Oblique-74"/>
      <use transform="translate(71.679363 0.015625)" xlink:href="#DejaVuSans-5b"/>
      <use transform="translate(110.693035 0.015625)" xlink:href="#DejaVuSans-Oblique-72"/>
      <use transform="translate(151.806316 0.015625)" xlink:href="#DejaVuSans-Oblique-61"/>
      <use transform="translate(213.085613 0.015625)" xlink:href="#DejaVuSans-Oblique-64"/>
      <use transform="translate(276.562175 0.015625)" xlink:href="#DejaVuSans-2f"/>
      <use transform="translate(310.253582 0.015625)" xlink:href="#DejaVuSans-Oblique-3c0"/>
      <use transform="translate(370.45866 0.015625)" xlink:href="#DejaVuSans-5d"/>
     </g>
    </g>
   </g>
   <g id="matplotlib.axis_4">
    <g id="ytick_7">
     <g id="line2d_37">
      <g>
       <use style="stroke:#000000;stroke-width:0.8;" x="49.52" xlink:href="#mb7483b704f" y="583.584824"/>
      </g>
     </g>
     <g id="text_33">
      <!-- −3 -->
      <defs>
       <path d="M 40.578125 39.3125 
Q 47.65625 37.796875 51.625 33 
Q 55.609375 28.21875 55.609375 21.1875 
Q 55.609375 10.40625 48.1875 4.484375 
Q 40.765625 -1.421875 27.09375 -1.421875 
Q 22.515625 -1.421875 17.65625 -0.515625 
Q 12.796875 0.390625 7.625 2.203125 
L 7.625 11.71875 
Q 11.71875 9.328125 16.59375 8.109375 
Q 21.484375 6.890625 26.8125 6.890625 
Q 36.078125 6.890625 40.9375 10.546875 
Q 45.796875 14.203125 45.796875 21.1875 
Q 45.796875 27.640625 41.28125 31.265625 
Q 36.765625 34.90625 28.71875 34.90625 
L 20.21875 34.90625 
L 20.21875 43.015625 
L 29.109375 43.015625 
Q 36.375 43.015625 40.234375 45.921875 
Q 44.09375 48.828125 44.09375 54.296875 
Q 44.09375 59.90625 40.109375 62.90625 
Q 36.140625 65.921875 28.71875 65.921875 
Q 24.65625 65.921875 20.015625 65.03125 
Q 15.375 64.15625 9.8125 62.3125 
L 9.8125 71.09375 
Q 15.4375 72.65625 20.34375 73.4375 
Q 25.25 74.21875 29.59375 74.21875 
Q 40.828125 74.21875 47.359375 69.109375 
Q 53.90625 64.015625 53.90625 55.328125 
Q 53.90625 49.265625 50.4375 45.09375 
Q 46.96875 40.921875 40.578125 39.3125 
z
" id="DejaVuSans-33"/>
      </defs>
      <g transform="translate(27.777813 587.384043)scale(0.1 -0.1)">
       <use xlink:href="#DejaVuSans-2212"/>
       <use x="83.789062" xlink:href="#DejaVuSans-33"/>
      </g>
     </g>
    </g>
    <g id="ytick_8">
     <g id="line2d_38">
      <g>
       <use style="stroke:#000000;stroke-width:0.8;" x="49.52" xlink:href="#mb7483b704f" y="552.491708"/>
      </g>
     </g>
     <g id="text_34">
      <!-- −2 -->
      <g transform="translate(27.777813 556.290927)scale(0.1 -0.1)">
       <use xlink:href="#DejaVuSans-2212"/>
       <use x="83.789062" xlink:href="#DejaVuSans-32"/>
      </g>
     </g>
    </g>
    <g id="ytick_9">
     <g id="line2d_39">
      <g>
       <use style="stroke:#000000;stroke-width:0.8;" x="49.52" xlink:href="#mb7483b704f" y="521.398592"/>
      </g>
     </g>
     <g id="text_35">
      <!-- −1 -->
      <g transform="translate(27.777813 525.197811)scale(0.1 -0.1)">
       <use xlink:href="#DejaVuSans-2212"/>
       <use x="83.789062" xlink:href="#DejaVuSans-31"/>
      </g>
     </g>
    </g>
    <g id="ytick_10">
     <g id="line2d_40">
      <g>
       <use style="stroke:#000000;stroke-width:0.8;" x="49.52" xlink:href="#mb7483b704f" y="490.305476"/>
      </g>
     </g>
     <g id="text_36">
      <!-- 0 -->
      <g transform="translate(36.1575 494.104695)scale(0.1 -0.1)">
       <use xlink:href="#DejaVuSans-30"/>
      </g>
     </g>
    </g>
    <g id="ytick_11">
     <g id="line2d_41">
      <g>
       <use style="stroke:#000000;stroke-width:0.8;" x="49.52" xlink:href="#mb7483b704f" y="459.21236"/>
      </g>
     </g>
     <g id="text_37">
      <!-- 1 -->
      <g transform="translate(36.1575 463.011579)scale(0.1 -0.1)">
       <use xlink:href="#DejaVuSans-31"/>
      </g>
     </g>
    </g>
    <g id="ytick_12">
     <g id="line2d_42">
      <g>
       <use style="stroke:#000000;stroke-width:0.8;" x="49.52" xlink:href="#mb7483b704f" y="428.119245"/>
      </g>
     </g>
     <g id="text_38">
      <!-- 2 -->
      <g transform="translate(36.1575 431.918463)scale(0.1 -0.1)">
       <use xlink:href="#DejaVuSans-32"/>
      </g>
     </g>
    </g>
    <g id="ytick_13">
     <g id="line2d_43">
      <g>
       <use style="stroke:#000000;stroke-width:0.8;" x="49.52" xlink:href="#mb7483b704f" y="397.026129"/>
      </g>
     </g>
     <g id="text_39">
      <!-- 3 -->
      <g transform="translate(36.1575 400.825348)scale(0.1 -0.1)">
       <use xlink:href="#DejaVuSans-33"/>
      </g>
     </g>
    </g>
    <g id="ytick_14">
     <g id="line2d_44">
      <g>
       <use style="stroke:#000000;stroke-width:0.8;" x="49.52" xlink:href="#mb7483b704f" y="365.933013"/>
      </g>
     </g>
     <g id="text_40">
      <!-- 4 -->
      <g transform="translate(36.1575 369.732232)scale(0.1 -0.1)">
       <use xlink:href="#DejaVuSans-34"/>
      </g>
     </g>
    </g>
    <g id="text_41">
     <!-- $y( t )\ [1]$ -->
     <g transform="translate(21.677813 492.48875)rotate(-90)scale(0.1 -0.1)">
      <use transform="translate(0 0.015625)" xlink:href="#DejaVuSans-Oblique-79"/>
      <use transform="translate(59.179688 0.015625)" xlink:href="#DejaVuSans-28"/>
      <use transform="translate(98.193359 0.015625)" xlink:href="#DejaVuSans-Oblique-74"/>
      <use transform="translate(137.402344 0.015625)" xlink:href="#DejaVuSans-29"/>
      <use transform="translate(208.886394 0.015625)" xlink:href="#DejaVuSans-5b"/>
      <use transform="translate(247.900066 0.015625)" xlink:href="#DejaVuSans-31"/>
      <use transform="translate(311.523113 0.015625)" xlink:href="#DejaVuSans-5d"/>
     </g>
    </g>
   </g>
   <g id="line2d_45">
    <path clip-path="url(#p4ba742d5c4)" d="M 76.118182 490.305476 
L 78.71951 487.487703 
L 87.816179 477.355081 
L 89.821702 475.606529 
L 91.534642 474.397384 
L 93.790191 473.134145 
L 95.258425 472.483187 
L 96.721339 472.075251 
L 98.200213 471.892916 
L 99.716325 471.931199 
L 101.290953 472.195972 
L 102.950696 472.704483 
L 104.722153 473.484599 
L 106.642561 474.579269 
L 108.754477 476.045762 
L 111.132379 477.975872 
L 113.914576 480.532369 
L 117.404292 484.058269 
L 121.617487 488.636649 
L 126.320092 494.08374 
L 131.756815 500.733149 
L 138.592616 509.465699 
L 162.18012 539.904044 
L 168.781854 547.899338 
L 174.543078 554.535787 
L 179.745734 560.196465 
L 184.528135 565.07714 
L 188.970076 569.298422 
L 193.146032 572.965183 
L 197.173037 576.208545 
L 201.125567 579.109317 
L 205.00894 581.686238 
L 208.828477 583.956339 
L 212.589498 585.934998 
L 216.297321 587.635993 
L 219.951948 589.069634 
L 223.564017 590.249239 
L 227.138849 591.184034 
L 230.681762 591.881806 
L 234.203396 592.349465 
L 237.709072 592.590981 
L 241.204108 592.608956 
L 244.693824 592.404636 
L 248.327172 591.964555 
L 251.902004 591.305883 
L 255.572589 590.402018 
L 259.344249 589.242799 
L 263.238262 587.811506 
L 267.265267 586.092479 
L 271.446543 584.063635 
L 275.803369 581.699855 
L 280.357023 578.97353 
L 285.139424 575.848 
L 290.187809 572.279527 
L 295.550057 568.213111 
L 301.300641 563.568552 
L 307.540637 558.237344 
L 314.647742 551.86164 
L 321.430346 545.484979 
L 328.021442 538.983363 
L 334.452946 532.326728 
L 340.751459 525.487485 
L 346.938258 518.441074 
L 353.034622 511.160238 
L 359.05651 503.621286 
L 365.014563 495.805179 
L 370.924738 487.683849 
L 376.792355 479.241672 
L 382.628055 470.45412 
L 388.463754 461.262058 
L 395.113366 450.350385 
L 405.715508 432.456705 
L 416.514477 414.373182 
L 422.924703 404.070851 
L 428.228434 395.95609 
L 432.893802 389.214782 
L 437.106996 383.508903 
L 440.97441 378.63775 
L 444.559881 374.47204 
L 447.905966 370.918241 
L 451.049902 367.897174 
L 454.012969 365.352255 
L 456.821765 363.227862 
L 459.48693 361.485901 
L 462.029741 360.085041 
L 464.466159 358.993014 
L 466.806823 358.184243 
L 469.067691 357.635345 
L 471.264722 357.328542 
L 473.413877 357.25185 
L 476.057763 357.407458 
L 478.222876 357.768371 
L 480.446507 358.3666 
L 482.739293 359.215764 
L 485.122514 360.338298 
L 487.606809 361.757299 
L 490.213457 363.506195 
L 492.953097 365.616158 
L 495.852328 368.134653 
L 498.927108 371.105431 
L 502.209357 374.591696 
L 505.730991 378.662749 
L 509.545208 383.418783 
L 513.726484 388.995979 
L 518.402492 395.614073 
L 523.812616 403.67038 
L 530.616499 414.224806 
L 553.193261 449.573588 
L 558.502311 457.281002 
L 563.103843 463.579307 
L 567.226602 468.8544 
L 570.992943 473.320537 
L 574.477339 477.114333 
L 577.72235 480.325073 
L 580.765212 483.028622 
L 583.627205 485.279738 
L 586.334927 487.132022 
L 588.909657 488.628453 
L 591.367354 489.803357 
L 593.718656 490.684612 
L 595.984844 491.299512 
L 598.181876 491.66712 
L 600.320391 491.800779 
L 602.416349 491.709667 
L 604.485708 491.396827 
L 606.539108 490.860542 
L 608.081818 490.305476 
L 608.081818 490.305476 
" style="fill:none;stroke:#cd5c5c;stroke-linecap:square;stroke-width:1.5;"/>
   </g>
   <g id="line2d_46">
    <g clip-path="url(#p4ba742d5c4)">
     <use style="fill:#0000ff;stroke:#0000ff;" x="76.118182" xlink:href="#ma523cf57f0" y="490.305476"/>
     <use style="fill:#0000ff;stroke:#0000ff;" x="92.861915" xlink:href="#ma523cf57f0" y="473.676881"/>
     <use style="fill:#0000ff;stroke:#0000ff;" x="116.158112" xlink:href="#ma523cf57f0" y="482.766683"/>
     <use style="fill:#0000ff;stroke:#0000ff;" x="148.829707" xlink:href="#ma523cf57f0" y="522.866111"/>
     <use style="fill:#0000ff;stroke:#0000ff;" x="191.893773" xlink:href="#ma523cf57f0" y="571.897445"/>
     <use style="fill:#0000ff;stroke:#0000ff;" x="245.782125" xlink:href="#ma523cf57f0" y="592.295437"/>
     <use style="fill:#0000ff;stroke:#0000ff;" x="310.710974" xlink:href="#ma523cf57f0" y="555.426746"/>
     <use style="fill:#0000ff;stroke:#0000ff;" x="386.802475" xlink:href="#ma523cf57f0" y="463.9197"/>
     <use style="fill:#0000ff;stroke:#0000ff;" x="474.131954" xlink:href="#ma523cf57f0" y="357.276712"/>
    </g>
   </g>
   <g id="patch_9">
    <path d="M 49.52 604.3975 
L 49.52 345.48 
" style="fill:none;stroke:#000000;stroke-linecap:square;stroke-linejoin:miter;stroke-width:0.8;"/>
   </g>
   <g id="patch_10">
    <path d="M 634.68 604.3975 
L 634.68 345.48 
" style="fill:none;stroke:#000000;stroke-linecap:square;stroke-linejoin:miter;stroke-width:0.8;"/>
   </g>
   <g id="patch_11">
    <path d="M 49.52 604.3975 
L 634.68 604.3975 
" style="fill:none;stroke:#000000;stroke-linecap:square;stroke-linejoin:miter;stroke-width:0.8;"/>
   </g>
   <g id="patch_12">
    <path d="M 49.52 345.48 
L 634.68 345.48 
" style="fill:none;stroke:#000000;stroke-linecap:square;stroke-linejoin:miter;stroke-width:0.8;"/>
   </g>
   <g id="text_42">
    <!-- Non-equidistant interpolation of $f_x$: -->
    <defs>
     <path d="M 9.8125 72.90625 
L 23.09375 72.90625 
L 55.421875 11.921875 
L 55.421875 72.90625 
L 64.984375 72.90625 
L 64.984375 0 
L 51.703125 0 
L 19.390625 60.984375 
L 19.390625 0 
L 9.8125 0 
z
" id="DejaVuSans-4e"/>
     <path d="M 4.890625 31.390625 
L 31.203125 31.390625 
L 31.203125 23.390625 
L 4.890625 23.390625 
z
" id="DejaVuSans-2d"/>
    </defs>
    <g transform="translate(237.58 339.48)scale(0.12 -0.12)">
     <use transform="translate(0 0.015625)" xlink:href="#DejaVuSans-4e"/>
     <use transform="translate(74.804688 0.015625)" xlink:href="#DejaVuSans-6f"/>
     <use transform="translate(135.986328 0.015625)" xlink:href="#DejaVuSans-6e"/>
     <use transform="translate(199.365234 0.015625)" xlink:href="#DejaVuSans-2d"/>
     <use transform="translate(235.449219 0.015625)" xlink:href="#DejaVuSans-65"/>
     <use transform="translate(296.972656 0.015625)" xlink:href="#DejaVuSans-71"/>
     <use transform="translate(360.449219 0.015625)" xlink:href="#DejaVuSans-75"/>
     <use transform="translate(423.828125 0.015625)" xlink:href="#DejaVuSans-69"/>
     <use transform="translate(451.611328 0.015625)" xlink:href="#DejaVuSans-64"/>
     <use transform="translate(515.087891 0.015625)" xlink:href="#DejaVuSans-69"/>
     <use transform="translate(542.871094 0.015625)" xlink:href="#DejaVuSans-73"/>
     <use transform="translate(594.970703 0.015625)" xlink:href="#DejaVuSans-74"/>
     <use transform="translate(634.179688 0.015625)" xlink:href="#DejaVuSans-61"/>
     <use transform="translate(695.458984 0.015625)" xlink:href="#DejaVuSans-6e"/>
     <use transform="translate(758.837891 0.015625)" xlink:href="#DejaVuSans-74"/>
     <use transform="translate(798.046875 0.015625)" xlink:href="#DejaVuSans-20"/>
     <use transform="translate(829.833984 0.015625)" xlink:href="#DejaVuSans-69"/>
     <use transform="translate(857.617188 0.015625)" xlink:href="#DejaVuSans-6e"/>
     <use transform="translate(920.996094 0.015625)" xlink:href="#DejaVuSans-74"/>
     <use transform="translate(960.205078 0.015625)" xlink:href="#DejaVuSans-65"/>
     <use transform="translate(1021.728516 0.015625)" xlink:href="#DejaVuSans-72"/>
     <use transform="translate(1062.841797 0.015625)" xlink:href="#DejaVuSans-70"/>
     <use transform="translate(1126.318359 0.015625)" xlink:href="#DejaVuSans-6f"/>
     <use transform="translate(1187.5 0.015625)" xlink:href="#DejaVuSans-6c"/>
     <use transform="translate(1215.283203 0.015625)" xlink:href="#DejaVuSans-61"/>
     <use transform="translate(1276.5625 0.015625)" xlink:href="#DejaVuSans-74"/>
     <use transform="translate(1315.771484 0.015625)" xlink:href="#DejaVuSans-69"/>
     <use transform="translate(1343.554688 0.015625)" xlink:href="#DejaVuSans-6f"/>
     <use transform="translate(1404.736328 0.015625)" xlink:href="#DejaVuSans-6e"/>
     <use transform="translate(1468.115234 0.015625)" xlink:href="#DejaVuSans-20"/>
     <use transform="translate(1499.902344 0.015625)" xlink:href="#DejaVuSans-6f"/>
     <use transform="translate(1561.083984 0.015625)" xlink:href="#DejaVuSans-66"/>
     <use transform="translate(1596.289062 0.015625)" xlink:href="#DejaVuSans-20"/>
     <use transform="translate(1628.076172 0.015625)" xlink:href="#DejaVuSans-Oblique-66"/>
     <use transform="translate(1663.28125 -16.390625)scale(0.7)" xlink:href="#DejaVuSans-Oblique-78"/>
     <use transform="translate(1707.441406 0.015625)" xlink:href="#DejaVuSans-3a"/>
    </g>
   </g>
   <g id="legend_2">
    <g id="patch_13">
     <path d="M 573.18 382.83625 
L 627.68 382.83625 
Q 629.68 382.83625 629.68 380.83625 
L 629.68 352.48 
Q 629.68 350.48 627.68 350.48 
L 573.18 350.48 
Q 571.18 350.48 571.18 352.48 
L 571.18 380.83625 
Q 571.18 382.83625 573.18 382.83625 
z
" style="fill:#ffffff;opacity:0.8;stroke:#cccccc;stroke-linejoin:miter;"/>
    </g>
    <g id="line2d_47">
     <path d="M 575.18 358.578438 
L 595.18 358.578438 
" style="fill:none;stroke:#cd5c5c;stroke-linecap:square;stroke-width:1.5;"/>
    </g>
    <g id="line2d_48"/>
    <g id="text_43">
     <!-- $n_x( t )$ -->
     <g transform="translate(603.18 362.078438)scale(0.1 -0.1)">
      <use transform="translate(0 0.125)" xlink:href="#DejaVuSans-Oblique-6e"/>
      <use transform="translate(63.378906 -16.28125)scale(0.7)" xlink:href="#DejaVuSans-Oblique-78"/>
      <use transform="translate(107.539062 0.125)" xlink:href="#DejaVuSans-28"/>
      <use transform="translate(146.552734 0.125)" xlink:href="#DejaVuSans-Oblique-74"/>
      <use transform="translate(185.761719 0.125)" xlink:href="#DejaVuSans-29"/>
     </g>
    </g>
    <g id="line2d_49"/>
    <g id="line2d_50">
     <g>
      <use style="fill:#0000ff;stroke:#0000ff;" x="585.18" xlink:href="#ma523cf57f0" y="373.256563"/>
     </g>
    </g>
    <g id="text_44">
     <!-- $int$ -->
     <g transform="translate(603.18 376.756563)scale(0.1 -0.1)">
      <use transform="translate(0 0.015625)" xlink:href="#DejaVuSans-Oblique-69"/>
      <use transform="translate(27.783203 0.015625)" xlink:href="#DejaVuSans-Oblique-6e"/>
      <use transform="translate(91.162109 0.015625)" xlink:href="#DejaVuSans-Oblique-74"/>
     </g>
    </g>
   </g>
  </g>
 </g>
 <defs>
  <clipPath id="p794a2dd22a">
   <rect height="258.9175" width="585.16" x="49.52" y="26.88"/>
  </clipPath>
  <clipPath id="p4ba742d5c4">
   <rect height="258.9175" width="585.16" x="49.52" y="345.48"/>
  </clipPath>
 </defs>
</svg>
